<?xml version="1.0" encoding="UTF-8"?>
<svg xmlns="http://www.w3.org/2000/svg" xmlns:xlink="http://www.w3.org/1999/xlink" width="100.648" height="79.303" viewBox="0 0 100.648 79.303">
<defs>
<g>
<g id="glyph-0-0">
<path d="M 2.03125 -3.953125 L 2.96875 -3.953125 C 3.15625 -3.953125 3.265625 -3.953125 3.265625 -4.140625 C 3.265625 -4.25 3.15625 -4.25 2.984375 -4.25 L 2.109375 -4.25 C 2.46875 -5.65625 2.515625 -5.859375 2.515625 -5.921875 C 2.515625 -6.078125 2.40625 -6.1875 2.234375 -6.1875 C 2.203125 -6.1875 1.921875 -6.171875 1.84375 -5.828125 L 1.453125 -4.25 L 0.515625 -4.25 C 0.328125 -4.25 0.234375 -4.25 0.234375 -4.0625 C 0.234375 -3.953125 0.3125 -3.953125 0.5 -3.953125 L 1.375 -3.953125 C 0.65625 -1.140625 0.625 -0.984375 0.625 -0.796875 C 0.625 -0.265625 1 0.109375 1.53125 0.109375 C 2.53125 0.109375 3.09375 -1.328125 3.09375 -1.40625 C 3.09375 -1.515625 3.015625 -1.515625 2.984375 -1.515625 C 2.890625 -1.515625 2.890625 -1.484375 2.828125 -1.375 C 2.40625 -0.34375 1.890625 -0.109375 1.546875 -0.109375 C 1.34375 -0.109375 1.25 -0.234375 1.25 -0.5625 C 1.25 -0.796875 1.265625 -0.875 1.296875 -1.03125 Z M 2.03125 -3.953125 "/>
</g>
<g id="glyph-0-1">
<path d="M 6.375 -6.859375 C 6.375 -6.890625 6.34375 -6.96875 6.265625 -6.96875 C 6.21875 -6.96875 6.203125 -6.953125 6.078125 -6.8125 L 5.609375 -6.25 C 5.359375 -6.71875 4.84375 -6.96875 4.203125 -6.96875 C 2.9375 -6.96875 1.75 -5.828125 1.75 -4.625 C 1.75 -3.828125 2.28125 -3.375 2.78125 -3.234375 L 3.84375 -2.953125 C 4.203125 -2.859375 4.75 -2.71875 4.75 -1.90625 C 4.75 -1.015625 3.9375 -0.09375 2.96875 -0.09375 C 2.34375 -0.09375 1.25 -0.3125 1.25 -1.53125 C 1.25 -1.765625 1.296875 -2 1.296875 -2.0625 C 1.3125 -2.109375 1.328125 -2.109375 1.328125 -2.140625 C 1.328125 -2.234375 1.25 -2.234375 1.203125 -2.234375 C 1.15625 -2.234375 1.140625 -2.234375 1.109375 -2.203125 C 1.0625 -2.15625 0.515625 0.09375 0.515625 0.125 C 0.515625 0.171875 0.5625 0.21875 0.625 0.21875 C 0.671875 0.21875 0.6875 0.203125 0.796875 0.0625 L 1.28125 -0.5 C 1.703125 0.078125 2.375 0.21875 2.953125 0.21875 C 4.296875 0.21875 5.453125 -1.09375 5.453125 -2.328125 C 5.453125 -3 5.125 -3.34375 4.984375 -3.46875 C 4.75 -3.703125 4.609375 -3.75 3.71875 -3.96875 C 3.5 -4.03125 3.15625 -4.125 3.0625 -4.140625 C 2.796875 -4.234375 2.453125 -4.515625 2.453125 -5.046875 C 2.453125 -5.84375 3.25 -6.6875 4.1875 -6.6875 C 5 -6.6875 5.609375 -6.265625 5.609375 -5.15625 C 5.609375 -4.84375 5.5625 -4.65625 5.5625 -4.609375 C 5.5625 -4.59375 5.5625 -4.5 5.6875 -4.5 C 5.78125 -4.5 5.796875 -4.53125 5.84375 -4.703125 Z M 6.375 -6.859375 "/>
</g>
<g id="glyph-0-2">
<path d="M 3.703125 -6.0625 C 3.765625 -6.296875 3.796875 -6.40625 3.984375 -6.421875 C 4.0625 -6.4375 4.390625 -6.4375 4.578125 -6.4375 C 5.28125 -6.4375 6.375 -6.4375 6.375 -5.453125 C 6.375 -5.125 6.21875 -4.4375 5.84375 -4.0625 C 5.578125 -3.796875 5.0625 -3.484375 4.171875 -3.484375 L 3.0625 -3.484375 Z M 5.125 -3.359375 C 6.125 -3.578125 7.296875 -4.265625 7.296875 -5.265625 C 7.296875 -6.109375 6.40625 -6.75 5.109375 -6.75 L 2.296875 -6.75 C 2.109375 -6.75 2.015625 -6.75 2.015625 -6.546875 C 2.015625 -6.4375 2.109375 -6.4375 2.296875 -6.4375 C 2.3125 -6.4375 2.5 -6.4375 2.671875 -6.421875 C 2.84375 -6.40625 2.9375 -6.390625 2.9375 -6.265625 C 2.9375 -6.21875 2.921875 -6.1875 2.890625 -6.078125 L 1.5625 -0.765625 C 1.46875 -0.390625 1.453125 -0.3125 0.671875 -0.3125 C 0.5 -0.3125 0.40625 -0.3125 0.40625 -0.109375 C 0.40625 0 0.515625 0 0.546875 0 C 0.8125 0 1.515625 -0.03125 1.78125 -0.03125 C 2.0625 -0.03125 2.765625 0 3.046875 0 C 3.125 0 3.234375 0 3.234375 -0.203125 C 3.234375 -0.3125 3.15625 -0.3125 2.96875 -0.3125 C 2.59375 -0.3125 2.328125 -0.3125 2.328125 -0.484375 C 2.328125 -0.546875 2.34375 -0.59375 2.34375 -0.65625 L 3 -3.265625 L 4.171875 -3.265625 C 5.078125 -3.265625 5.25 -2.71875 5.25 -2.375 C 5.25 -2.21875 5.171875 -1.921875 5.109375 -1.6875 C 5.046875 -1.40625 4.953125 -1.046875 4.953125 -0.84375 C 4.953125 0.21875 6.140625 0.21875 6.265625 0.21875 C 7.109375 0.21875 7.453125 -0.78125 7.453125 -0.921875 C 7.453125 -1.03125 7.34375 -1.03125 7.34375 -1.03125 C 7.25 -1.03125 7.234375 -0.96875 7.203125 -0.90625 C 6.96875 -0.171875 6.53125 0 6.3125 0 C 5.984375 0 5.921875 -0.21875 5.921875 -0.609375 C 5.921875 -0.90625 5.96875 -1.40625 6.015625 -1.734375 C 6.03125 -1.859375 6.046875 -2.046875 6.046875 -2.1875 C 6.046875 -2.953125 5.390625 -3.265625 5.125 -3.359375 Z M 5.125 -3.359375 "/>
</g>
<g id="glyph-0-3">
<path d="M 4.328125 -0.0625 C 5.859375 -0.640625 7.3125 -2.40625 7.3125 -4.3125 C 7.3125 -5.890625 6.265625 -6.96875 4.796875 -6.96875 C 2.65625 -6.96875 0.484375 -4.71875 0.484375 -2.421875 C 0.484375 -0.78125 1.59375 0.21875 3.015625 0.21875 C 3.265625 0.21875 3.59375 0.171875 3.984375 0.0625 C 3.9375 0.6875 3.9375 0.703125 3.9375 0.828125 C 3.9375 1.140625 3.9375 1.921875 4.765625 1.921875 C 5.9375 1.921875 6.40625 0.109375 6.40625 0 C 6.40625 -0.0625 6.34375 -0.09375 6.296875 -0.09375 C 6.21875 -0.09375 6.203125 -0.046875 6.1875 0.015625 C 5.9375 0.71875 5.375 0.953125 5.03125 0.953125 C 4.578125 0.953125 4.421875 0.6875 4.328125 -0.0625 Z M 2.453125 -0.140625 C 1.6875 -0.4375 1.359375 -1.21875 1.359375 -2.109375 C 1.359375 -2.78125 1.609375 -4.1875 2.359375 -5.25 C 3.078125 -6.265625 4.015625 -6.71875 4.734375 -6.71875 C 5.71875 -6.71875 6.4375 -5.9375 6.4375 -4.625 C 6.4375 -3.640625 5.9375 -1.328125 4.28125 -0.390625 C 4.21875 -0.734375 4.125 -1.46875 3.40625 -1.46875 C 2.890625 -1.46875 2.40625 -0.96875 2.40625 -0.453125 C 2.40625 -0.25 2.453125 -0.140625 2.453125 -0.140625 Z M 3.078125 -0.03125 C 2.9375 -0.03125 2.609375 -0.03125 2.609375 -0.453125 C 2.609375 -0.84375 2.984375 -1.25 3.40625 -1.25 C 3.828125 -1.25 4.015625 -1 4.015625 -0.40625 C 4.015625 -0.25 4 -0.25 3.90625 -0.203125 C 3.640625 -0.09375 3.34375 -0.03125 3.078125 -0.03125 Z M 3.078125 -0.03125 "/>
</g>
<g id="glyph-0-4">
<path d="M 5.890625 -5.625 L 6.03125 -5.75 C 6.328125 -6.046875 6.65625 -6.390625 7.328125 -6.4375 C 7.4375 -6.453125 7.53125 -6.453125 7.53125 -6.625 C 7.53125 -6.703125 7.46875 -6.75 7.390625 -6.75 C 7.140625 -6.75 6.859375 -6.71875 6.59375 -6.71875 C 6.265625 -6.71875 5.921875 -6.75 5.59375 -6.75 C 5.546875 -6.75 5.40625 -6.75 5.40625 -6.5625 C 5.40625 -6.453125 5.515625 -6.4375 5.5625 -6.4375 C 5.625 -6.4375 5.921875 -6.421875 5.921875 -6.21875 C 5.921875 -6.046875 5.6875 -5.78125 5.65625 -5.734375 L 3.359375 -3.09375 L 2.265625 -6.03125 C 2.21875 -6.171875 2.21875 -6.1875 2.21875 -6.203125 C 2.21875 -6.4375 2.703125 -6.4375 2.796875 -6.4375 C 2.9375 -6.4375 3.03125 -6.4375 3.03125 -6.640625 C 3.03125 -6.75 2.90625 -6.75 2.890625 -6.75 C 2.609375 -6.75 1.921875 -6.71875 1.640625 -6.71875 C 1.390625 -6.71875 0.78125 -6.75 0.53125 -6.75 C 0.46875 -6.75 0.34375 -6.75 0.34375 -6.546875 C 0.34375 -6.4375 0.4375 -6.4375 0.578125 -6.4375 C 1.171875 -6.4375 1.203125 -6.34375 1.296875 -6.109375 L 2.515625 -2.859375 C 2.515625 -2.828125 2.546875 -2.71875 2.546875 -2.6875 C 2.546875 -2.65625 2.15625 -1.0625 2.109375 -0.890625 C 1.96875 -0.34375 1.96875 -0.3125 1.171875 -0.3125 C 0.984375 -0.3125 0.90625 -0.3125 0.90625 -0.109375 C 0.90625 0 1.03125 0 1.046875 0 C 1.328125 0 2.015625 -0.03125 2.296875 -0.03125 C 2.5625 -0.03125 3.28125 0 3.5625 0 C 3.625 0 3.75 0 3.75 -0.203125 C 3.75 -0.3125 3.65625 -0.3125 3.46875 -0.3125 C 3.453125 -0.3125 3.265625 -0.3125 3.09375 -0.328125 C 2.890625 -0.34375 2.828125 -0.359375 2.828125 -0.484375 C 2.828125 -0.546875 2.90625 -0.90625 2.96875 -1.109375 L 3.3125 -2.5 C 3.359375 -2.6875 3.375 -2.71875 3.453125 -2.796875 Z M 5.890625 -5.625 "/>
</g>
<g id="glyph-1-0">
<path d="M 4.25 -5.515625 L 4.25 -5.828125 L 0.6875 -5.828125 L 0.6875 -5.515625 Z M 4.25 -5.515625 "/>
</g>
<g id="glyph-1-1">
<path d="M 4.546875 -3.15625 C 4.546875 -3.953125 4.5 -4.734375 4.140625 -5.46875 C 3.6875 -6.421875 2.890625 -6.578125 2.46875 -6.578125 C 1.875 -6.578125 1.15625 -6.3125 0.75 -5.40625 C 0.4375 -4.71875 0.390625 -3.953125 0.390625 -3.15625 C 0.390625 -2.421875 0.421875 -1.53125 0.828125 -0.78125 C 1.25 0.015625 1.96875 0.21875 2.453125 0.21875 C 2.984375 0.21875 3.75 0.015625 4.171875 -0.921875 C 4.5 -1.609375 4.546875 -2.375 4.546875 -3.15625 Z M 2.453125 0 C 2.078125 0 1.484375 -0.25 1.3125 -1.1875 C 1.203125 -1.78125 1.203125 -2.703125 1.203125 -3.28125 C 1.203125 -3.90625 1.203125 -4.5625 1.28125 -5.09375 C 1.46875 -6.265625 2.21875 -6.359375 2.453125 -6.359375 C 2.78125 -6.359375 3.4375 -6.1875 3.625 -5.203125 C 3.71875 -4.65625 3.71875 -3.90625 3.71875 -3.28125 C 3.71875 -2.53125 3.71875 -1.859375 3.609375 -1.234375 C 3.46875 -0.296875 2.90625 0 2.453125 0 Z M 2.453125 0 "/>
</g>
<g id="glyph-1-2">
<path d="M 3.96875 -3.8125 L 5.328125 -5.796875 C 5.546875 -6.109375 5.875 -6.421875 6.75 -6.4375 L 6.75 -6.75 C 6.375 -6.734375 5.90625 -6.71875 5.65625 -6.71875 C 5.265625 -6.71875 4.796875 -6.71875 4.390625 -6.75 L 4.390625 -6.4375 C 4.796875 -6.421875 5 -6.21875 5 -5.984375 C 5 -5.890625 4.984375 -5.859375 4.921875 -5.75 L 3.796875 -4.09375 L 2.515625 -6 C 2.5 -6.03125 2.453125 -6.109375 2.453125 -6.140625 C 2.453125 -6.265625 2.671875 -6.421875 3.09375 -6.4375 L 3.09375 -6.75 C 2.75 -6.71875 2.03125 -6.71875 1.65625 -6.71875 C 1.34375 -6.71875 0.734375 -6.71875 0.359375 -6.75 L 0.359375 -6.4375 L 0.546875 -6.4375 C 1.09375 -6.4375 1.28125 -6.375 1.46875 -6.09375 L 3.28125 -3.34375 L 1.671875 -0.953125 C 1.53125 -0.765625 1.234375 -0.3125 0.234375 -0.3125 L 0.234375 0 C 0.59375 -0.015625 1 -0.03125 1.328125 -0.03125 C 1.703125 -0.03125 2.234375 -0.03125 2.59375 0 L 2.59375 -0.3125 C 2.140625 -0.3125 1.96875 -0.578125 1.96875 -0.765625 C 1.96875 -0.84375 2 -0.890625 2.078125 -1 L 3.46875 -3.078125 L 5.03125 -0.71875 C 5.0625 -0.671875 5.078125 -0.625 5.078125 -0.609375 C 5.078125 -0.484375 4.875 -0.3125 4.4375 -0.3125 L 4.4375 0 C 4.796875 -0.03125 5.515625 -0.03125 5.890625 -0.03125 C 6.296875 -0.03125 6.75 -0.015625 7.171875 0 L 7.171875 -0.3125 L 6.984375 -0.3125 C 6.46875 -0.3125 6.265625 -0.359375 6.046875 -0.65625 Z M 3.96875 -3.8125 "/>
</g>
<g id="glyph-1-3">
<path d="M 2.90625 -6.3125 C 2.90625 -6.5625 2.90625 -6.578125 2.671875 -6.578125 C 2.0625 -5.9375 1.1875 -5.9375 0.875 -5.9375 L 0.875 -5.640625 C 1.078125 -5.640625 1.65625 -5.640625 2.171875 -5.890625 L 2.171875 -0.78125 C 2.171875 -0.421875 2.140625 -0.3125 1.25 -0.3125 L 0.9375 -0.3125 L 0.9375 0 C 1.28125 -0.03125 2.140625 -0.03125 2.53125 -0.03125 C 2.9375 -0.03125 3.796875 -0.03125 4.140625 0 L 4.140625 -0.3125 L 3.828125 -0.3125 C 2.9375 -0.3125 2.90625 -0.421875 2.90625 -0.78125 Z M 2.90625 -6.3125 "/>
</g>
<g id="glyph-2-0">
<path d="M 4.96875 -6.890625 C 5.03125 -7.046875 5.03125 -7.0625 5.03125 -7.09375 C 5.03125 -7.28125 4.875 -7.40625 4.734375 -7.40625 C 4.53125 -7.40625 4.46875 -7.265625 4.421875 -7.109375 L 0.703125 1.953125 C 0.625 2.109375 0.625 2.125 0.625 2.15625 C 0.625 2.34375 0.796875 2.46875 0.921875 2.46875 C 1.140625 2.46875 1.203125 2.296875 1.25 2.1875 Z M 4.96875 -6.890625 "/>
</g>
</g>
</defs>
<path fill="none" stroke-width="0.398" stroke-linecap="butt" stroke-linejoin="miter" stroke="rgb(0%, 0%, 0%)" stroke-opacity="1" stroke-miterlimit="10" d="M -0.00134773 0.00103623 L 96.661137 0.00103623 " transform="matrix(0.991287, 0, 0, -0.991287, 2.239617, 2.172902)"/>
<path fill="none" stroke-width="0.398" stroke-linecap="butt" stroke-linejoin="miter" stroke="rgb(0%, 0%, 0%)" stroke-opacity="1" stroke-miterlimit="10" d="M 0.000621969 -0.00066024 L 0.000621969 11.955067 " transform="matrix(0.991287, 0, 0, -0.991287, 2.436883, 14.222002)"/>
<g fill="rgb(0%, 0%, 0%)" fill-opacity="1">
<use xlink:href="#glyph-0-0" x="9.245046" y="10.666253"/>
</g>
<g fill="rgb(0%, 0%, 0%)" fill-opacity="1">
<use xlink:href="#glyph-0-1" x="25.738621" y="10.666253"/>
</g>
<g fill="rgb(0%, 0%, 0%)" fill-opacity="1">
<use xlink:href="#glyph-0-2" x="44.603376" y="10.666253"/>
</g>
<g fill="rgb(0%, 0%, 0%)" fill-opacity="1">
<use xlink:href="#glyph-0-3" x="64.091294" y="10.666253"/>
</g>
<g fill="rgb(0%, 0%, 0%)" fill-opacity="1">
<use xlink:href="#glyph-1-0" x="86.129305" y="8.170192"/>
</g>
<g fill="rgb(0%, 0%, 0%)" fill-opacity="1">
<use xlink:href="#glyph-0-3" x="83.872143" y="10.666253"/>
</g>
<path fill="none" stroke-width="0.398" stroke-linecap="butt" stroke-linejoin="miter" stroke="rgb(0%, 0%, 0%)" stroke-opacity="1" stroke-miterlimit="10" d="M 0.00010755 -0.00066024 L 0.00010755 11.955067 " transform="matrix(0.991287, 0, 0, -0.991287, 97.863175, 14.222002)"/>
<path fill-rule="nonzero" fill="rgb(0%, 0%, 0%)" fill-opacity="1" d="M 2.238281 15.40625 L 98.058594 15.40625 L 98.058594 14.222656 L 2.238281 14.222656 Z M 2.238281 15.40625 "/>
<path fill="none" stroke-width="0.398" stroke-linecap="butt" stroke-linejoin="miter" stroke="rgb(0%, 0%, 0%)" stroke-opacity="1" stroke-miterlimit="10" d="M 0.000621969 -0.000383453 L 0.000621969 11.955343 " transform="matrix(0.991287, 0, 0, -0.991287, 2.436883, 27.257432)"/>
<g fill="rgb(0%, 0%, 0%)" fill-opacity="1">
<use xlink:href="#glyph-1-1" x="8.560066" y="23.702675"/>
</g>
<g fill="rgb(0%, 0%, 0%)" fill-opacity="1">
<use xlink:href="#glyph-1-2" x="25.348928" y="23.702675"/>
</g>
<g fill="rgb(0%, 0%, 0%)" fill-opacity="1">
<use xlink:href="#glyph-1-2" x="44.685746" y="23.702675"/>
</g>
<g fill="rgb(0%, 0%, 0%)" fill-opacity="1">
<use xlink:href="#glyph-0-4" x="64.032515" y="23.702675"/>
</g>
<g fill="rgb(0%, 0%, 0%)" fill-opacity="1">
<use xlink:href="#glyph-1-0" x="85.306536" y="21.205622"/>
</g>
<g fill="rgb(0%, 0%, 0%)" fill-opacity="1">
<use xlink:href="#glyph-0-4" x="83.811674" y="23.702675"/>
</g>
<path fill="none" stroke-width="0.398" stroke-linecap="butt" stroke-linejoin="miter" stroke="rgb(0%, 0%, 0%)" stroke-opacity="1" stroke-miterlimit="10" d="M 0.00010755 -0.000383453 L 0.00010755 11.955343 " transform="matrix(0.991287, 0, 0, -0.991287, 97.863175, 27.257432)"/>
<path fill="none" stroke-width="0.398" stroke-linecap="butt" stroke-linejoin="miter" stroke="rgb(0%, 0%, 0%)" stroke-opacity="1" stroke-miterlimit="10" d="M -0.00134773 -0.00135315 L 96.661137 -0.00135315 " transform="matrix(0.991287, 0, 0, -0.991287, 2.239617, 27.45569)"/>
<path fill="none" stroke-width="0.398" stroke-linecap="butt" stroke-linejoin="miter" stroke="rgb(0%, 0%, 0%)" stroke-opacity="1" stroke-miterlimit="10" d="M 0.000621969 -0.000109037 L 0.000621969 11.955618 " transform="matrix(0.991287, 0, 0, -0.991287, 2.436883, 39.503798)"/>
<g fill="rgb(0%, 0%, 0%)" fill-opacity="1">
<use xlink:href="#glyph-1-3" x="8.560066" y="35.94805"/>
</g>
<g fill="rgb(0%, 0%, 0%)" fill-opacity="1">
<use xlink:href="#glyph-1-1" x="26.583403" y="35.94805"/>
</g>
<g fill="rgb(0%, 0%, 0%)" fill-opacity="1">
<use xlink:href="#glyph-1-1" x="45.920221" y="35.94805"/>
</g>
<g fill="rgb(0%, 0%, 0%)" fill-opacity="1">
<use xlink:href="#glyph-0-4" x="64.032515" y="35.94805"/>
</g>
<g fill="rgb(0%, 0%, 0%)" fill-opacity="1">
<use xlink:href="#glyph-1-0" x="85.306536" y="33.451988"/>
</g>
<g fill="rgb(0%, 0%, 0%)" fill-opacity="1">
<use xlink:href="#glyph-0-4" x="83.811674" y="35.94805"/>
</g>
<path fill="none" stroke-width="0.398" stroke-linecap="butt" stroke-linejoin="miter" stroke="rgb(0%, 0%, 0%)" stroke-opacity="1" stroke-miterlimit="10" d="M 0.00010755 -0.000109037 L 0.00010755 11.955618 " transform="matrix(0.991287, 0, 0, -0.991287, 97.863175, 39.503798)"/>
<path fill="none" stroke-width="0.398" stroke-linecap="butt" stroke-linejoin="miter" stroke="rgb(0%, 0%, 0%)" stroke-opacity="1" stroke-miterlimit="10" d="M -0.00134773 0.00186185 L 96.661137 0.00186185 " transform="matrix(0.991287, 0, 0, -0.991287, 2.239617, 39.701064)"/>
<path fill="none" stroke-width="0.398" stroke-linecap="butt" stroke-linejoin="miter" stroke="rgb(0%, 0%, 0%)" stroke-opacity="1" stroke-miterlimit="10" d="M 0.000621969 0.000165378 L 0.000621969 11.955892 " transform="matrix(0.991287, 0, 0, -0.991287, 2.436883, 51.750164)"/>
<g fill="rgb(0%, 0%, 0%)" fill-opacity="1">
<use xlink:href="#glyph-1-3" x="8.560066" y="48.194416"/>
</g>
<g fill="rgb(0%, 0%, 0%)" fill-opacity="1">
<use xlink:href="#glyph-1-3" x="26.583403" y="48.194416"/>
</g>
<g fill="rgb(0%, 0%, 0%)" fill-opacity="1">
<use xlink:href="#glyph-1-1" x="45.920221" y="48.194416"/>
</g>
<g fill="rgb(0%, 0%, 0%)" fill-opacity="1">
<use xlink:href="#glyph-1-3" x="65.523686" y="48.194416"/>
</g>
<g fill="rgb(0%, 0%, 0%)" fill-opacity="1">
<use xlink:href="#glyph-1-1" x="85.304915" y="48.194416"/>
</g>
<path fill="none" stroke-width="0.398" stroke-linecap="butt" stroke-linejoin="miter" stroke="rgb(0%, 0%, 0%)" stroke-opacity="1" stroke-miterlimit="10" d="M 0.00010755 0.000165378 L 0.00010755 11.955892 " transform="matrix(0.991287, 0, 0, -0.991287, 97.863175, 51.750164)"/>
<path fill="none" stroke-width="0.398" stroke-linecap="butt" stroke-linejoin="miter" stroke="rgb(0%, 0%, 0%)" stroke-opacity="1" stroke-miterlimit="10" d="M -0.00134773 -0.00180432 L 96.661137 -0.00180432 " transform="matrix(0.991287, 0, 0, -0.991287, 2.239617, 51.94743)"/>
<path fill="none" stroke-width="0.398" stroke-linecap="butt" stroke-linejoin="miter" stroke="rgb(0%, 0%, 0%)" stroke-opacity="1" stroke-miterlimit="10" d="M 0.000621969 -0.000560206 L 0.000621969 11.955167 " transform="matrix(0.991287, 0, 0, -0.991287, 2.436883, 63.995538)"/>
<g fill="rgb(0%, 0%, 0%)" fill-opacity="1">
<use xlink:href="#glyph-1-3" x="8.560066" y="60.440781"/>
</g>
<g fill="rgb(0%, 0%, 0%)" fill-opacity="1">
<use xlink:href="#glyph-1-1" x="26.583403" y="60.440781"/>
</g>
<g fill="rgb(0%, 0%, 0%)" fill-opacity="1">
<use xlink:href="#glyph-1-3" x="45.920221" y="60.440781"/>
</g>
<g fill="rgb(0%, 0%, 0%)" fill-opacity="1">
<use xlink:href="#glyph-1-1" x="65.523686" y="60.440781"/>
</g>
<g fill="rgb(0%, 0%, 0%)" fill-opacity="1">
<use xlink:href="#glyph-1-3" x="85.304915" y="60.440781"/>
</g>
<path fill="none" stroke-width="0.398" stroke-linecap="butt" stroke-linejoin="miter" stroke="rgb(0%, 0%, 0%)" stroke-opacity="1" stroke-miterlimit="10" d="M 0.00010755 -0.000560206 L 0.00010755 11.955167 " transform="matrix(0.991287, 0, 0, -0.991287, 97.863175, 63.995538)"/>
<path fill="none" stroke-width="0.398" stroke-linecap="butt" stroke-linejoin="miter" stroke="rgb(0%, 0%, 0%)" stroke-opacity="1" stroke-miterlimit="10" d="M -0.00134773 -0.0015299 L 96.661137 -0.0015299 " transform="matrix(0.991287, 0, 0, -0.991287, 2.239617, 64.193796)"/>
<path fill="none" stroke-width="0.398" stroke-linecap="butt" stroke-linejoin="miter" stroke="rgb(0%, 0%, 0%)" stroke-opacity="1" stroke-miterlimit="10" d="M 0.000621969 -0.00028579 L 0.000621969 11.955441 " transform="matrix(0.991287, 0, 0, -0.991287, 2.436883, 76.241904)"/>
<g fill="rgb(0%, 0%, 0%)" fill-opacity="1">
<use xlink:href="#glyph-1-3" x="8.560066" y="72.686156"/>
</g>
<g fill="rgb(0%, 0%, 0%)" fill-opacity="1">
<use xlink:href="#glyph-1-3" x="26.583403" y="72.686156"/>
</g>
<g fill="rgb(0%, 0%, 0%)" fill-opacity="1">
<use xlink:href="#glyph-1-3" x="45.920221" y="72.686156"/>
</g>
<g fill="rgb(100%, 0%, 0%)" fill-opacity="1">
<use xlink:href="#glyph-2-0" x="75.04671" y="72.686156"/>
</g>
<path fill="none" stroke-width="0.398" stroke-linecap="butt" stroke-linejoin="miter" stroke="rgb(0%, 0%, 0%)" stroke-opacity="1" stroke-miterlimit="10" d="M 0.00010755 -0.00028579 L 0.00010755 11.955441 " transform="matrix(0.991287, 0, 0, -0.991287, 97.863175, 76.241904)"/>
<path fill="none" stroke-width="0.398" stroke-linecap="butt" stroke-linejoin="miter" stroke="rgb(0%, 0%, 0%)" stroke-opacity="1" stroke-miterlimit="10" d="M -0.00134773 0.00168509 L 96.661137 0.00168509 " transform="matrix(0.991287, 0, 0, -0.991287, 2.239617, 76.43917)"/>
</svg>
