<?xml version="1.0" encoding="UTF-8"?>
<svg xmlns="http://www.w3.org/2000/svg" xmlns:xlink="http://www.w3.org/1999/xlink" width="280.805" height="109.132" viewBox="0 0 280.805 109.132">
<defs>
<g>
<g id="glyph-0-0">
<path d="M 4.90625 -5.421875 C 4.984375 -5.71875 5 -5.796875 5.5 -5.796875 C 5.59375 -5.796875 5.71875 -5.796875 5.71875 -5.953125 C 5.71875 -5.96875 5.71875 -6.078125 5.578125 -6.078125 C 5.515625 -6.078125 5.15625 -6.046875 5.109375 -6.046875 C 5.046875 -6.046875 4.75 -6.046875 4.578125 -6.046875 C 4.359375 -6.046875 4.140625 -6.046875 3.921875 -6.046875 C 3.703125 -6.046875 3.5 -6.078125 3.296875 -6.078125 C 3.21875 -6.078125 3.109375 -6.078125 3.109375 -5.90625 C 3.109375 -5.796875 3.1875 -5.796875 3.40625 -5.796875 C 3.453125 -5.796875 3.6875 -5.796875 3.90625 -5.765625 C 4.125 -5.75 4.1875 -5.734375 4.1875 -5.59375 C 4.1875 -5.53125 4.171875 -5.484375 4.15625 -5.4375 L 3.125 -1.3125 C 2.921875 -0.5 2.3125 -0.03125 1.84375 -0.03125 C 1.5625 -0.03125 1.125 -0.15625 0.984375 -0.546875 C 1 -0.546875 1.015625 -0.546875 1.078125 -0.546875 C 1.4375 -0.546875 1.65625 -0.859375 1.65625 -1.109375 C 1.65625 -1.34375 1.484375 -1.484375 1.265625 -1.484375 C 1.0625 -1.484375 0.671875 -1.34375 0.671875 -0.78125 C 0.671875 -0.203125 1.171875 0.203125 1.859375 0.203125 C 2.71875 0.203125 3.640625 -0.390625 3.875 -1.265625 Z M 4.90625 -5.421875 "/>
</g>
<g id="glyph-1-0">
<path d="M 2.40625 -2.484375 C 2.40625 -2.578125 2.40625 -2.640625 2.3125 -2.640625 C 2.28125 -2.640625 2.265625 -2.640625 2.171875 -2.578125 C 2.171875 -2.5625 2.15625 -2.5625 2.078125 -2.484375 C 1.84375 -2.640625 1.546875 -2.640625 1.421875 -2.640625 C 0.5 -2.640625 0.3125 -2.171875 0.3125 -1.90625 C 0.3125 -1.328125 1.015625 -1.21875 1.46875 -1.140625 C 1.734375 -1.109375 2.25 -1.015625 2.25 -0.625 C 2.25 -0.390625 2.078125 -0.125 1.46875 -0.125 C 0.890625 -0.125 0.65625 -0.46875 0.546875 -0.90625 C 0.515625 -0.96875 0.515625 -1 0.421875 -1 C 0.3125 -1 0.3125 -0.9375 0.3125 -0.828125 L 0.3125 -0.109375 C 0.3125 0 0.3125 0.0625 0.40625 0.0625 C 0.453125 0.0625 0.453125 0.046875 0.5625 -0.046875 L 0.703125 -0.203125 C 0.984375 0.0625 1.34375 0.0625 1.46875 0.0625 C 2.34375 0.0625 2.578125 -0.421875 2.578125 -0.765625 C 2.578125 -1 2.453125 -1.1875 2.328125 -1.296875 C 2.078125 -1.515625 1.84375 -1.5625 1.484375 -1.609375 C 1.046875 -1.6875 0.640625 -1.75 0.640625 -2.0625 C 0.640625 -2.234375 0.796875 -2.46875 1.421875 -2.46875 C 1.828125 -2.46875 2.15625 -2.328125 2.1875 -1.90625 C 2.1875 -1.828125 2.203125 -1.78125 2.296875 -1.78125 C 2.40625 -1.78125 2.40625 -1.828125 2.40625 -1.9375 Z M 2.40625 -2.484375 "/>
</g>
<g id="glyph-1-1">
<path d="M 2.4375 -2.390625 C 2.375 -2.359375 2.3125 -2.28125 2.3125 -2.15625 C 2.3125 -2 2.421875 -1.859375 2.59375 -1.859375 C 2.78125 -1.859375 2.890625 -2 2.890625 -2.15625 C 2.890625 -2.625 2.25 -2.640625 1.875 -2.640625 C 0.78125 -2.640625 0.328125 -1.859375 0.328125 -1.28125 C 0.328125 -0.546875 0.984375 0.0625 1.8125 0.0625 C 2.75 0.0625 2.96875 -0.640625 2.96875 -0.71875 C 2.96875 -0.796875 2.875 -0.796875 2.84375 -0.796875 C 2.765625 -0.796875 2.765625 -0.765625 2.734375 -0.703125 C 2.703125 -0.625 2.640625 -0.453125 2.4375 -0.3125 C 2.296875 -0.21875 2.109375 -0.15625 1.875 -0.15625 C 1.421875 -0.15625 0.890625 -0.46875 0.890625 -1.28125 C 0.890625 -1.546875 0.9375 -1.875 1.140625 -2.125 C 1.40625 -2.4375 1.734375 -2.4375 1.90625 -2.4375 C 2.078125 -2.4375 2.28125 -2.4375 2.4375 -2.390625 Z M 2.4375 -2.390625 "/>
</g>
<g id="glyph-1-2">
<path d="M 1.28125 -1.328125 C 1.28125 -1.875 1.5625 -2.421875 2.09375 -2.421875 C 2.046875 -2.375 2.015625 -2.296875 2.015625 -2.234375 C 2.015625 -2.0625 2.140625 -1.953125 2.296875 -1.953125 C 2.453125 -1.953125 2.578125 -2.0625 2.578125 -2.234375 C 2.578125 -2.46875 2.34375 -2.625 2.09375 -2.625 C 1.734375 -2.625 1.4375 -2.40625 1.25 -2 L 1.234375 -2 L 1.234375 -2.625 L 0.34375 -2.546875 L 0.34375 -2.328125 C 0.765625 -2.328125 0.8125 -2.28125 0.8125 -1.984375 L 0.8125 -0.484375 C 0.8125 -0.234375 0.75 -0.234375 0.34375 -0.234375 L 0.34375 0 C 0.5 -0.015625 0.9375 -0.03125 1.0625 -0.03125 C 1.375 -0.03125 1.78125 0 1.859375 0 L 1.859375 -0.234375 L 1.734375 -0.234375 C 1.28125 -0.234375 1.28125 -0.296875 1.28125 -0.5 Z M 1.28125 -1.328125 "/>
</g>
<g id="glyph-1-3">
<path d="M 2.78125 -1.34375 C 2.921875 -1.34375 2.96875 -1.34375 2.96875 -1.484375 C 2.96875 -1.9375 2.703125 -2.640625 1.71875 -2.640625 C 0.890625 -2.640625 0.28125 -2.015625 0.28125 -1.296875 C 0.28125 -0.546875 0.96875 0.0625 1.8125 0.0625 C 2.65625 0.0625 2.96875 -0.578125 2.96875 -0.71875 C 2.96875 -0.75 2.953125 -0.8125 2.84375 -0.8125 C 2.765625 -0.8125 2.765625 -0.765625 2.734375 -0.703125 C 2.5625 -0.265625 2.109375 -0.15625 1.84375 -0.15625 C 1.515625 -0.15625 1.234375 -0.296875 1.0625 -0.515625 C 0.84375 -0.796875 0.84375 -1.1875 0.84375 -1.34375 Z M 0.859375 -1.515625 C 0.921875 -2.3125 1.46875 -2.453125 1.71875 -2.453125 C 2.484375 -2.453125 2.53125 -1.6875 2.53125 -1.515625 Z M 0.859375 -1.515625 "/>
</g>
<g id="glyph-1-4">
<path d="M 3.25 -1.796875 C 3.25 -2.375 2.921875 -2.625 2.3125 -2.625 C 1.796875 -2.625 1.46875 -2.34375 1.296875 -2.0625 L 1.296875 -2.625 L 0.375 -2.546875 L 0.375 -2.328125 C 0.796875 -2.328125 0.84375 -2.28125 0.84375 -1.984375 L 0.84375 -0.484375 C 0.84375 -0.234375 0.78125 -0.234375 0.375 -0.234375 L 0.375 0 C 0.421875 0 0.8125 -0.03125 1.09375 -0.03125 C 1.359375 -0.03125 1.75 0 1.8125 0 L 1.8125 -0.234375 C 1.390625 -0.234375 1.34375 -0.234375 1.34375 -0.484375 L 1.34375 -1.53125 C 1.34375 -2.1875 1.890625 -2.421875 2.265625 -2.421875 C 2.65625 -2.421875 2.75 -2.171875 2.75 -1.8125 L 2.75 -0.484375 C 2.75 -0.234375 2.703125 -0.234375 2.28125 -0.234375 L 2.28125 0 C 2.328125 0 2.734375 -0.03125 3 -0.03125 C 3.265625 -0.03125 3.65625 0 3.71875 0 L 3.71875 -0.234375 C 3.3125 -0.234375 3.25 -0.234375 3.25 -0.484375 Z M 3.25 -1.796875 "/>
</g>
<g id="glyph-2-0">
<path d="M 3.03125 2.109375 C 3.03125 2.078125 3 2.046875 2.953125 1.984375 C 1.8125 0.9375 1.453125 -0.671875 1.453125 -2.21875 C 1.453125 -3.59375 1.71875 -5.265625 2.984375 -6.46875 C 3.015625 -6.5 3.03125 -6.53125 3.03125 -6.5625 C 3.03125 -6.625 2.984375 -6.671875 2.921875 -6.671875 C 2.8125 -6.671875 2.015625 -6.03125 1.53125 -5.0625 C 1.109375 -4.203125 0.890625 -3.296875 0.890625 -2.234375 C 0.890625 -1.59375 0.984375 -0.578125 1.46875 0.46875 C 1.984375 1.5625 2.8125 2.21875 2.921875 2.21875 C 2.984375 2.21875 3.03125 2.171875 3.03125 2.109375 Z M 3.03125 2.109375 "/>
</g>
<g id="glyph-2-1">
<path d="M 2.703125 -5.6875 C 2.703125 -5.90625 2.6875 -5.921875 2.46875 -5.921875 C 1.921875 -5.359375 1.109375 -5.359375 0.828125 -5.359375 L 0.828125 -5.078125 C 1 -5.078125 1.53125 -5.078125 2.015625 -5.3125 L 2.015625 -0.71875 C 2.015625 -0.375 1.984375 -0.28125 1.171875 -0.28125 L 0.875 -0.28125 L 0.875 0 C 1.203125 -0.03125 1.984375 -0.03125 2.359375 -0.03125 C 2.71875 -0.03125 3.515625 -0.03125 3.84375 0 L 3.84375 -0.28125 L 3.5625 -0.28125 C 2.734375 -0.28125 2.703125 -0.375 2.703125 -0.71875 Z M 2.703125 -5.6875 "/>
</g>
<g id="glyph-2-2">
<path d="M 2.65625 -2.234375 C 2.65625 -2.953125 2.546875 -3.9375 2.078125 -4.921875 C 1.5625 -6.015625 0.734375 -6.671875 0.625 -6.671875 C 0.53125 -6.671875 0.515625 -6.59375 0.515625 -6.5625 C 0.515625 -6.53125 0.53125 -6.5 0.59375 -6.4375 C 1.109375 -5.96875 2.09375 -4.765625 2.09375 -2.234375 C 2.09375 -0.953125 1.859375 0.8125 0.5625 2.015625 C 0.546875 2.03125 0.515625 2.078125 0.515625 2.109375 C 0.515625 2.140625 0.53125 2.21875 0.625 2.21875 C 0.734375 2.21875 1.53125 1.578125 2.015625 0.609375 C 2.4375 -0.25 2.65625 -1.171875 2.65625 -2.234375 Z M 2.65625 -2.234375 "/>
</g>
<g id="glyph-2-3">
<path d="M 4.109375 -1.578125 L 3.859375 -1.578125 C 3.84375 -1.453125 3.765625 -0.9375 3.65625 -0.796875 C 3.59375 -0.71875 2.984375 -0.71875 2.8125 -0.71875 L 1.234375 -0.71875 L 2.109375 -1.546875 C 3.5625 -2.8125 4.109375 -3.28125 4.109375 -4.1875 C 4.109375 -5.203125 3.265625 -5.921875 2.171875 -5.921875 C 1.140625 -5.921875 0.453125 -5.109375 0.453125 -4.296875 C 0.453125 -3.859375 0.828125 -3.8125 0.921875 -3.8125 C 1.109375 -3.8125 1.375 -3.953125 1.375 -4.28125 C 1.375 -4.546875 1.1875 -4.734375 0.921875 -4.734375 C 0.875 -4.734375 0.84375 -4.734375 0.8125 -4.734375 C 1.015625 -5.359375 1.59375 -5.640625 2.078125 -5.640625 C 2.984375 -5.640625 3.296875 -4.796875 3.296875 -4.1875 C 3.296875 -3.28125 2.609375 -2.546875 2.171875 -2.078125 L 0.546875 -0.3125 C 0.453125 -0.21875 0.453125 -0.203125 0.453125 0 L 3.859375 0 Z M 4.109375 -1.578125 "/>
</g>
</g>
<clipPath id="clip-0">
<path clip-rule="nonzero" d="M 1.011719 19 L 93 19 L 93 71 L 1.011719 71 Z M 1.011719 19 "/>
</clipPath>
<clipPath id="clip-1">
<path clip-rule="nonzero" d="M 1.011719 19 L 93 19 L 93 57 L 1.011719 57 Z M 1.011719 19 "/>
</clipPath>
<clipPath id="clip-2">
<path clip-rule="nonzero" d="M 1.011719 33 L 92 33 L 92 71 L 1.011719 71 Z M 1.011719 33 "/>
</clipPath>
<clipPath id="clip-3">
<path clip-rule="nonzero" d="M 207 23 L 279.601562 23 L 279.601562 67 L 207 67 Z M 207 23 "/>
</clipPath>
<clipPath id="clip-4">
<path clip-rule="nonzero" d="M 207 17 L 279.601562 17 L 279.601562 73 L 207 73 Z M 207 17 "/>
</clipPath>
</defs>
<path fill="none" stroke-width="0.79701" stroke-linecap="butt" stroke-linejoin="miter" stroke="rgb(50%, 50%, 50%)" stroke-opacity="1" stroke-miterlimit="10" d="M -123.873934 -40.394928 L -123.873934 40.497291 " transform="matrix(0.992109, 0, 0, -0.992109, 127.615206, 45.119137)"/>
<path fill-rule="nonzero" fill="rgb(50%, 50%, 50%)" fill-opacity="1" d="M 4.71875 2.371094 L 2.660156 6.484375 L 4.71875 4.941406 L 6.773438 6.484375 "/>
<path fill="none" stroke-width="0.79701" stroke-linecap="butt" stroke-linejoin="miter" stroke="rgb(50%, 50%, 50%)" stroke-opacity="1" stroke-miterlimit="10" d="M -113.101429 -40.394928 L -113.101429 40.497291 " transform="matrix(0.992109, 0, 0, -0.992109, 127.615206, 45.119137)"/>
<path fill-rule="nonzero" fill="rgb(50%, 50%, 50%)" fill-opacity="1" d="M 15.40625 2.371094 L 13.347656 6.484375 L 15.40625 4.941406 L 17.460938 6.484375 "/>
<path fill="none" stroke-width="0.79701" stroke-linecap="butt" stroke-linejoin="miter" stroke="rgb(50%, 50%, 50%)" stroke-opacity="1" stroke-miterlimit="10" d="M -102.332861 -40.394928 L -102.332861 40.497291 " transform="matrix(0.992109, 0, 0, -0.992109, 127.615206, 45.119137)"/>
<path fill-rule="nonzero" fill="rgb(50%, 50%, 50%)" fill-opacity="1" d="M 26.089844 2.371094 L 24.035156 6.484375 L 26.089844 4.941406 L 28.148438 6.484375 "/>
<path fill="none" stroke-width="0.79701" stroke-linecap="butt" stroke-linejoin="miter" stroke="rgb(50%, 50%, 50%)" stroke-opacity="1" stroke-miterlimit="10" d="M -70.015347 -40.394928 L -70.015347 40.497291 " transform="matrix(0.992109, 0, 0, -0.992109, 127.615206, 45.119137)"/>
<path fill-rule="nonzero" fill="rgb(50%, 50%, 50%)" fill-opacity="1" d="M 58.152344 2.371094 L 56.09375 6.484375 L 58.152344 4.941406 L 60.207031 6.484375 "/>
<path fill="none" stroke-width="0.79701" stroke-linecap="butt" stroke-linejoin="miter" stroke="rgb(50%, 50%, 50%)" stroke-opacity="1" stroke-miterlimit="10" d="M -59.242842 -40.394928 L -59.242842 40.497291 " transform="matrix(0.992109, 0, 0, -0.992109, 127.615206, 45.119137)"/>
<path fill-rule="nonzero" fill="rgb(50%, 50%, 50%)" fill-opacity="1" d="M 68.839844 2.371094 L 66.78125 6.484375 L 68.839844 4.941406 L 70.894531 6.484375 "/>
<path fill="none" stroke-width="0.79701" stroke-linecap="butt" stroke-linejoin="miter" stroke="rgb(50%, 50%, 50%)" stroke-opacity="1" stroke-miterlimit="10" d="M -48.474275 -40.394928 L -48.474275 40.497291 " transform="matrix(0.992109, 0, 0, -0.992109, 127.615206, 45.119137)"/>
<path fill-rule="nonzero" fill="rgb(50%, 50%, 50%)" fill-opacity="1" d="M 79.523438 2.371094 L 77.46875 6.484375 L 79.523438 4.941406 L 81.582031 6.484375 "/>
<path fill-rule="nonzero" fill="rgb(87.5%, 87.5%, 87.5%)" fill-opacity="1" d="M 80.859375 45.117188 C 80.859375 37.003906 63.515625 30.425781 42.121094 30.425781 C 20.726562 30.425781 3.382812 37.003906 3.382812 45.117188 C 3.382812 53.234375 20.726562 59.8125 42.121094 59.8125 C 63.515625 59.8125 80.859375 53.234375 80.859375 45.117188 Z M 80.859375 45.117188 "/>
<g clip-path="url(#clip-0)">
<path fill="none" stroke-width="0.79701" stroke-linecap="butt" stroke-linejoin="miter" stroke="rgb(0%, 0%, 0%)" stroke-opacity="1" stroke-miterlimit="10" d="M -47.127711 0.00196524 C -47.127711 8.179777 -64.609408 14.810222 -86.174104 14.810222 C -107.738801 14.810222 -125.220497 8.179777 -125.220497 0.00196524 C -125.220497 -8.179784 -107.738801 -14.810229 -86.174104 -14.810229 C -64.609408 -14.810229 -47.127711 -8.179784 -47.127711 0.00196524 Z M -47.127711 0.00196524 " transform="matrix(0.992109, 0, 0, -0.992109, 127.615206, 45.119137)"/>
</g>
<path fill-rule="nonzero" fill="rgb(100%, 100%, 100%)" fill-opacity="1" stroke-width="0.79701" stroke-linecap="butt" stroke-linejoin="miter" stroke="rgb(0%, 0%, 0%)" stroke-opacity="1" stroke-miterlimit="10" d="M -71.36191 0.00196524 C -71.36191 2.974641 -77.992355 5.38428 -86.174104 5.38428 C -94.355853 5.38428 -100.986298 2.974641 -100.986298 0.00196524 C -100.986298 -2.974648 -94.355853 -5.384287 -86.174104 -5.384287 C -77.992355 -5.384287 -71.36191 -2.974648 -71.36191 0.00196524 Z M -71.36191 0.00196524 " transform="matrix(0.992109, 0, 0, -0.992109, 127.615206, 45.119137)"/>
<g clip-path="url(#clip-1)">
<path fill="none" stroke-width="0.79701" stroke-linecap="butt" stroke-linejoin="miter" stroke="rgb(0%, 0%, 100%)" stroke-opacity="1" stroke-miterlimit="10" d="M -47.127711 0.00196524 C -47.127711 8.179777 -64.609408 14.810222 -86.174104 14.810222 C -105.498466 14.810222 -121.543041 9.486967 -124.669272 2.494288 " transform="matrix(0.992109, 0, 0, -0.992109, 127.615206, 45.119137)"/>
</g>
<path fill-rule="nonzero" fill="rgb(0%, 0%, 100%)" fill-opacity="1" d="M 3.382812 45.121094 L 6.671875 41.910156 L 4.222656 42.691406 L 2.789062 40.5625 "/>
<g clip-path="url(#clip-2)">
<path fill="none" stroke-width="0.79701" stroke-linecap="butt" stroke-linejoin="miter" stroke="rgb(0%, 0%, 100%)" stroke-opacity="1" stroke-miterlimit="10" d="M -125.220497 0.00196524 C -125.220497 -8.179784 -107.738801 -14.810229 -86.174104 -14.810229 C -66.849742 -14.810229 -50.80123 -9.486974 -47.678936 -2.494295 " transform="matrix(0.992109, 0, 0, -0.992109, 127.615206, 45.119137)"/>
</g>
<path fill-rule="nonzero" fill="rgb(0%, 0%, 100%)" fill-opacity="1" d="M 80.859375 45.117188 L 77.570312 48.328125 L 80.019531 47.546875 L 81.457031 49.675781 "/>
<g fill="rgb(0%, 0%, 100%)" fill-opacity="1">
<use xlink:href="#glyph-0-0" x="87.025047" y="57.014525"/>
</g>
<g fill="rgb(0%, 0%, 100%)" fill-opacity="1">
<use xlink:href="#glyph-1-0" x="92.061985" y="58.003658"/>
<use xlink:href="#glyph-1-1" x="94.956035" y="58.003658"/>
<use xlink:href="#glyph-1-2" x="98.19583" y="58.003658"/>
<use xlink:href="#glyph-1-3" x="101.051332" y="58.003658"/>
<use xlink:href="#glyph-1-3" x="104.291127" y="58.003658"/>
<use xlink:href="#glyph-1-4" x="107.530922" y="58.003658"/>
</g>
<g fill="rgb(0%, 0%, 0%)" fill-opacity="1">
<use xlink:href="#glyph-2-0" x="36.280651" y="100.775465"/>
<use xlink:href="#glyph-2-1" x="39.836241" y="100.775465"/>
<use xlink:href="#glyph-2-2" x="44.407714" y="100.775465"/>
</g>
<path fill-rule="nonzero" fill="rgb(87.5%, 87.5%, 87.5%)" fill-opacity="1" stroke-width="0.79701" stroke-linecap="butt" stroke-linejoin="miter" stroke="rgb(0%, 0%, 0%)" stroke-opacity="1" stroke-miterlimit="10" d="M 83.481035 0.00196524 C 83.481035 5.947317 70.220145 10.770533 53.860584 10.770533 C 37.497086 10.770533 24.236196 5.947317 24.236196 0.00196524 C 24.236196 -5.947324 37.497086 -10.77054 53.860584 -10.77054 C 70.220145 -10.77054 83.481035 -5.947324 83.481035 0.00196524 Z M 83.481035 0.00196524 " transform="matrix(0.992109, 0, 0, -0.992109, 127.615206, 45.119137)"/>
<path fill-rule="nonzero" fill="rgb(100%, 100%, 100%)" fill-opacity="1" stroke-width="0.79701" stroke-linecap="butt" stroke-linejoin="miter" stroke="rgb(0%, 0%, 0%)" stroke-opacity="1" stroke-miterlimit="10" d="M 65.168565 0.00196524 C 65.168565 2.230488 60.105172 4.037717 53.860584 4.037717 C 47.612059 4.037717 42.548667 2.230488 42.548667 0.00196524 C 42.548667 -2.230495 47.612059 -4.037724 53.860584 -4.037724 C 60.105172 -4.037724 65.168565 -2.230495 65.168565 0.00196524 Z M 65.168565 0.00196524 " transform="matrix(0.992109, 0, 0, -0.992109, 127.615206, 45.119137)"/>
<path fill="none" stroke-width="0.79701" stroke-linecap="butt" stroke-linejoin="miter" stroke="rgb(0%, 0%, 100%)" stroke-opacity="1" stroke-miterlimit="10" d="M 83.481035 0.00196524 C 83.481035 0.00196524 83.437725 2.297422 83.38654 3.080949 C 83.335355 3.868413 83.20936 5.069295 83.10699 5.659893 C 83.000682 6.250491 82.795942 7.03008 82.642386 7.345065 C 82.484894 7.660051 82.197469 7.919914 81.992729 7.943538 C 81.787988 7.963224 81.421817 7.726985 81.169829 7.494683 C 80.913903 7.262382 80.468986 6.659972 80.16975 6.278052 C 79.870514 5.896132 79.350788 5.140167 79.008241 4.734623 C 78.661757 4.329079 78.071159 3.659735 77.681364 3.368373 C 77.295507 3.077011 76.637975 2.710841 76.208807 2.639969 C 75.783577 2.56516 75.05911 2.651781 74.594506 2.852584 C 74.125965 3.057325 73.350313 3.632173 72.850274 4.100714 C 72.346297 4.569255 71.515523 5.565397 70.980047 6.226867 C 70.448509 6.888336 69.570487 8.132529 69.007451 8.868808 C 68.448351 9.609024 67.523081 10.865028 66.936421 11.542247 C 66.34976 12.215529 65.392992 13.247106 64.782707 13.731397 C 64.17636 14.215687 63.188093 14.822034 62.562059 15.026775 C 61.939963 15.231515 60.924135 15.306324 60.286289 15.200017 C 59.648443 15.093709 58.616866 14.640917 57.967208 14.258997 C 57.321488 13.877077 56.274161 13.014805 55.624503 12.447831 C 54.970908 11.884794 53.923581 10.809906 53.269986 10.191747 C 52.616391 9.573588 51.569065 8.530198 50.919407 7.994723 C 50.269749 7.459247 49.230297 6.675721 48.588514 6.337112 C 47.942794 6.002439 46.919091 5.640206 46.28912 5.569334 C 45.655211 5.494525 44.651195 5.620519 44.036973 5.813448 C 43.418814 6.006377 42.442359 6.565476 41.847824 6.967083 C 41.249351 7.364752 40.308332 8.203401 39.733484 8.699503 C 39.158635 9.195605 38.256989 10.089377 37.709702 10.546106 C 37.162414 11.002835 36.304079 11.707615 35.78829 11.995039 C 35.268564 12.282463 34.465351 12.597449 33.981061 12.617135 C 33.49677 12.640759 32.744742 12.436019 32.299825 12.156469 C 31.850971 11.872982 31.16194 11.140641 30.752459 10.581541 C 30.342978 10.018505 29.720881 8.860933 29.354711 8.104968 C 28.984603 7.349003 28.433378 5.955192 28.110518 5.132292 C 27.787658 4.309392 27.303367 2.919519 27.027755 2.167491 C 26.748205 1.415463 26.342662 0.269703 26.114297 -0.289396 C 25.885933 -0.848496 25.555198 -1.572962 25.378018 -1.864324 C 25.196902 -2.151748 24.948851 -2.372238 24.822856 -2.376175 C 24.692925 -2.38405 24.527558 -2.128124 24.448811 -1.89976 C 24.370065 -1.667458 24.287381 -1.080797 24.25982 -0.718564 C 24.236196 -0.356331 24.236196 0.356324 24.25982 0.718557 C 24.287381 1.080791 24.370065 1.667451 24.448811 1.899753 C 24.527558 2.128118 24.692925 2.384043 24.822856 2.376169 C 24.948851 2.372231 25.196902 2.151741 25.378018 1.864317 C 25.559135 1.572956 25.885933 0.848489 26.114297 0.28939 C 26.342662 -0.26971 26.748205 -1.41547 27.027755 -2.167498 C 27.303367 -2.919525 27.787658 -4.309399 28.110518 -5.132299 C 28.433378 -5.955198 28.984603 -7.349009 29.350773 -8.104975 C 29.720881 -8.86094 30.342978 -10.018512 30.752459 -10.577611 C 31.16194 -11.140648 31.850971 -11.872989 32.299825 -12.156476 C 32.744742 -12.436026 33.49677 -12.640766 33.981061 -12.617142 C 34.465351 -12.593518 35.268564 -12.28247 35.78829 -11.995046 C 36.304079 -11.707622 37.162414 -11.002841 37.709702 -10.546112 C 38.256989 -10.089383 39.158635 -9.195612 39.733484 -8.69951 C 40.308332 -8.203408 41.249351 -7.364759 41.847824 -6.967089 C 42.442359 -6.565483 43.418814 -6.006384 44.036973 -5.813455 C 44.651195 -5.620526 45.655211 -5.494532 46.28912 -5.569341 C 46.919091 -5.640213 47.942794 -6.002446 48.588514 -6.337118 C 49.230297 -6.675728 50.269749 -7.459254 50.919407 -7.99473 C 51.569065 -8.530205 52.616391 -9.573595 53.269986 -10.191754 C 53.923581 -10.809913 54.970908 -11.884801 55.624503 -12.447838 C 56.274161 -13.014811 57.321488 -13.877084 57.967208 -14.259004 C 58.612928 -14.640924 59.648443 -15.093716 60.286289 -15.200024 C 60.924135 -15.306331 61.939963 -15.231522 62.562059 -15.026781 C 63.188093 -14.822041 64.17636 -14.215694 64.782707 -13.731404 C 65.392992 -13.247113 66.34976 -12.215536 66.936421 -11.542254 C 67.523081 -10.865035 68.448351 -9.60903 69.007451 -8.868815 C 69.570487 -8.132536 70.448509 -6.888343 70.980047 -6.226873 C 71.515523 -5.565404 72.346297 -4.569262 72.850274 -4.100721 C 73.350313 -3.63218 74.125965 -3.057332 74.594506 -2.852591 C 75.05911 -2.651788 75.783577 -2.565167 76.208807 -2.639976 C 76.637975 -2.710848 77.295507 -3.077018 77.681364 -3.36838 C 78.071159 -3.659741 78.661757 -4.329086 79.008241 -4.73463 C 79.350788 -5.140173 79.870514 -5.896139 80.16975 -6.278059 C 80.468986 -6.659979 80.913903 -7.262388 81.169829 -7.49469 C 81.421817 -7.726992 81.787988 -7.963231 81.992729 -7.943545 C 82.197469 -7.919921 82.484894 -7.660058 82.642386 -7.345072 C 82.795942 -7.030087 83.000682 -6.250497 83.10699 -5.6599 C 83.20936 -5.069302 83.335355 -3.868419 83.38654 -3.080956 C 83.437725 -2.297429 83.481035 0.00196524 83.481035 0.00196524 " transform="matrix(0.992109, 0, 0, -0.992109, 127.615206, 45.119137)"/>
<path fill-rule="nonzero" fill="rgb(87.5%, 87.5%, 87.5%)" fill-opacity="1" d="M 277.230469 45.117188 C 277.230469 39.21875 264.074219 34.433594 247.839844 34.433594 C 231.609375 34.433594 218.453125 39.21875 218.453125 45.117188 C 218.453125 51.019531 231.609375 55.804688 247.839844 55.804688 C 264.074219 55.804688 277.230469 51.019531 277.230469 45.117188 Z M 277.230469 45.117188 "/>
<g clip-path="url(#clip-3)">
<path fill="none" stroke-width="0.79701" stroke-linecap="butt" stroke-linejoin="miter" stroke="rgb(0%, 0%, 0%)" stroke-opacity="1" stroke-miterlimit="10" d="M 150.805253 0.00196524 C 150.805253 5.947317 137.544363 10.770533 121.180865 10.770533 C 104.821304 10.770533 91.560414 5.947317 91.560414 0.00196524 C 91.560414 -5.947324 104.821304 -10.77054 121.180865 -10.77054 C 137.544363 -10.77054 150.805253 -5.947324 150.805253 0.00196524 Z M 150.805253 0.00196524 " transform="matrix(0.992109, 0, 0, -0.992109, 127.615206, 45.119137)"/>
</g>
<path fill-rule="nonzero" fill="rgb(100%, 100%, 100%)" fill-opacity="1" stroke-width="0.79701" stroke-linecap="butt" stroke-linejoin="miter" stroke="rgb(0%, 0%, 0%)" stroke-opacity="1" stroke-miterlimit="10" d="M 132.492783 0.00196524 C 132.492783 2.230488 127.42939 4.037717 121.180865 4.037717 C 114.936277 4.037717 109.872885 2.230488 109.872885 0.00196524 C 109.872885 -2.230495 114.936277 -4.037724 121.180865 -4.037724 C 127.42939 -4.037724 132.492783 -2.230495 132.492783 0.00196524 Z M 132.492783 0.00196524 " transform="matrix(0.992109, 0, 0, -0.992109, 127.615206, 45.119137)"/>
<g clip-path="url(#clip-4)">
<path fill="none" stroke-width="0.79701" stroke-linecap="butt" stroke-linejoin="miter" stroke="rgb(100%, 0%, 0%)" stroke-opacity="1" stroke-miterlimit="10" d="M 150.805253 0.00196524 C 150.805253 0.00196524 150.76588 2.293485 150.718632 3.104573 C 150.671385 3.91566 150.56114 5.17954 150.470581 5.844947 C 150.376086 6.514291 150.191032 7.463185 150.053225 7.915976 C 149.915419 8.368768 149.659494 8.908181 149.478377 9.108984 C 149.293323 9.309787 148.962588 9.412158 148.738161 9.360973 C 148.509796 9.309787 148.112127 9.006614 147.844389 8.742813 C 147.576652 8.479013 147.112048 7.868729 146.801 7.463185 C 146.493889 7.061578 145.962351 6.285926 145.615867 5.833135 C 145.265445 5.380343 144.674848 4.608629 144.28899 4.207022 C 143.903133 3.805415 143.253475 3.203006 142.832182 2.943143 C 142.410889 2.679342 141.706109 2.380106 141.253317 2.321046 C 140.800526 2.265924 140.04456 2.352545 139.56027 2.533661 C 139.079917 2.714778 138.280642 3.214818 137.76879 3.624299 C 137.256939 4.03378 136.414352 4.896053 135.878877 5.490588 C 135.343402 6.085123 134.465379 7.207259 133.90628 7.912039 C 133.351118 8.612882 132.43766 9.841325 131.862812 10.557918 C 131.287963 11.27451 130.350881 12.439956 129.760283 13.069927 C 129.169685 13.699898 128.212917 14.63698 127.610507 15.089772 C 127.008097 15.542563 126.031642 16.121349 125.421358 16.337902 C 124.811073 16.550517 123.822806 16.688323 123.208584 16.637138 C 122.594363 16.582016 121.602158 16.263093 120.987936 15.952045 C 120.369777 15.640996 119.377573 14.91653 118.763351 14.396804 C 118.149129 13.877077 117.1648 12.857312 116.554515 12.207654 C 115.948168 11.557997 114.97565 10.400425 114.37324 9.715331 C 113.774768 9.030238 112.817999 7.900227 112.227402 7.282068 C 111.640741 6.663909 110.707596 5.726827 110.136685 5.258286 C 109.561837 4.793682 108.656253 4.175523 108.105029 3.919598 C 107.549867 3.663672 106.675782 3.443182 106.144244 3.423495 C 105.612706 3.407746 104.777994 3.588863 104.274017 3.793603 C 103.766103 3.998344 102.974702 4.525945 102.494349 4.89999 C 102.017933 5.277973 101.269843 6.033938 100.824926 6.502479 C 100.376071 6.97102 99.683103 7.805732 99.265747 8.266398 C 98.852329 8.727064 98.210546 9.471218 97.832563 9.829514 C 97.450643 10.191747 96.871857 10.679974 96.529311 10.857154 C 96.190701 11.030396 95.670975 11.152453 95.367801 11.085518 C 95.064628 11.018584 94.611836 10.699661 94.351973 10.372864 C 94.088173 10.050003 93.702316 9.297975 93.485763 8.731002 C 93.265273 8.164028 92.950288 7.045829 92.773108 6.297738 C 92.599866 5.54571 92.355752 4.183398 92.225821 3.336874 C 92.095889 2.490351 91.922647 1.041417 91.839964 0.198831 C 91.753343 -0.647692 91.65491 -2.006067 91.619474 -2.750221 C 91.580101 -3.494374 91.556477 -4.604698 91.564351 -5.167735 C 91.572226 -5.730771 91.623411 -6.474925 91.674596 -6.797785 C 91.729719 -7.124582 91.855713 -7.439568 91.958083 -7.510439 C 92.056516 -7.581311 92.253382 -7.471066 92.399063 -7.309636 C 92.544744 -7.148206 92.816419 -6.68754 93.00541 -6.352868 C 93.194401 -6.018196 93.536948 -5.325227 93.773187 -4.899997 C 94.005489 -4.474766 94.418908 -3.714864 94.69452 -3.297508 C 94.970132 -2.88409 95.446548 -2.218683 95.761533 -1.907634 C 96.076519 -1.596586 96.619869 -1.17923 96.974228 -1.049299 C 97.328586 -0.919367 97.930996 -0.868182 98.324728 -0.966615 C 98.714523 -1.065048 99.375992 -1.423344 99.801223 -1.761954 C 100.23039 -2.100563 100.943045 -2.856528 101.399774 -3.407753 C 101.860441 -3.958978 102.62428 -5.029928 103.112508 -5.730771 C 103.600736 -6.427677 104.407886 -7.683681 104.923675 -8.439647 C 105.439464 -9.199549 106.285987 -10.471303 106.8254 -11.187895 C 107.364813 -11.904487 108.250709 -13.026623 108.813746 -13.609347 C 109.372845 -14.188133 110.290241 -15.007095 110.869026 -15.373266 C 111.443875 -15.743374 112.388832 -16.148917 112.979429 -16.259162 C 113.573965 -16.36547 114.53467 -16.314285 115.13708 -16.156792 C 115.743427 -15.999299 116.719883 -15.515009 117.334104 -15.121277 C 117.944389 -14.727545 118.932656 -13.892834 119.546878 -13.329797 C 120.161099 -12.770698 121.153304 -11.715496 121.771463 -11.073713 C 122.385685 -10.435867 123.377889 -9.333418 123.992111 -8.711322 C 124.606333 -8.089225 125.586725 -7.108833 126.197009 -6.600919 C 126.803357 -6.096942 127.775874 -5.38035 128.37041 -5.061427 C 128.968882 -4.742504 129.921713 -4.392083 130.508374 -4.301524 C 131.095034 -4.210966 132.024242 -4.270026 132.591216 -4.411769 C 133.162127 -4.553513 134.063773 -4.990555 134.61106 -5.333102 C 135.162285 -5.671711 136.028495 -6.396178 136.556096 -6.864719 C 137.083697 -7.33326 137.910534 -8.203408 138.410573 -8.711322 C 138.91455 -9.219236 139.698076 -10.069697 140.170555 -10.514614 C 140.64697 -10.963468 141.383249 -11.628875 141.824229 -11.924174 C 142.265208 -12.215536 142.950302 -12.558082 143.359783 -12.628954 C 143.769264 -12.699826 144.399235 -12.625017 144.773281 -12.439963 C 145.143389 -12.250972 145.7143 -11.727308 146.048972 -11.282391 C 146.383644 -10.837474 146.891558 -9.904329 147.186857 -9.24286 C 147.482156 -8.585328 147.923136 -7.337197 148.179062 -6.537922 C 148.43105 -5.738646 149.017711 -3.478625 149.017711 -3.478625 " transform="matrix(0.992109, 0, 0, -0.992109, 127.615206, 45.119137)"/>
</g>
<g fill="rgb(0%, 0%, 0%)" fill-opacity="1">
<use xlink:href="#glyph-2-0" x="208.603055" y="100.775465"/>
<use xlink:href="#glyph-2-3" x="212.158645" y="100.775465"/>
<use xlink:href="#glyph-2-2" x="216.730118" y="100.775465"/>
</g>
</svg>
