<?xml version="1.0" encoding="UTF-8"?>
<svg xmlns="http://www.w3.org/2000/svg" xmlns:xlink="http://www.w3.org/1999/xlink" width="215.74" height="95.064" viewBox="0 0 215.74 95.064">
<defs>
<g>
<g id="glyph-0-0">
<path d="M 5.890625 -5.328125 C 6.34375 -6.0625 6.734375 -6.09375 7.09375 -6.109375 C 7.203125 -6.125 7.203125 -6.28125 7.203125 -6.296875 C 7.203125 -6.359375 7.15625 -6.40625 7.09375 -6.40625 C 6.84375 -6.40625 6.578125 -6.375 6.3125 -6.375 C 6.015625 -6.375 5.6875 -6.40625 5.390625 -6.40625 C 5.328125 -6.40625 5.21875 -6.40625 5.21875 -6.21875 C 5.21875 -6.125 5.296875 -6.109375 5.359375 -6.109375 C 5.609375 -6.09375 5.796875 -6 5.796875 -5.796875 C 5.796875 -5.65625 5.65625 -5.453125 5.65625 -5.453125 L 2.78125 -0.875 L 2.140625 -5.828125 C 2.140625 -5.984375 2.359375 -6.109375 2.78125 -6.109375 C 2.921875 -6.109375 3.015625 -6.109375 3.015625 -6.296875 C 3.015625 -6.390625 2.9375 -6.40625 2.890625 -6.40625 C 2.515625 -6.40625 2.109375 -6.375 1.71875 -6.375 C 1.5625 -6.375 1.375 -6.390625 1.203125 -6.390625 C 1.046875 -6.390625 0.859375 -6.40625 0.703125 -6.40625 C 0.640625 -6.40625 0.53125 -6.40625 0.53125 -6.21875 C 0.53125 -6.109375 0.609375 -6.109375 0.765625 -6.109375 C 1.28125 -6.109375 1.296875 -6.03125 1.328125 -5.796875 L 2.0625 -0.015625 C 2.09375 0.171875 2.125 0.203125 2.25 0.203125 C 2.40625 0.203125 2.4375 0.15625 2.515625 0.03125 Z M 5.890625 -5.328125 "/>
</g>
<g id="glyph-0-1">
<path d="M 7.125 -6.515625 C 7.125 -6.546875 7.109375 -6.609375 7.015625 -6.609375 C 7 -6.609375 6.984375 -6.59375 6.875 -6.5 L 6.21875 -5.78125 C 6.140625 -5.90625 5.703125 -6.609375 4.671875 -6.609375 C 2.578125 -6.609375 0.46875 -4.53125 0.46875 -2.359375 C 0.46875 -0.8125 1.578125 0.203125 3.015625 0.203125 C 3.828125 0.203125 4.53125 -0.171875 5.03125 -0.59375 C 5.90625 -1.375 6.0625 -2.21875 6.0625 -2.25 C 6.0625 -2.34375 5.96875 -2.34375 5.953125 -2.34375 C 5.890625 -2.34375 5.84375 -2.328125 5.828125 -2.25 C 5.75 -1.984375 5.53125 -1.3125 4.890625 -0.765625 C 4.234375 -0.25 3.640625 -0.078125 3.15625 -0.078125 C 2.3125 -0.078125 1.328125 -0.578125 1.328125 -2.03125 C 1.328125 -2.5625 1.515625 -4.09375 2.453125 -5.1875 C 3.03125 -5.84375 3.90625 -6.3125 4.75 -6.3125 C 5.703125 -6.3125 6.25 -5.59375 6.25 -4.515625 C 6.25 -4.140625 6.21875 -4.125 6.21875 -4.03125 C 6.21875 -3.9375 6.328125 -3.9375 6.359375 -3.9375 C 6.484375 -3.9375 6.484375 -3.953125 6.53125 -4.125 Z M 7.125 -6.515625 "/>
</g>
<g id="glyph-0-2">
<path d="M 6.640625 -2.1875 C 6.65625 -2.234375 6.6875 -2.296875 6.6875 -2.3125 C 6.6875 -2.328125 6.6875 -2.421875 6.578125 -2.421875 C 6.484375 -2.421875 6.46875 -2.359375 6.453125 -2.3125 C 5.84375 -0.921875 5.5 -0.296875 3.890625 -0.296875 L 2.515625 -0.296875 C 2.390625 -0.296875 2.375 -0.296875 2.3125 -0.296875 C 2.21875 -0.3125 2.1875 -0.3125 2.1875 -0.390625 C 2.1875 -0.421875 2.1875 -0.4375 2.234375 -0.609375 L 2.875 -3.171875 L 3.8125 -3.171875 C 4.609375 -3.171875 4.609375 -2.96875 4.609375 -2.734375 C 4.609375 -2.671875 4.609375 -2.5625 4.53125 -2.28125 C 4.515625 -2.234375 4.515625 -2.203125 4.515625 -2.171875 C 4.515625 -2.125 4.546875 -2.078125 4.625 -2.078125 C 4.703125 -2.078125 4.734375 -2.125 4.765625 -2.265625 L 5.3125 -4.453125 C 5.3125 -4.515625 5.265625 -4.5625 5.1875 -4.5625 C 5.109375 -4.5625 5.09375 -4.5 5.0625 -4.390625 C 4.859375 -3.671875 4.703125 -3.453125 3.828125 -3.453125 L 2.953125 -3.453125 L 3.515625 -5.71875 C 3.59375 -6.046875 3.609375 -6.078125 4.015625 -6.078125 L 5.34375 -6.078125 C 6.484375 -6.078125 6.765625 -5.8125 6.765625 -5.046875 C 6.765625 -4.8125 6.765625 -4.796875 6.734375 -4.546875 C 6.734375 -4.484375 6.71875 -4.421875 6.71875 -4.375 C 6.71875 -4.328125 6.75 -4.265625 6.828125 -4.265625 C 6.9375 -4.265625 6.953125 -4.328125 6.96875 -4.5 L 7.15625 -6.125 C 7.1875 -6.375 7.140625 -6.375 6.90625 -6.375 L 2.171875 -6.375 C 1.984375 -6.375 1.890625 -6.375 1.890625 -6.1875 C 1.890625 -6.078125 1.96875 -6.078125 2.140625 -6.078125 C 2.5 -6.078125 2.75 -6.078125 2.75 -5.921875 C 2.75 -5.875 2.75 -5.859375 2.703125 -5.6875 L 1.46875 -0.734375 C 1.375 -0.359375 1.359375 -0.296875 0.625 -0.296875 C 0.453125 -0.296875 0.359375 -0.296875 0.359375 -0.109375 C 0.359375 0 0.4375 0 0.625 0 L 5.484375 0 C 5.703125 0 5.703125 -0.015625 5.78125 -0.15625 Z M 6.640625 -2.1875 "/>
</g>
<g id="glyph-0-3">
<path d="M 1.59375 1.59375 C 1.5625 1.71875 1.546875 1.734375 1.546875 1.78125 C 1.546875 1.984375 1.71875 2.046875 1.8125 2.046875 C 1.859375 2.046875 2.078125 2.015625 2.171875 1.796875 C 2.1875 1.71875 2.234375 1.421875 2.5 0.078125 C 2.578125 0.09375 2.640625 0.109375 2.796875 0.109375 C 4.359375 0.109375 5.796875 -1.375 5.796875 -2.84375 C 5.796875 -3.578125 5.4375 -4.140625 4.734375 -4.140625 C 3.375 -4.140625 2.8125 -2.328125 2.25 -0.5 C 1.234375 -0.6875 0.71875 -1.203125 0.71875 -1.890625 C 0.71875 -2.140625 0.921875 -3.171875 1.484375 -3.828125 C 1.5625 -3.90625 1.5625 -3.921875 1.5625 -3.953125 C 1.5625 -3.984375 1.546875 -4.046875 1.453125 -4.046875 C 1.1875 -4.046875 0.46875 -2.6875 0.46875 -1.78125 C 0.46875 -0.90625 1.09375 -0.21875 2.09375 0.015625 Z M 2.890625 -0.4375 C 2.8125 -0.4375 2.796875 -0.4375 2.71875 -0.453125 C 2.609375 -0.453125 2.59375 -0.453125 2.59375 -0.484375 C 2.59375 -0.5 2.75 -1.359375 2.78125 -1.5 C 3.078125 -2.703125 3.8125 -3.59375 4.640625 -3.59375 C 5.28125 -3.59375 5.546875 -3.09375 5.546875 -2.640625 C 5.546875 -1.578125 4.328125 -0.4375 2.890625 -0.4375 Z M 2.890625 -0.4375 "/>
</g>
<g id="glyph-1-0">
<path d="M 3.484375 -2.421875 C 3.515625 -2.515625 3.515625 -2.546875 3.515625 -2.5625 C 3.515625 -2.703125 3.40625 -2.765625 3.296875 -2.765625 C 3.140625 -2.765625 3.015625 -2.640625 3 -2.515625 C 2.875 -2.703125 2.65625 -2.890625 2.3125 -2.890625 C 1.5 -2.890625 0.640625 -2.015625 0.640625 -1.078125 C 0.640625 -0.40625 1.09375 0 1.640625 0 C 1.9375 0 2.21875 -0.15625 2.453125 -0.359375 L 2.3125 0.234375 C 2.234375 0.515625 2.1875 0.6875 1.9375 0.90625 C 1.65625 1.15625 1.375 1.15625 1.203125 1.15625 C 0.90625 1.15625 0.8125 1.140625 0.703125 1.109375 C 0.859375 1.03125 0.90625 0.875 0.90625 0.78125 C 0.90625 0.625 0.78125 0.53125 0.65625 0.53125 C 0.46875 0.53125 0.28125 0.6875 0.28125 0.9375 C 0.28125 1.328125 0.84375 1.34375 1.21875 1.34375 C 2.25 1.34375 2.6875 0.8125 2.78125 0.4375 Z M 2.578125 -0.875 C 2.5625 -0.78125 2.5625 -0.765625 2.453125 -0.625 C 2.21875 -0.359375 1.90625 -0.1875 1.65625 -0.1875 C 1.3125 -0.1875 1.15625 -0.46875 1.15625 -0.8125 C 1.15625 -1.09375 1.34375 -1.828125 1.515625 -2.125 C 1.78125 -2.578125 2.09375 -2.703125 2.3125 -2.703125 C 2.78125 -2.703125 2.90625 -2.21875 2.90625 -2.15625 C 2.90625 -2.140625 2.90625 -2.125 2.875 -2.046875 Z M 2.578125 -0.875 "/>
</g>
<g id="glyph-1-1">
<path d="M 3.921875 -3.984375 C 3.984375 -4.203125 3.984375 -4.25 4.34375 -4.25 C 4.421875 -4.25 4.515625 -4.25 4.515625 -4.390625 C 4.515625 -4.453125 4.46875 -4.484375 4.421875 -4.484375 C 4.265625 -4.484375 3.875 -4.453125 3.71875 -4.453125 C 3.578125 -4.453125 3.359375 -4.46875 3.203125 -4.46875 C 3.046875 -4.46875 2.859375 -4.484375 2.6875 -4.484375 C 2.640625 -4.484375 2.546875 -4.484375 2.546875 -4.34375 C 2.546875 -4.25 2.609375 -4.25 2.796875 -4.25 C 2.953125 -4.25 2.984375 -4.25 3.140625 -4.234375 C 3.328125 -4.21875 3.359375 -4.1875 3.359375 -4.109375 C 3.359375 -4.0625 3.359375 -4.0625 3.328125 -3.96875 L 2.578125 -0.953125 C 2.453125 -0.46875 2.03125 -0.046875 1.59375 -0.046875 C 1.515625 -0.046875 1.09375 -0.078125 0.9375 -0.390625 C 1.328125 -0.390625 1.40625 -0.703125 1.40625 -0.8125 C 1.40625 -1 1.25 -1.109375 1.109375 -1.109375 C 0.9375 -1.109375 0.671875 -0.953125 0.671875 -0.59375 C 0.671875 -0.15625 1.0625 0.125 1.625 0.125 C 2.265625 0.125 3 -0.28125 3.15625 -0.9375 Z M 3.921875 -3.984375 "/>
</g>
<g id="glyph-2-0">
<path d="M 1.65625 -4.140625 L 0.34375 -4.046875 L 0.34375 -3.75 C 0.953125 -3.75 1.046875 -3.6875 1.046875 -3.234375 L 1.046875 -0.71875 C 1.046875 -0.296875 0.9375 -0.296875 0.3125 -0.296875 L 0.3125 0 C 0.609375 -0.015625 1.109375 -0.03125 1.34375 -0.03125 C 1.671875 -0.03125 2 -0.015625 2.3125 0 L 2.3125 -0.296875 C 1.703125 -0.296875 1.65625 -0.34375 1.65625 -0.703125 Z M 1.703125 -5.78125 C 1.703125 -6.078125 1.46875 -6.265625 1.203125 -6.265625 C 0.90625 -6.265625 0.703125 -6.015625 0.703125 -5.78125 C 0.703125 -5.515625 0.90625 -5.28125 1.203125 -5.28125 C 1.46875 -5.28125 1.703125 -5.46875 1.703125 -5.78125 Z M 1.703125 -5.78125 "/>
</g>
<g id="glyph-2-1">
<path d="M 1.953125 -1.8125 C 2.15625 -1.78125 2.921875 -1.625 2.921875 -0.953125 C 2.921875 -0.484375 2.59375 -0.109375 1.859375 -0.109375 C 1.078125 -0.109375 0.734375 -0.640625 0.5625 -1.4375 C 0.53125 -1.5625 0.53125 -1.59375 0.4375 -1.59375 C 0.3125 -1.59375 0.3125 -1.53125 0.3125 -1.359375 L 0.3125 -0.125 C 0.3125 0.03125 0.3125 0.109375 0.40625 0.109375 C 0.453125 0.109375 0.46875 0.09375 0.640625 -0.078125 C 0.671875 -0.109375 0.671875 -0.125 0.828125 -0.296875 C 1.25 0.09375 1.671875 0.109375 1.859375 0.109375 C 2.9375 0.109375 3.375 -0.53125 3.375 -1.203125 C 3.375 -1.703125 3.09375 -1.984375 2.984375 -2.09375 C 2.671875 -2.390625 2.3125 -2.46875 1.90625 -2.546875 C 1.390625 -2.640625 0.765625 -2.765625 0.765625 -3.3125 C 0.765625 -3.640625 1 -4.015625 1.8125 -4.015625 C 2.84375 -4.015625 2.890625 -3.171875 2.90625 -2.890625 C 2.921875 -2.796875 3 -2.796875 3.015625 -2.796875 C 3.140625 -2.796875 3.140625 -2.84375 3.140625 -3.03125 L 3.140625 -3.96875 C 3.140625 -4.140625 3.140625 -4.203125 3.03125 -4.203125 C 2.984375 -4.203125 2.96875 -4.203125 2.84375 -4.09375 C 2.828125 -4.046875 2.734375 -3.96875 2.6875 -3.9375 C 2.328125 -4.203125 1.953125 -4.203125 1.8125 -4.203125 C 0.671875 -4.203125 0.3125 -3.578125 0.3125 -3.046875 C 0.3125 -2.71875 0.453125 -2.453125 0.71875 -2.25 C 1.015625 -2 1.28125 -1.953125 1.953125 -1.8125 Z M 1.953125 -1.8125 "/>
</g>
<g id="glyph-2-2">
<path d="M 1.65625 -6.5 L 0.3125 -6.40625 L 0.3125 -6.109375 C 0.96875 -6.109375 1.046875 -6.046875 1.046875 -5.59375 L 1.046875 -0.71875 C 1.046875 -0.296875 0.9375 -0.296875 0.3125 -0.296875 L 0.3125 0 C 0.625 -0.015625 1.109375 -0.03125 1.34375 -0.03125 C 1.578125 -0.03125 2.046875 -0.015625 2.390625 0 L 2.390625 -0.296875 C 1.765625 -0.296875 1.65625 -0.296875 1.65625 -0.71875 Z M 1.65625 -6.5 "/>
</g>
<g id="glyph-2-3">
<path d="M 3.125 -0.71875 C 3.15625 -0.34375 3.40625 0.0625 3.859375 0.0625 C 4.046875 0.0625 4.625 -0.078125 4.625 -0.828125 L 4.625 -1.359375 L 4.390625 -1.359375 L 4.390625 -0.828125 C 4.390625 -0.296875 4.15625 -0.234375 4.046875 -0.234375 C 3.734375 -0.234375 3.703125 -0.65625 3.703125 -0.703125 L 3.703125 -2.578125 C 3.703125 -2.96875 3.703125 -3.34375 3.359375 -3.6875 C 3 -4.046875 2.53125 -4.203125 2.078125 -4.203125 C 1.3125 -4.203125 0.671875 -3.765625 0.671875 -3.140625 C 0.671875 -2.859375 0.859375 -2.703125 1.09375 -2.703125 C 1.359375 -2.703125 1.53125 -2.890625 1.53125 -3.125 C 1.53125 -3.25 1.484375 -3.546875 1.046875 -3.5625 C 1.296875 -3.890625 1.765625 -4 2.0625 -4 C 2.515625 -4 3.0625 -3.625 3.0625 -2.796875 L 3.0625 -2.453125 C 2.578125 -2.421875 1.921875 -2.390625 1.328125 -2.109375 C 0.625 -1.796875 0.390625 -1.296875 0.390625 -0.890625 C 0.390625 -0.125 1.296875 0.109375 1.890625 0.109375 C 2.515625 0.109375 2.9375 -0.265625 3.125 -0.71875 Z M 3.0625 -2.25 L 3.0625 -1.3125 C 3.0625 -0.421875 2.375 -0.109375 1.953125 -0.109375 C 1.5 -0.109375 1.109375 -0.4375 1.109375 -0.90625 C 1.109375 -1.421875 1.515625 -2.1875 3.0625 -2.25 Z M 3.0625 -2.25 "/>
</g>
<g id="glyph-2-4">
<path d="M 1.03125 -3.21875 L 1.03125 -0.71875 C 1.03125 -0.296875 0.921875 -0.296875 0.296875 -0.296875 L 0.296875 0 C 0.625 -0.015625 1.109375 -0.03125 1.359375 -0.03125 C 1.609375 -0.03125 2.09375 -0.015625 2.40625 0 L 2.40625 -0.296875 C 1.78125 -0.296875 1.671875 -0.296875 1.671875 -0.71875 L 1.671875 -2.4375 C 1.671875 -3.40625 2.34375 -3.9375 2.9375 -3.9375 C 3.53125 -3.9375 3.640625 -3.4375 3.640625 -2.890625 L 3.640625 -0.71875 C 3.640625 -0.296875 3.53125 -0.296875 2.90625 -0.296875 L 2.90625 0 C 3.234375 -0.015625 3.71875 -0.03125 3.96875 -0.03125 C 4.203125 -0.03125 4.703125 -0.015625 5.015625 0 L 5.015625 -0.296875 C 4.53125 -0.296875 4.296875 -0.296875 4.28125 -0.578125 L 4.28125 -2.359375 C 4.28125 -3.171875 4.28125 -3.453125 4 -3.796875 C 3.859375 -3.953125 3.546875 -4.140625 3.015625 -4.140625 C 2.328125 -4.140625 1.890625 -3.734375 1.625 -3.15625 L 1.625 -4.140625 L 0.296875 -4.046875 L 0.296875 -3.75 C 0.953125 -3.75 1.03125 -3.6875 1.03125 -3.21875 Z M 1.03125 -3.21875 "/>
</g>
<g id="glyph-2-5">
<path d="M 3.5625 -0.515625 L 3.5625 0.109375 L 4.9375 0 L 4.9375 -0.296875 C 4.28125 -0.296875 4.203125 -0.359375 4.203125 -0.8125 L 4.203125 -6.5 L 2.859375 -6.40625 L 2.859375 -6.109375 C 3.515625 -6.109375 3.59375 -6.046875 3.59375 -5.59375 L 3.59375 -3.5625 C 3.3125 -3.90625 2.921875 -4.140625 2.40625 -4.140625 C 1.296875 -4.140625 0.3125 -3.21875 0.3125 -2.015625 C 0.3125 -0.828125 1.234375 0.109375 2.3125 0.109375 C 2.90625 0.109375 3.328125 -0.21875 3.5625 -0.515625 Z M 3.5625 -3.03125 L 3.5625 -1.109375 C 3.5625 -0.9375 3.5625 -0.921875 3.453125 -0.765625 C 3.171875 -0.3125 2.75 -0.109375 2.359375 -0.109375 C 1.9375 -0.109375 1.59375 -0.34375 1.375 -0.703125 C 1.125 -1.09375 1.09375 -1.625 1.09375 -2 C 1.09375 -2.359375 1.109375 -2.921875 1.390625 -3.34375 C 1.578125 -3.625 1.9375 -3.9375 2.453125 -3.9375 C 2.78125 -3.9375 3.171875 -3.796875 3.453125 -3.375 C 3.5625 -3.21875 3.5625 -3.203125 3.5625 -3.03125 Z M 3.5625 -3.03125 "/>
</g>
</g>
</defs>
<path fill="none" stroke-width="0.3985" stroke-linecap="butt" stroke-linejoin="miter" stroke="rgb(0%, 0%, 0%)" stroke-opacity="1" stroke-miterlimit="10" d="M 0.0017897 0.00154153 L 0.0017897 26.659898 M 0.0017897 37.969384 L 0.0017897 64.631685 " transform="matrix(0.99025, 0, 0, -0.99025, 14.490415, 66.169495)"/>
<path fill="none" stroke-width="0.3985" stroke-linecap="butt" stroke-linejoin="miter" stroke="rgb(0%, 0%, 0%)" stroke-opacity="1" stroke-miterlimit="10" d="M 0.0017897 34.182462 L 0.0017897 37.969384 M 0.0017897 30.450765 L 0.0017897 26.659898 " transform="matrix(0.99025, 0, 0, -0.99025, 14.490415, 66.169495)"/>
<path fill="none" stroke-width="0.797" stroke-linecap="butt" stroke-linejoin="miter" stroke="rgb(0%, 0%, 0%)" stroke-opacity="1" stroke-miterlimit="10" d="M -5.654926 34.182462 L 5.65456 34.182462 M -11.311641 30.450765 L 11.311276 30.450765 " transform="matrix(0.99025, 0, 0, -0.99025, 14.490415, 66.169495)"/>
<g fill="rgb(0%, 0%, 0%)" fill-opacity="1">
<use xlink:href="#glyph-0-0" x="28.403428" y="36.188686"/>
</g>
<g fill="rgb(0%, 0%, 0%)" fill-opacity="1">
<use xlink:href="#glyph-1-0" x="33.870053" y="37.595089"/>
</g>
<path fill="none" stroke-width="0.3985" stroke-linecap="butt" stroke-linejoin="miter" stroke="rgb(0%, 0%, 0%)" stroke-opacity="1" stroke-miterlimit="10" d="M 0.0017897 64.631685 L 67.322226 64.631685 " transform="matrix(0.99025, 0, 0, -0.99025, 14.490415, 66.169495)"/>
<path fill="none" stroke-width="0.3985" stroke-linecap="butt" stroke-linejoin="miter" stroke="rgb(0%, 0%, 0%)" stroke-opacity="1" stroke-miterlimit="10" d="M 67.322226 64.631685 L 67.322226 52.241348 M 67.322226 44.699061 L 67.322226 32.316613 " transform="matrix(0.99025, 0, 0, -0.99025, 14.490415, 66.169495)"/>
<path fill="none" stroke-width="0.797" stroke-linecap="butt" stroke-linejoin="miter" stroke="rgb(0%, 0%, 0%)" stroke-opacity="1" stroke-miterlimit="10" d="M 78.635657 52.241348 L 56.01274 52.241348 M 78.635657 44.703006 L 56.01274 44.703006 " transform="matrix(0.99025, 0, 0, -0.99025, 14.490415, 66.169495)"/>
<g fill="rgb(0%, 0%, 0%)" fill-opacity="1">
<use xlink:href="#glyph-0-1" x="95.066067" y="20.190207"/>
</g>
<g fill="rgb(0%, 0%, 0%)" fill-opacity="1">
<use xlink:href="#glyph-1-0" x="101.765059" y="21.595669"/>
</g>
<path fill-rule="nonzero" fill="rgb(89.99939%, 89.99939%, 100%)" fill-opacity="1" stroke-width="0.3985" stroke-linecap="butt" stroke-linejoin="miter" stroke="rgb(0%, 0%, 0%)" stroke-opacity="1" stroke-miterlimit="10" d="M 129.262078 38.754382 L 70.016464 38.754382 L 70.016464 25.874901 L 129.262078 25.874901 Z M 129.262078 38.754382 " transform="matrix(0.99025, 0, 0, -0.99025, 14.490415, 66.169495)"/>
<g fill="rgb(0%, 0%, 0%)" fill-opacity="1">
<use xlink:href="#glyph-2-0" x="101.155115" y="37.424518"/>
<use xlink:href="#glyph-2-1" x="103.75871" y="37.424518"/>
<use xlink:href="#glyph-2-2" x="107.455102" y="37.424518"/>
<use xlink:href="#glyph-2-3" x="110.058697" y="37.424518"/>
<use xlink:href="#glyph-2-4" x="114.744792" y="37.424518"/>
<use xlink:href="#glyph-2-5" x="119.951982" y="37.424518"/>
</g>
<path fill="none" stroke-width="0.3985" stroke-linecap="butt" stroke-linejoin="miter" stroke="rgb(0%, 0%, 0%)" stroke-opacity="1" stroke-miterlimit="10" d="M 67.322226 32.316613 L 69.827118 32.312669 " transform="matrix(0.99025, 0, 0, -0.99025, 14.490415, 66.169495)"/>
<path fill="none" stroke-width="0.3985" stroke-linecap="butt" stroke-linejoin="miter" stroke="rgb(0%, 0%, 0%)" stroke-opacity="1" stroke-miterlimit="10" d="M 129.447479 32.312669 L 145.419613 32.316613 " transform="matrix(0.99025, 0, 0, -0.99025, 14.490415, 66.169495)"/>
<path fill="none" stroke-width="0.3985" stroke-linecap="butt" stroke-linejoin="miter" stroke="rgb(0%, 0%, 0%)" stroke-opacity="1" stroke-miterlimit="10" d="M 145.419613 32.316613 L 145.411724 22.080089 M 145.411724 -0.538884 L 145.419613 -10.771464 " transform="matrix(0.99025, 0, 0, -0.99025, 14.490415, 66.169495)"/>
<path fill="none" stroke-width="0.797" stroke-linecap="butt" stroke-linejoin="miter" stroke="rgb(0%, 0%, 0%)" stroke-opacity="1" stroke-miterlimit="10" d="M 145.419613 22.084033 L 145.419613 -0.538884 M 149.376159 14.731092 L 141.459124 6.814057 M 141.459124 14.731092 L 149.376159 6.814057 " transform="matrix(0.99025, 0, 0, -0.99025, 14.490415, 66.169495)"/>
<g fill="rgb(0%, 0%, 0%)" fill-opacity="1">
<use xlink:href="#glyph-0-2" x="172.39568" y="57.521642"/>
</g>
<g fill="rgb(0%, 0%, 0%)" fill-opacity="1">
<use xlink:href="#glyph-1-1" x="179.313864" y="58.927104"/>
</g>
<path fill="none" stroke-width="0.3985" stroke-linecap="butt" stroke-linejoin="miter" stroke="rgb(0%, 0%, 0%)" stroke-opacity="1" stroke-miterlimit="10" d="M 145.419613 32.316613 L 172.34621 32.316613 L 172.342266 14.541746 M 172.342266 6.999459 L 172.34621 -10.771464 L 145.419613 -10.771464 " transform="matrix(0.99025, 0, 0, -0.99025, 14.490415, 66.169495)"/>
<path fill="none" stroke-width="0.797" stroke-linecap="butt" stroke-linejoin="miter" stroke="rgb(0%, 0%, 0%)" stroke-opacity="1" stroke-miterlimit="10" d="M 183.659641 14.541746 L 161.036724 14.541746 M 183.659641 7.003403 L 161.036724 7.003403 " transform="matrix(0.99025, 0, 0, -0.99025, 14.490415, 66.169495)"/>
<g fill="rgb(0%, 0%, 0%)" fill-opacity="1">
<use xlink:href="#glyph-0-1" x="199.061132" y="57.521642"/>
</g>
<g fill="rgb(0%, 0%, 0%)" fill-opacity="1">
<use xlink:href="#glyph-1-1" x="205.759183" y="58.927104"/>
</g>
<path fill="none" stroke-width="0.3985" stroke-linecap="butt" stroke-linejoin="miter" stroke="rgb(0%, 0%, 0%)" stroke-opacity="1" stroke-miterlimit="10" d="M 145.419613 -10.771464 L 0.0017897 -10.771464 L 0.0017897 0.00154153 " transform="matrix(0.99025, 0, 0, -0.99025, 14.490415, 66.169495)"/>
<path fill="none" stroke-width="0.3985" stroke-linecap="butt" stroke-linejoin="miter" stroke="rgb(0%, 0%, 0%)" stroke-opacity="1" stroke-miterlimit="10" d="M 145.419613 -10.771464 L 145.419613 -22.08095 " transform="matrix(0.99025, 0, 0, -0.99025, 14.490415, 66.169495)"/>
<path fill="none" stroke-width="0.797" stroke-linecap="butt" stroke-linejoin="miter" stroke="rgb(0%, 0%, 0%)" stroke-opacity="1" stroke-miterlimit="10" d="M 139.762898 -22.08095 L 151.072384 -22.08095 M 141.64847 -23.966522 L 149.186812 -23.966522 M 143.060676 -25.852094 L 147.774606 -25.852094 " transform="matrix(0.99025, 0, 0, -0.99025, 14.490415, 66.169495)"/>
<g fill="rgb(0%, 0%, 0%)" fill-opacity="1">
<use xlink:href="#glyph-0-3" x="167.134482" y="55.276745"/>
</g>
<g fill="rgb(0%, 0%, 0%)" fill-opacity="1">
<use xlink:href="#glyph-1-1" x="173.265268" y="56.682207"/>
</g>
</svg>
