<?xml version="1.0" encoding="UTF-8"?>
<svg xmlns="http://www.w3.org/2000/svg" xmlns:xlink="http://www.w3.org/1999/xlink" width="196.922" height="116.126" viewBox="0 0 196.922 116.126">
<defs>
<g>
<g id="glyph-0-0">
<path d="M 4.328125 -0.0625 C 5.859375 -0.640625 7.3125 -2.40625 7.3125 -4.3125 C 7.3125 -5.90625 6.265625 -6.96875 4.796875 -6.96875 C 2.65625 -6.96875 0.484375 -4.734375 0.484375 -2.421875 C 0.484375 -0.78125 1.59375 0.21875 3.015625 0.21875 C 3.265625 0.21875 3.59375 0.171875 3.984375 0.0625 C 3.953125 0.6875 3.953125 0.703125 3.953125 0.828125 C 3.953125 1.140625 3.953125 1.921875 4.765625 1.921875 C 5.9375 1.921875 6.421875 0.109375 6.421875 0 C 6.421875 -0.0625 6.34375 -0.09375 6.3125 -0.09375 C 6.234375 -0.09375 6.21875 -0.046875 6.1875 0.015625 C 5.953125 0.71875 5.375 0.953125 5.03125 0.953125 C 4.578125 0.953125 4.4375 0.6875 4.328125 -0.0625 Z M 2.46875 -0.140625 C 1.6875 -0.4375 1.359375 -1.21875 1.359375 -2.109375 C 1.359375 -2.796875 1.609375 -4.1875 2.359375 -5.265625 C 3.078125 -6.265625 4.015625 -6.71875 4.734375 -6.71875 C 5.734375 -6.71875 6.453125 -5.953125 6.453125 -4.625 C 6.453125 -3.640625 5.9375 -1.328125 4.28125 -0.390625 C 4.234375 -0.734375 4.140625 -1.46875 3.40625 -1.46875 C 2.890625 -1.46875 2.40625 -0.96875 2.40625 -0.453125 C 2.40625 -0.25 2.46875 -0.140625 2.46875 -0.140625 Z M 3.078125 -0.03125 C 2.9375 -0.03125 2.625 -0.03125 2.625 -0.453125 C 2.625 -0.84375 3 -1.25 3.40625 -1.25 C 3.828125 -1.25 4.015625 -1.015625 4.015625 -0.40625 C 4.015625 -0.25 4 -0.25 3.90625 -0.203125 C 3.65625 -0.09375 3.359375 -0.03125 3.078125 -0.03125 Z M 3.078125 -0.03125 "/>
</g>
<g id="glyph-0-1">
<path d="M 3.703125 -6.078125 C 3.765625 -6.3125 3.796875 -6.40625 3.984375 -6.4375 C 4.078125 -6.453125 4.390625 -6.453125 4.59375 -6.453125 C 5.296875 -6.453125 6.390625 -6.453125 6.390625 -5.46875 C 6.390625 -5.140625 6.234375 -4.453125 5.84375 -4.0625 C 5.59375 -3.8125 5.0625 -3.484375 4.171875 -3.484375 L 3.0625 -3.484375 Z M 5.140625 -3.359375 C 6.125 -3.578125 7.3125 -4.265625 7.3125 -5.265625 C 7.3125 -6.125 6.421875 -6.75 5.125 -6.75 L 2.296875 -6.75 C 2.109375 -6.75 2.015625 -6.75 2.015625 -6.5625 C 2.015625 -6.453125 2.109375 -6.453125 2.296875 -6.453125 C 2.3125 -6.453125 2.5 -6.453125 2.671875 -6.421875 C 2.84375 -6.40625 2.9375 -6.40625 2.9375 -6.265625 C 2.9375 -6.234375 2.921875 -6.203125 2.890625 -6.078125 L 1.578125 -0.765625 C 1.46875 -0.390625 1.453125 -0.3125 0.671875 -0.3125 C 0.5 -0.3125 0.40625 -0.3125 0.40625 -0.109375 C 0.40625 0 0.53125 0 0.546875 0 C 0.828125 0 1.515625 -0.03125 1.796875 -0.03125 C 2.0625 -0.03125 2.765625 0 3.046875 0 C 3.125 0 3.25 0 3.25 -0.203125 C 3.25 -0.3125 3.15625 -0.3125 2.96875 -0.3125 C 2.59375 -0.3125 2.328125 -0.3125 2.328125 -0.484375 C 2.328125 -0.546875 2.34375 -0.59375 2.359375 -0.65625 L 3 -3.28125 L 4.1875 -3.28125 C 5.078125 -3.28125 5.265625 -2.71875 5.265625 -2.375 C 5.265625 -2.21875 5.1875 -1.921875 5.125 -1.6875 C 5.046875 -1.421875 4.96875 -1.046875 4.96875 -0.84375 C 4.96875 0.21875 6.15625 0.21875 6.28125 0.21875 C 7.125 0.21875 7.46875 -0.78125 7.46875 -0.921875 C 7.46875 -1.03125 7.359375 -1.03125 7.34375 -1.03125 C 7.265625 -1.03125 7.234375 -0.96875 7.21875 -0.90625 C 6.96875 -0.171875 6.546875 0 6.3125 0 C 6 0 5.921875 -0.21875 5.921875 -0.609375 C 5.921875 -0.90625 5.984375 -1.421875 6.015625 -1.734375 C 6.046875 -1.875 6.0625 -2.0625 6.0625 -2.203125 C 6.0625 -2.953125 5.40625 -3.265625 5.140625 -3.359375 Z M 5.140625 -3.359375 "/>
</g>
<g id="glyph-0-2">
<path d="M 6.375 -6.875 C 6.375 -6.90625 6.359375 -6.96875 6.265625 -6.96875 C 6.21875 -6.96875 6.21875 -6.96875 6.09375 -6.828125 L 5.625 -6.265625 C 5.359375 -6.71875 4.84375 -6.96875 4.203125 -6.96875 C 2.953125 -6.96875 1.765625 -5.828125 1.765625 -4.640625 C 1.765625 -3.84375 2.28125 -3.375 2.796875 -3.234375 L 3.84375 -2.953125 C 4.21875 -2.875 4.75 -2.71875 4.75 -1.90625 C 4.75 -1.015625 3.953125 -0.09375 2.984375 -0.09375 C 2.34375 -0.09375 1.25 -0.3125 1.25 -1.53125 C 1.25 -1.765625 1.296875 -2 1.3125 -2.0625 C 1.3125 -2.109375 1.328125 -2.109375 1.328125 -2.140625 C 1.328125 -2.234375 1.25 -2.25 1.203125 -2.25 C 1.15625 -2.25 1.140625 -2.234375 1.109375 -2.203125 C 1.0625 -2.171875 0.515625 0.09375 0.515625 0.125 C 0.515625 0.171875 0.5625 0.21875 0.625 0.21875 C 0.671875 0.21875 0.6875 0.203125 0.796875 0.0625 L 1.28125 -0.5 C 1.71875 0.078125 2.390625 0.21875 2.953125 0.21875 C 4.296875 0.21875 5.46875 -1.09375 5.46875 -2.328125 C 5.46875 -3 5.140625 -3.34375 4.984375 -3.484375 C 4.75 -3.703125 4.609375 -3.75 3.734375 -3.96875 C 3.515625 -4.03125 3.15625 -4.140625 3.0625 -4.15625 C 2.796875 -4.25 2.46875 -4.53125 2.46875 -5.046875 C 2.46875 -5.859375 3.25 -6.703125 4.1875 -6.703125 C 5.015625 -6.703125 5.625 -6.265625 5.625 -5.15625 C 5.625 -4.84375 5.578125 -4.671875 5.578125 -4.609375 C 5.578125 -4.59375 5.578125 -4.515625 5.703125 -4.515625 C 5.796875 -4.515625 5.8125 -4.546875 5.84375 -4.703125 Z M 6.375 -6.875 "/>
</g>
<g id="glyph-0-3">
<path d="M 2.03125 -3.953125 L 2.96875 -3.953125 C 3.171875 -3.953125 3.265625 -3.953125 3.265625 -4.15625 C 3.265625 -4.265625 3.171875 -4.265625 2.984375 -4.265625 L 2.109375 -4.265625 C 2.46875 -5.671875 2.515625 -5.859375 2.515625 -5.921875 C 2.515625 -6.09375 2.40625 -6.1875 2.234375 -6.1875 C 2.203125 -6.1875 1.921875 -6.1875 1.84375 -5.828125 L 1.453125 -4.265625 L 0.53125 -4.265625 C 0.328125 -4.265625 0.234375 -4.265625 0.234375 -4.078125 C 0.234375 -3.953125 0.3125 -3.953125 0.5 -3.953125 L 1.375 -3.953125 C 0.65625 -1.140625 0.625 -0.984375 0.625 -0.796875 C 0.625 -0.265625 1 0.109375 1.53125 0.109375 C 2.546875 0.109375 3.109375 -1.328125 3.109375 -1.421875 C 3.109375 -1.515625 3.03125 -1.515625 2.984375 -1.515625 C 2.890625 -1.515625 2.890625 -1.484375 2.84375 -1.375 C 2.40625 -0.34375 1.890625 -0.109375 1.546875 -0.109375 C 1.34375 -0.109375 1.25 -0.234375 1.25 -0.5625 C 1.25 -0.796875 1.265625 -0.875 1.3125 -1.03125 Z M 2.03125 -3.953125 "/>
</g>
<g id="glyph-1-0">
<path d="M 4.25 -5.53125 L 4.25 -5.828125 L 0.6875 -5.828125 L 0.6875 -5.53125 Z M 4.25 -5.53125 "/>
</g>
</g>
<clipPath id="clip-0">
<path clip-rule="nonzero" d="M 97 68 L 154 68 L 154 115.257812 L 97 115.257812 Z M 97 68 "/>
</clipPath>
<clipPath id="clip-1">
<path clip-rule="nonzero" d="M 50 74 L 107 74 L 107 115.257812 L 50 115.257812 Z M 50 74 "/>
</clipPath>
</defs>
<path fill="none" stroke-width="0.3985" stroke-linecap="butt" stroke-linejoin="miter" stroke="rgb(0%, 0%, 0%)" stroke-opacity="1" stroke-miterlimit="10" d="M -16.60716 6.746411 L -26.052719 6.746411 M -16.60716 -6.744996 L -26.052719 -6.744996 " transform="matrix(0.99253, 0, 0, -0.99253, 125.572947, 92.797577)"/>
<g clip-path="url(#clip-0)">
<path fill="none" stroke-width="0.797" stroke-linecap="butt" stroke-linejoin="miter" stroke="rgb(0%, 0%, 0%)" stroke-opacity="1" stroke-miterlimit="10" d="M -16.60716 13.492114 L 3.11438 13.492114 C 10.564565 13.492114 16.605787 7.450892 16.605787 0.000707172 C 16.605787 -7.453413 10.564565 -13.494635 3.11438 -13.494635 L -16.60716 -13.494635 Z M -16.60716 13.492114 " transform="matrix(0.99253, 0, 0, -0.99253, 125.572947, 92.797577)"/>
</g>
<path fill="none" stroke-width="0.3985" stroke-linecap="butt" stroke-linejoin="miter" stroke="rgb(0%, 0%, 0%)" stroke-opacity="1" stroke-miterlimit="10" d="M 20.761833 0.000707172 L 26.051346 0.000707172 " transform="matrix(0.99253, 0, 0, -0.99253, 125.572947, 92.797577)"/>
<path fill-rule="nonzero" fill="rgb(100%, 100%, 100%)" fill-opacity="1" stroke-width="0.797" stroke-linecap="butt" stroke-linejoin="miter" stroke="rgb(0%, 0%, 0%)" stroke-opacity="1" stroke-miterlimit="10" d="M 20.761833 0.000707172 C 20.761833 1.145981 19.83302 2.07873 18.68381 2.07873 C 17.538536 2.07873 16.605787 1.145981 16.605787 0.000707172 C 16.605787 -1.148503 17.538536 -2.077316 18.68381 -2.077316 C 19.83302 -2.077316 20.761833 -1.148503 20.761833 0.000707172 Z M 20.761833 0.000707172 " transform="matrix(0.99253, 0, 0, -0.99253, 125.572947, 92.797577)"/>
<path fill="none" stroke-width="0.3985" stroke-linecap="butt" stroke-linejoin="miter" stroke="rgb(0%, 0%, 0%)" stroke-opacity="1" stroke-miterlimit="10" d="M -16.60716 77.611718 L -26.052719 77.611718 M -16.60716 64.120311 L -26.052719 64.120311 " transform="matrix(0.99253, 0, 0, -0.99253, 125.572947, 92.797577)"/>
<path fill="none" stroke-width="0.797" stroke-linecap="butt" stroke-linejoin="miter" stroke="rgb(0%, 0%, 0%)" stroke-opacity="1" stroke-miterlimit="10" d="M -16.60716 84.361357 L 3.11438 84.361357 C 10.564565 84.361357 16.605787 78.320135 16.605787 70.866015 C 16.605787 63.41583 10.564565 57.374608 3.11438 57.374608 L -16.60716 57.374608 Z M -16.60716 84.361357 " transform="matrix(0.99253, 0, 0, -0.99253, 125.572947, 92.797577)"/>
<path fill="none" stroke-width="0.3985" stroke-linecap="butt" stroke-linejoin="miter" stroke="rgb(0%, 0%, 0%)" stroke-opacity="1" stroke-miterlimit="10" d="M 20.761833 70.866015 L 26.051346 70.866015 " transform="matrix(0.99253, 0, 0, -0.99253, 125.572947, 92.797577)"/>
<path fill-rule="nonzero" fill="rgb(100%, 100%, 100%)" fill-opacity="1" stroke-width="0.797" stroke-linecap="butt" stroke-linejoin="miter" stroke="rgb(0%, 0%, 0%)" stroke-opacity="1" stroke-miterlimit="10" d="M 20.761833 70.866015 C 20.761833 72.015224 19.83302 72.944038 18.68381 72.944038 C 17.538536 72.944038 16.605787 72.015224 16.605787 70.866015 C 16.605787 69.720741 17.538536 68.787992 18.68381 68.787992 C 19.83302 68.787992 20.761833 69.720741 20.761833 70.866015 Z M 20.761833 70.866015 " transform="matrix(0.99253, 0, 0, -0.99253, 125.572947, 92.797577)"/>
<path fill="none" stroke-width="0.3985" stroke-linecap="butt" stroke-linejoin="miter" stroke="rgb(0%, 0%, 0%)" stroke-opacity="1" stroke-miterlimit="10" d="M 26.051346 70.866015 L 54.39983 70.866015 " transform="matrix(0.99253, 0, 0, -0.99253, 125.572947, 92.797577)"/>
<g fill="rgb(0%, 0%, 0%)" fill-opacity="1">
<use xlink:href="#glyph-0-0" x="183.057302" y="24.877762"/>
</g>
<path fill="none" stroke-width="0.3985" stroke-linecap="butt" stroke-linejoin="miter" stroke="rgb(0%, 0%, 0%)" stroke-opacity="1" stroke-miterlimit="10" d="M -26.052719 64.120311 L -26.052719 49.948037 L 14.173556 14.172982 " transform="matrix(0.99253, 0, 0, -0.99253, 125.572947, 92.797577)"/>
<path fill="none" stroke-width="0.3985" stroke-linecap="butt" stroke-linejoin="miter" stroke="rgb(0%, 0%, 0%)" stroke-opacity="1" stroke-miterlimit="10" d="M 14.173556 14.172982 L 14.173556 1.464769 " transform="matrix(0.99253, 0, 0, -0.99253, 125.572947, 92.797577)"/>
<path fill-rule="nonzero" fill="rgb(0%, 0%, 0%)" fill-opacity="1" stroke-width="0.3985" stroke-linecap="butt" stroke-linejoin="miter" stroke="rgb(0%, 0%, 0%)" stroke-opacity="1" stroke-miterlimit="10" d="M 3.457969 0.000165526 C 3.457969 0.901429 2.729874 1.629524 1.82861 1.629524 C 0.927346 1.629524 0.199251 0.901429 0.199251 0.000165526 C 0.199251 -0.901098 0.927346 -1.629193 1.82861 -1.629193 C 2.729874 -1.629193 3.457969 -0.901098 3.457969 0.000165526 Z M 3.457969 0.000165526 " transform="matrix(0, 0.99253, 0.99253, 0, 139.640461, 91.145987)"/>
<path fill="none" stroke-width="0.3985" stroke-linecap="butt" stroke-linejoin="miter" stroke="rgb(0%, 0%, 0%)" stroke-opacity="1" stroke-miterlimit="10" d="M 26.051346 0.000707172 L 54.39983 0.000707172 " transform="matrix(0.99253, 0, 0, -0.99253, 125.572947, 92.797577)"/>
<g fill="rgb(0%, 0%, 0%)" fill-opacity="1">
<use xlink:href="#glyph-1-0" x="185.318285" y="93.393095"/>
</g>
<g fill="rgb(0%, 0%, 0%)" fill-opacity="1">
<use xlink:href="#glyph-0-0" x="183.057302" y="95.893278"/>
</g>
<path fill="none" stroke-width="0.3985" stroke-linecap="butt" stroke-linejoin="miter" stroke="rgb(0%, 0%, 0%)" stroke-opacity="1" stroke-miterlimit="10" d="M -26.052719 6.746411 L -26.052719 20.918685 L 14.173556 56.69374 " transform="matrix(0.99253, 0, 0, -0.99253, 125.572947, 92.797577)"/>
<path fill="none" stroke-width="0.3985" stroke-linecap="butt" stroke-linejoin="miter" stroke="rgb(0%, 0%, 0%)" stroke-opacity="1" stroke-miterlimit="10" d="M 14.173556 56.69374 L 14.173556 69.401953 " transform="matrix(0.99253, 0, 0, -0.99253, 125.572947, 92.797577)"/>
<path fill-rule="nonzero" fill="rgb(0%, 0%, 0%)" fill-opacity="1" stroke-width="0.3985" stroke-linecap="butt" stroke-linejoin="miter" stroke="rgb(0%, 0%, 0%)" stroke-opacity="1" stroke-miterlimit="10" d="M 3.457681 -0.000165526 C 3.457681 0.901098 2.729586 1.629193 1.828322 1.629193 C 0.927058 1.629193 0.198963 0.901098 0.198963 -0.000165526 C 0.198963 -0.901429 0.927058 -1.629524 1.828322 -1.629524 C 2.729586 -1.629524 3.457681 -0.901429 3.457681 -0.000165526 Z M 3.457681 -0.000165526 " transform="matrix(0, -0.99253, -0.99253, 0, 139.640461, 24.111539)"/>
<path fill="none" stroke-width="0.3985" stroke-linecap="butt" stroke-linejoin="miter" stroke="rgb(0%, 0%, 0%)" stroke-opacity="1" stroke-miterlimit="10" d="M -63.917605 0.000707172 L -73.363164 0.000707172 M -63.917605 -13.494635 L -73.363164 -13.494635 " transform="matrix(0.99253, 0, 0, -0.99253, 125.572947, 92.797577)"/>
<g clip-path="url(#clip-1)">
<path fill="none" stroke-width="0.797" stroke-linecap="butt" stroke-linejoin="miter" stroke="rgb(0%, 0%, 0%)" stroke-opacity="1" stroke-miterlimit="10" d="M -63.917605 6.746411 L -44.196064 6.746411 C -36.74588 6.746411 -30.704657 0.705188 -30.704657 -6.744996 C -30.704657 -14.199117 -36.74588 -20.240339 -44.196064 -20.240339 L -63.917605 -20.240339 Z M -63.917605 6.746411 " transform="matrix(0.99253, 0, 0, -0.99253, 125.572947, 92.797577)"/>
</g>
<path fill="none" stroke-width="0.3985" stroke-linecap="butt" stroke-linejoin="miter" stroke="rgb(0%, 0%, 0%)" stroke-opacity="1" stroke-miterlimit="10" d="M -26.548611 -6.744996 L -21.259098 -6.744996 " transform="matrix(0.99253, 0, 0, -0.99253, 125.572947, 92.797577)"/>
<path fill-rule="nonzero" fill="rgb(100%, 100%, 100%)" fill-opacity="1" stroke-width="0.797" stroke-linecap="butt" stroke-linejoin="miter" stroke="rgb(0%, 0%, 0%)" stroke-opacity="1" stroke-miterlimit="10" d="M -26.548611 -6.744996 C -26.548611 -5.599722 -27.477425 -4.666973 -28.626634 -4.666973 C -29.775844 -4.666973 -30.704657 -5.599722 -30.704657 -6.744996 C -30.704657 -7.894206 -29.775844 -8.823019 -28.626634 -8.823019 C -27.477425 -8.823019 -26.548611 -7.894206 -26.548611 -6.744996 Z M -26.548611 -6.744996 " transform="matrix(0.99253, 0, 0, -0.99253, 125.572947, 92.797577)"/>
<path fill="none" stroke-width="0.3985" stroke-linecap="butt" stroke-linejoin="miter" stroke="rgb(0%, 0%, 0%)" stroke-opacity="1" stroke-miterlimit="10" d="M -21.259098 -6.744996 L -26.052719 -6.744996 " transform="matrix(0.99253, 0, 0, -0.99253, 125.572947, 92.797577)"/>
<g fill="rgb(0%, 0%, 0%)" fill-opacity="1">
<use xlink:href="#glyph-0-1" x="41.681341" y="109.568355"/>
</g>
<path fill="none" stroke-width="0.3985" stroke-linecap="butt" stroke-linejoin="miter" stroke="rgb(0%, 0%, 0%)" stroke-opacity="1" stroke-miterlimit="10" d="M -63.917605 84.361357 L -73.363164 84.361357 M -63.917605 70.866015 L -73.363164 70.866015 " transform="matrix(0.99253, 0, 0, -0.99253, 125.572947, 92.797577)"/>
<path fill="none" stroke-width="0.797" stroke-linecap="butt" stroke-linejoin="miter" stroke="rgb(0%, 0%, 0%)" stroke-opacity="1" stroke-miterlimit="10" d="M -63.917605 91.107061 L -44.196064 91.107061 C -36.74588 91.107061 -30.704657 85.065838 -30.704657 77.611718 C -30.704657 70.161533 -36.74588 64.120311 -44.196064 64.120311 L -63.917605 64.120311 Z M -63.917605 91.107061 " transform="matrix(0.99253, 0, 0, -0.99253, 125.572947, 92.797577)"/>
<path fill="none" stroke-width="0.3985" stroke-linecap="butt" stroke-linejoin="miter" stroke="rgb(0%, 0%, 0%)" stroke-opacity="1" stroke-miterlimit="10" d="M -26.548611 77.611718 L -21.259098 77.611718 " transform="matrix(0.99253, 0, 0, -0.99253, 125.572947, 92.797577)"/>
<path fill-rule="nonzero" fill="rgb(100%, 100%, 100%)" fill-opacity="1" stroke-width="0.797" stroke-linecap="butt" stroke-linejoin="miter" stroke="rgb(0%, 0%, 0%)" stroke-opacity="1" stroke-miterlimit="10" d="M -26.548611 77.611718 C -26.548611 78.760928 -27.477425 79.689741 -28.626634 79.689741 C -29.775844 79.689741 -30.704657 78.760928 -30.704657 77.611718 C -30.704657 76.466444 -29.775844 75.533695 -28.626634 75.533695 C -27.477425 75.533695 -26.548611 76.466444 -26.548611 77.611718 Z M -26.548611 77.611718 " transform="matrix(0.99253, 0, 0, -0.99253, 125.572947, 92.797577)"/>
<path fill="none" stroke-width="0.3985" stroke-linecap="butt" stroke-linejoin="miter" stroke="rgb(0%, 0%, 0%)" stroke-opacity="1" stroke-miterlimit="10" d="M -21.259098 77.611718 L -26.052719 77.611718 " transform="matrix(0.99253, 0, 0, -0.99253, 125.572947, 92.797577)"/>
<g fill="rgb(0%, 0%, 0%)" fill-opacity="1">
<use xlink:href="#glyph-0-2" x="42.632185" y="12.447318"/>
</g>
<path fill="none" stroke-width="0.3985" stroke-linecap="butt" stroke-linejoin="miter" stroke="rgb(0%, 0%, 0%)" stroke-opacity="1" stroke-miterlimit="10" d="M -73.363164 0.000707172 L -73.363164 70.866015 " transform="matrix(0.99253, 0, 0, -0.99253, 125.572947, 92.797577)"/>
<g fill="rgb(0%, 0%, 0%)" fill-opacity="1">
<use xlink:href="#glyph-0-3" x="5.970115" y="60.670376"/>
</g>
<path fill="none" stroke-width="0.3985" stroke-linecap="butt" stroke-linejoin="miter" stroke="rgb(0%, 0%, 0%)" stroke-opacity="1" stroke-miterlimit="10" d="M -113.388721 35.433361 L -74.827225 35.433361 " transform="matrix(0.99253, 0, 0, -0.99253, 125.572947, 92.797577)"/>
<path fill-rule="nonzero" fill="rgb(0%, 0%, 0%)" fill-opacity="1" stroke-width="0.3985" stroke-linecap="butt" stroke-linejoin="miter" stroke="rgb(0%, 0%, 0%)" stroke-opacity="1" stroke-miterlimit="10" d="M 3.458182 -0.000129127 C 3.458182 0.901135 2.726152 1.62923 1.828824 1.62923 C 0.92756 1.62923 0.199465 0.901135 0.199465 -0.000129127 C 0.199465 -0.901393 0.92756 -1.629488 1.828824 -1.629488 C 2.726152 -1.629488 3.458182 -0.901393 3.458182 -0.000129127 Z M 3.458182 -0.000129127 " transform="matrix(0.99253, 0, 0, -0.99253, 51.106713, 57.628778)"/>
</svg>
