<?xml version="1.0" encoding="UTF-8"?>
<svg xmlns="http://www.w3.org/2000/svg" xmlns:xlink="http://www.w3.org/1999/xlink" width="256.441pt" height="255.177pt" viewBox="0 0 256.441 255.177">
<defs>
<g>
<g id="glyph-0-0">
<path d="M 4.234375 -2.859375 C 4.234375 -3.453125 4.203125 -4.234375 3.890625 -4.890625 C 3.5 -5.734375 2.8125 -5.953125 2.296875 -5.953125 C 1.765625 -5.953125 1.078125 -5.734375 0.6875 -4.875 C 0.40625 -4.265625 0.359375 -3.546875 0.359375 -2.859375 C 0.359375 -2.28125 0.375 -1.40625 0.765625 -0.703125 C 1.1875 0.046875 1.875 0.203125 2.28125 0.203125 C 2.875 0.203125 3.53125 -0.046875 3.90625 -0.875 C 4.171875 -1.46875 4.234375 -2.140625 4.234375 -2.859375 Z M 2.296875 -0.03125 C 2.03125 -0.03125 1.390625 -0.15625 1.21875 -1.15625 C 1.125 -1.6875 1.125 -2.453125 1.125 -2.96875 C 1.125 -3.578125 1.125 -4.28125 1.234375 -4.765625 C 1.40625 -5.5625 1.984375 -5.734375 2.28125 -5.734375 C 2.625 -5.734375 3.1875 -5.546875 3.359375 -4.71875 C 3.453125 -4.234375 3.453125 -3.53125 3.453125 -2.96875 C 3.453125 -2.40625 3.453125 -1.65625 3.375 -1.140625 C 3.1875 -0.109375 2.515625 -0.03125 2.296875 -0.03125 Z M 2.296875 -0.03125 "/>
</g>
<g id="glyph-0-1">
<path d="M 0.921875 -3.078125 C 0.921875 -2.921875 0.921875 -2.828125 1.046875 -2.828125 C 1.125 -2.828125 1.15625 -2.859375 1.203125 -2.9375 C 1.46875 -3.3125 1.90625 -3.53125 2.375 -3.53125 C 3.328125 -3.53125 3.328125 -2.15625 3.328125 -1.828125 C 3.328125 -1.5625 3.328125 -1 3.078125 -0.59375 C 2.828125 -0.21875 2.453125 -0.046875 2.109375 -0.046875 C 1.578125 -0.046875 0.984375 -0.390625 0.765625 -1.046875 C 0.78125 -1.046875 0.828125 -1.03125 0.890625 -1.03125 C 1.078125 -1.03125 1.328125 -1.140625 1.328125 -1.46875 C 1.328125 -1.75 1.140625 -1.90625 0.890625 -1.90625 C 0.703125 -1.90625 0.453125 -1.796875 0.453125 -1.4375 C 0.453125 -0.625 1.140625 0.203125 2.125 0.203125 C 3.203125 0.203125 4.125 -0.671875 4.125 -1.78125 C 4.125 -2.875 3.359375 -3.75 2.390625 -3.75 C 1.953125 -3.75 1.515625 -3.609375 1.203125 -3.28125 L 1.203125 -5.046875 C 1.46875 -4.96875 1.75 -4.921875 2.03125 -4.921875 C 3.125 -4.921875 3.765625 -5.71875 3.765625 -5.84375 C 3.765625 -5.921875 3.71875 -5.953125 3.671875 -5.953125 C 3.65625 -5.953125 3.640625 -5.953125 3.5625 -5.90625 C 3.140625 -5.734375 2.71875 -5.671875 2.34375 -5.671875 C 1.96875 -5.671875 1.5625 -5.734375 1.15625 -5.90625 C 1.0625 -5.953125 1.046875 -5.953125 1.03125 -5.953125 C 0.921875 -5.953125 0.921875 -5.859375 0.921875 -5.71875 Z M 0.921875 -3.078125 "/>
</g>
<g id="glyph-0-2">
<path d="M 2.71875 -5.71875 C 2.71875 -5.9375 2.703125 -5.953125 2.484375 -5.953125 C 1.9375 -5.375 1.109375 -5.375 0.828125 -5.375 L 0.828125 -5.109375 C 1 -5.109375 1.546875 -5.109375 2.03125 -5.328125 L 2.03125 -0.71875 C 2.03125 -0.390625 2 -0.28125 1.171875 -0.28125 L 0.890625 -0.28125 L 0.890625 0 C 1.203125 -0.03125 2 -0.03125 2.375 -0.03125 C 2.734375 -0.03125 3.546875 -0.03125 3.859375 0 L 3.859375 -0.28125 L 3.578125 -0.28125 C 2.75 -0.28125 2.71875 -0.390625 2.71875 -0.71875 Z M 2.71875 -5.71875 "/>
</g>
<g id="glyph-0-3">
<path d="M 4.125 -1.578125 L 3.875 -1.578125 C 3.859375 -1.46875 3.796875 -0.9375 3.671875 -0.796875 C 3.625 -0.71875 3 -0.71875 2.828125 -0.71875 L 1.234375 -0.71875 L 2.125 -1.5625 C 3.578125 -2.828125 4.125 -3.296875 4.125 -4.203125 C 4.125 -5.234375 3.28125 -5.953125 2.1875 -5.953125 C 1.15625 -5.953125 0.453125 -5.140625 0.453125 -4.328125 C 0.453125 -3.875 0.84375 -3.828125 0.921875 -3.828125 C 1.125 -3.828125 1.390625 -3.984375 1.390625 -4.296875 C 1.390625 -4.5625 1.203125 -4.765625 0.921875 -4.765625 C 0.875 -4.765625 0.84375 -4.765625 0.8125 -4.75 C 1.03125 -5.390625 1.59375 -5.671875 2.078125 -5.671875 C 3 -5.671875 3.3125 -4.828125 3.3125 -4.203125 C 3.3125 -3.296875 2.625 -2.5625 2.1875 -2.09375 L 0.546875 -0.328125 C 0.453125 -0.21875 0.453125 -0.203125 0.453125 0 L 3.875 0 Z M 4.125 -1.578125 "/>
</g>
<g id="glyph-0-4">
<path d="M 2.71875 -3.140625 C 3.5625 -3.453125 3.953125 -4.109375 3.953125 -4.734375 C 3.953125 -5.421875 3.1875 -5.953125 2.265625 -5.953125 C 1.328125 -5.953125 0.640625 -5.421875 0.640625 -4.75 C 0.640625 -4.453125 0.828125 -4.28125 1.09375 -4.28125 C 1.34375 -4.28125 1.53125 -4.46875 1.53125 -4.734375 C 1.53125 -5.046875 1.328125 -5.171875 1.015625 -5.171875 C 1.25 -5.546875 1.796875 -5.734375 2.234375 -5.734375 C 2.96875 -5.734375 3.125 -5.140625 3.125 -4.71875 C 3.125 -4.453125 3.0625 -4.015625 2.84375 -3.6875 C 2.5625 -3.28125 2.25 -3.265625 2 -3.25 C 1.765625 -3.21875 1.75 -3.21875 1.6875 -3.21875 C 1.59375 -3.21875 1.53125 -3.203125 1.53125 -3.109375 C 1.53125 -3 1.59375 -3 1.75 -3 L 2.171875 -3 C 2.953125 -3 3.28125 -2.375 3.28125 -1.515625 C 3.28125 -0.375 2.6875 -0.046875 2.21875 -0.046875 C 2.0625 -0.046875 1.1875 -0.09375 0.78125 -0.765625 C 1.109375 -0.71875 1.359375 -0.9375 1.359375 -1.25 C 1.359375 -1.53125 1.140625 -1.71875 0.875 -1.71875 C 0.65625 -1.71875 0.390625 -1.59375 0.390625 -1.21875 C 0.390625 -0.421875 1.21875 0.203125 2.25 0.203125 C 3.375 0.203125 4.203125 -0.609375 4.203125 -1.515625 C 4.203125 -2.296875 3.578125 -2.953125 2.71875 -3.140625 Z M 2.71875 -3.140625 "/>
</g>
<g id="glyph-0-5">
<path d="M 0.265625 -1.75 L 0.265625 -1.46875 L 2.703125 -1.46875 L 2.703125 -0.703125 C 2.703125 -0.375 2.671875 -0.28125 2 -0.28125 L 1.8125 -0.28125 L 1.8125 0 C 2.375 -0.03125 3 -0.03125 3.0625 -0.03125 C 3.09375 -0.03125 3.75 -0.03125 4.3125 0 L 4.3125 -0.28125 L 4.109375 -0.28125 C 3.4375 -0.28125 3.421875 -0.375 3.421875 -0.703125 L 3.421875 -1.46875 L 4.328125 -1.46875 L 4.328125 -1.75 L 3.421875 -1.75 L 3.421875 -5.8125 C 3.421875 -5.984375 3.421875 -6.046875 3.25 -6.046875 C 3.140625 -6.046875 3.125 -6.046875 3.046875 -5.921875 Z M 0.546875 -1.75 L 2.75 -5.0625 L 2.75 -1.75 Z M 0.546875 -1.75 "/>
</g>
<g id="glyph-0-6">
<path d="M 6.328125 -2.953125 C 6.453125 -2.953125 6.625 -2.953125 6.625 -3.140625 C 6.625 -3.34375 6.421875 -3.34375 6.296875 -3.34375 L 0.84375 -3.34375 C 0.703125 -3.34375 0.515625 -3.34375 0.515625 -3.140625 C 0.515625 -2.953125 0.6875 -2.953125 0.796875 -2.953125 Z M 6.296875 -1.140625 C 6.421875 -1.140625 6.625 -1.140625 6.625 -1.328125 C 6.625 -1.515625 6.453125 -1.515625 6.328125 -1.515625 L 0.796875 -1.515625 C 0.6875 -1.515625 0.515625 -1.515625 0.515625 -1.328125 C 0.515625 -1.140625 0.703125 -1.140625 0.84375 -1.140625 Z M 6.296875 -1.140625 "/>
</g>
<g id="glyph-1-0">
<path d="M 1.75 -0.484375 C 1.75 -0.734375 1.546875 -0.96875 1.265625 -0.96875 C 0.984375 -0.96875 0.78125 -0.734375 0.78125 -0.484375 C 0.78125 -0.21875 0.984375 0 1.265625 0 C 1.546875 0 1.75 -0.21875 1.75 -0.484375 Z M 1.75 -0.484375 "/>
</g>
<g id="glyph-1-1">
<path d="M 3.5625 -1.1875 C 3.53125 -1.828125 3.390625 -2.46875 3.125 -3.0625 C 2.828125 -3.703125 2.40625 -3.953125 1.9375 -3.953125 C 0.796875 -3.953125 0.15625 -2.625 0.15625 -2.328125 C 0.15625 -2.21875 0.265625 -2.21875 0.28125 -2.21875 C 0.359375 -2.21875 0.390625 -2.25 0.40625 -2.3125 C 0.703125 -3.140625 1.53125 -3.28125 1.828125 -3.28125 C 3.265625 -3.28125 3.3125 -1.578125 3.3125 -1 C 3.3125 -0.46875 3.265625 -0.34375 3.21875 -0.21875 C 3 0.578125 2.75 1.5 2.75 1.734375 C 2.75 1.796875 2.75 1.9375 2.875 1.9375 C 2.9375 1.9375 3.015625 1.9375 3.171875 1.390625 C 3.40625 0.5625 3.46875 0.078125 3.515625 -0.28125 C 3.53125 -0.390625 4 -1.828125 4.8125 -3.4375 C 4.953125 -3.71875 4.953125 -3.734375 4.953125 -3.75 C 4.953125 -3.8125 4.921875 -3.859375 4.84375 -3.859375 C 4.828125 -3.859375 4.765625 -3.859375 4.734375 -3.796875 C 4.515625 -3.4375 4.3125 -2.96875 4.125 -2.546875 C 4.078125 -2.453125 3.828125 -1.90625 3.5625 -1.1875 Z M 3.5625 -1.1875 "/>
</g>
<g id="glyph-1-2">
<path d="M 1.90625 -3.578125 L 2.75 -3.578125 C 2.90625 -3.578125 3.015625 -3.578125 3.015625 -3.734375 C 3.015625 -3.859375 2.9375 -3.859375 2.765625 -3.859375 L 1.96875 -3.859375 L 2.34375 -5.328125 C 2.34375 -5.484375 2.21875 -5.59375 2.0625 -5.59375 C 1.78125 -5.59375 1.703125 -5.328125 1.6875 -5.25 L 1.328125 -3.859375 L 0.484375 -3.859375 C 0.328125 -3.859375 0.21875 -3.859375 0.21875 -3.6875 C 0.21875 -3.578125 0.3125 -3.578125 0.46875 -3.578125 L 1.265625 -3.578125 L 0.65625 -1.140625 C 0.59375 -0.875 0.59375 -0.859375 0.59375 -0.734375 C 0.59375 -0.203125 0.984375 0.09375 1.453125 0.09375 C 2.390625 0.09375 2.90625 -1.1875 2.90625 -1.28125 C 2.90625 -1.328125 2.890625 -1.390625 2.796875 -1.390625 C 2.703125 -1.390625 2.703125 -1.359375 2.640625 -1.203125 C 2.359375 -0.5625 1.90625 -0.125 1.46875 -0.125 C 1.296875 -0.125 1.1875 -0.234375 1.1875 -0.53125 C 1.1875 -0.734375 1.21875 -0.84375 1.25 -0.96875 Z M 1.90625 -3.578125 "/>
</g>
<g id="glyph-1-3">
<path d="M 4.015625 -6.34375 C 4.078125 -6.46875 4.078125 -6.484375 4.078125 -6.5 C 4.078125 -6.625 3.984375 -6.703125 3.890625 -6.703125 C 3.765625 -6.703125 3.734375 -6.625 3.71875 -6.609375 L 0.5625 1.875 C 0.515625 2 0.515625 2.015625 0.515625 2.03125 C 0.515625 2.15625 0.59375 2.234375 0.703125 2.234375 C 0.78125 2.234375 0.859375 2.203125 0.921875 2.015625 Z M 4.015625 -6.34375 "/>
</g>
<g id="glyph-2-0">
<path d="M 1.5625 -1.578125 C 1.75 -1.578125 2.296875 -1.59375 2.671875 -1.734375 C 3.1875 -1.90625 3.28125 -2.25 3.28125 -2.453125 C 3.28125 -2.84375 2.90625 -3.0625 2.421875 -3.0625 C 1.59375 -3.0625 0.46875 -2.421875 0.46875 -1.234375 C 0.46875 -0.53125 0.90625 0.0625 1.71875 0.0625 C 2.890625 0.0625 3.4375 -0.625 3.4375 -0.71875 C 3.4375 -0.765625 3.375 -0.828125 3.328125 -0.828125 C 3.28125 -0.828125 3.265625 -0.828125 3.21875 -0.765625 C 2.671875 -0.125 1.859375 -0.125 1.734375 -0.125 C 1.3125 -0.125 1.03125 -0.40625 1.03125 -0.96875 C 1.03125 -1.0625 1.03125 -1.203125 1.125 -1.578125 Z M 1.171875 -1.78125 C 1.453125 -2.78125 2.234375 -2.875 2.421875 -2.875 C 2.734375 -2.875 2.984375 -2.71875 2.984375 -2.453125 C 2.984375 -1.78125 1.8125 -1.78125 1.515625 -1.78125 Z M 1.171875 -1.78125 "/>
</g>
<g id="glyph-2-1">
<path d="M 3.71875 -2.53125 C 3.71875 -3.0625 3.390625 -3.078125 3.359375 -3.078125 C 3.1875 -3.078125 2.984375 -2.890625 2.984375 -2.703125 C 2.984375 -2.59375 3.0625 -2.53125 3.109375 -2.484375 C 3.21875 -2.390625 3.359375 -2.21875 3.359375 -1.9375 C 3.359375 -1.625 2.90625 -0.125 2.078125 -0.125 C 1.515625 -0.125 1.515625 -0.625 1.515625 -0.75 C 1.515625 -1.0625 1.640625 -1.453125 1.890625 -2.09375 C 1.953125 -2.25 2 -2.34375 2 -2.46875 C 2 -2.828125 1.6875 -3.0625 1.328125 -3.0625 C 0.640625 -3.0625 0.328125 -2.109375 0.328125 -2 C 0.328125 -1.90625 0.421875 -1.90625 0.4375 -1.90625 C 0.546875 -1.90625 0.546875 -1.953125 0.5625 -2.015625 C 0.734375 -2.59375 1.03125 -2.875 1.3125 -2.875 C 1.4375 -2.875 1.484375 -2.796875 1.484375 -2.625 C 1.484375 -2.46875 1.4375 -2.328125 1.359375 -2.15625 C 1.0625 -1.390625 0.984375 -1.09375 0.984375 -0.84375 C 0.984375 -0.15625 1.53125 0.0625 2.0625 0.0625 C 3.21875 0.0625 3.71875 -1.953125 3.71875 -2.53125 Z M 3.71875 -2.53125 "/>
</g>
<g id="glyph-2-2">
<path d="M 3.375 -4.203125 C 3.421875 -4.40625 3.4375 -4.421875 3.59375 -4.4375 C 3.625 -4.453125 3.875 -4.453125 4.015625 -4.453125 C 4.4375 -4.453125 4.609375 -4.453125 4.796875 -4.390625 C 5.109375 -4.296875 5.125 -4.09375 5.125 -3.84375 C 5.125 -3.734375 5.125 -3.640625 5.0625 -3.28125 L 5.0625 -3.203125 C 5.0625 -3.140625 5.109375 -3.09375 5.171875 -3.09375 C 5.28125 -3.09375 5.296875 -3.15625 5.3125 -3.28125 L 5.5 -4.609375 C 5.5 -4.703125 5.40625 -4.703125 5.28125 -4.703125 L 1.015625 -4.703125 C 0.828125 -4.703125 0.828125 -4.703125 0.765625 -4.546875 L 0.328125 -3.328125 C 0.328125 -3.296875 0.296875 -3.234375 0.296875 -3.203125 C 0.296875 -3.171875 0.3125 -3.09375 0.421875 -3.09375 C 0.5 -3.09375 0.515625 -3.140625 0.5625 -3.265625 C 0.96875 -4.375 1.203125 -4.453125 2.25 -4.453125 L 2.546875 -4.453125 C 2.75 -4.453125 2.765625 -4.4375 2.765625 -4.375 C 2.765625 -4.375 2.765625 -4.34375 2.734375 -4.234375 L 1.8125 -0.578125 C 1.75 -0.3125 1.734375 -0.25 1 -0.25 C 0.75 -0.25 0.6875 -0.25 0.6875 -0.09375 C 0.6875 -0.078125 0.703125 0 0.8125 0 C 1 0 1.203125 -0.015625 1.40625 -0.015625 C 1.59375 -0.015625 1.8125 -0.03125 2 -0.03125 C 2.203125 -0.03125 2.4375 -0.03125 2.625 -0.015625 C 2.8125 -0.015625 3.03125 0 3.21875 0 C 3.265625 0 3.375 0 3.375 -0.15625 C 3.375 -0.25 3.296875 -0.25 3.09375 -0.25 C 2.953125 -0.25 2.8125 -0.25 2.6875 -0.265625 C 2.453125 -0.28125 2.4375 -0.3125 2.4375 -0.390625 C 2.4375 -0.4375 2.4375 -0.453125 2.46875 -0.5625 Z M 3.375 -4.203125 "/>
</g>
<g id="glyph-2-3">
<path d="M 3.484375 -4.90625 C 3.53125 -5 3.53125 -5.015625 3.53125 -5.046875 C 3.53125 -5.15625 3.4375 -5.21875 3.359375 -5.21875 C 3.234375 -5.21875 3.203125 -5.125 3.171875 -5.046875 L 0.578125 1.4375 C 0.53125 1.515625 0.53125 1.53125 0.53125 1.5625 C 0.53125 1.671875 0.625 1.734375 0.703125 1.734375 C 0.828125 1.734375 0.859375 1.65625 0.890625 1.5625 Z M 3.484375 -4.90625 "/>
</g>
<g id="glyph-2-4">
<path d="M 3.015625 -0.5625 C 2.984375 -0.421875 2.921875 -0.1875 2.921875 -0.15625 C 2.921875 0 3.046875 0.0625 3.15625 0.0625 C 3.28125 0.0625 3.390625 -0.015625 3.421875 -0.078125 C 3.46875 -0.140625 3.515625 -0.375 3.546875 -0.515625 C 3.59375 -0.640625 3.671875 -0.96875 3.703125 -1.140625 C 3.75 -1.296875 3.796875 -1.453125 3.828125 -1.609375 C 3.90625 -1.90625 3.90625 -1.921875 4.046875 -2.140625 C 4.265625 -2.46875 4.609375 -2.875 5.15625 -2.875 C 5.546875 -2.875 5.5625 -2.546875 5.5625 -2.390625 C 5.5625 -1.96875 5.265625 -1.203125 5.15625 -0.90625 C 5.078125 -0.703125 5.046875 -0.640625 5.046875 -0.53125 C 5.046875 -0.15625 5.359375 0.0625 5.703125 0.0625 C 6.40625 0.0625 6.703125 -0.890625 6.703125 -1 C 6.703125 -1.078125 6.625 -1.078125 6.59375 -1.078125 C 6.5 -1.078125 6.5 -1.046875 6.46875 -0.96875 C 6.3125 -0.40625 6 -0.125 5.734375 -0.125 C 5.578125 -0.125 5.5625 -0.21875 5.5625 -0.375 C 5.5625 -0.53125 5.59375 -0.625 5.71875 -0.9375 C 5.796875 -1.140625 6.078125 -1.890625 6.078125 -2.28125 C 6.078125 -2.390625 6.078125 -2.671875 5.828125 -2.875 C 5.703125 -2.96875 5.5 -3.0625 5.1875 -3.0625 C 4.546875 -3.0625 4.171875 -2.65625 3.953125 -2.359375 C 3.890625 -2.953125 3.40625 -3.0625 3.046875 -3.0625 C 2.46875 -3.0625 2.078125 -2.71875 1.875 -2.4375 C 1.828125 -2.90625 1.40625 -3.0625 1.125 -3.0625 C 0.828125 -3.0625 0.671875 -2.84375 0.578125 -2.6875 C 0.421875 -2.4375 0.328125 -2.03125 0.328125 -2 C 0.328125 -1.90625 0.421875 -1.90625 0.4375 -1.90625 C 0.546875 -1.90625 0.546875 -1.9375 0.59375 -2.125 C 0.703125 -2.53125 0.828125 -2.875 1.109375 -2.875 C 1.28125 -2.875 1.328125 -2.71875 1.328125 -2.53125 C 1.328125 -2.40625 1.265625 -2.140625 1.21875 -1.953125 C 1.171875 -1.765625 1.109375 -1.484375 1.078125 -1.328125 L 0.84375 -0.4375 C 0.828125 -0.34375 0.78125 -0.171875 0.78125 -0.15625 C 0.78125 0 0.90625 0.0625 1.015625 0.0625 C 1.140625 0.0625 1.25 -0.015625 1.28125 -0.078125 C 1.328125 -0.140625 1.375 -0.375 1.40625 -0.515625 C 1.453125 -0.640625 1.515625 -0.96875 1.5625 -1.140625 C 1.609375 -1.296875 1.640625 -1.453125 1.6875 -1.609375 C 1.765625 -1.890625 1.765625 -1.953125 1.96875 -2.234375 C 2.171875 -2.515625 2.5 -2.875 3.015625 -2.875 C 3.421875 -2.875 3.421875 -2.515625 3.421875 -2.390625 C 3.421875 -2.21875 3.40625 -2.125 3.3125 -1.734375 Z M 3.015625 -0.5625 "/>
</g>
<g id="glyph-2-5">
<path d="M 3.109375 -0.96875 C 3.078125 -1.375 2.84375 -3.0625 1.703125 -3.0625 C 1.296875 -3.0625 0.9375 -2.84375 0.75 -2.65625 C 0.3125 -2.28125 0.234375 -1.828125 0.234375 -1.8125 C 0.234375 -1.734375 0.328125 -1.734375 0.34375 -1.734375 C 0.4375 -1.734375 0.4375 -1.75 0.484375 -1.84375 C 0.625 -2.265625 1.140625 -2.515625 1.609375 -2.515625 C 2.71875 -2.515625 2.875 -1.390625 2.875 -0.6875 C 2.875 -0.328125 2.84375 -0.25 2.828125 -0.1875 C 2.65625 0.34375 2.453125 1.109375 2.453125 1.328125 C 2.453125 1.390625 2.484375 1.484375 2.578125 1.484375 C 2.625 1.484375 2.703125 1.484375 2.8125 1.125 C 2.890625 0.859375 3.03125 0.34375 3.078125 -0.15625 C 3.109375 -0.40625 3.5 -1.34375 3.640625 -1.671875 C 3.734375 -1.890625 3.890625 -2.21875 4.21875 -2.828125 C 4.234375 -2.859375 4.25 -2.890625 4.25 -2.90625 C 4.25 -3 4.15625 -3 4.140625 -3 C 4.109375 -3 4.046875 -3 4.03125 -2.96875 C 3.953125 -2.8125 3.421875 -1.828125 3.109375 -0.96875 Z M 3.109375 -0.96875 "/>
</g>
<g id="glyph-3-0">
<path d="M 4.375 -1.109375 C 4.453125 -1.109375 4.59375 -1.109375 4.59375 -1.234375 C 4.59375 -1.375 4.453125 -1.375 4.375 -1.375 L 1.015625 -1.375 C 0.921875 -1.375 0.796875 -1.375 0.796875 -1.234375 C 0.796875 -1.109375 0.921875 -1.109375 1.015625 -1.109375 Z M 4.375 -1.109375 "/>
</g>
<g id="glyph-4-0">
<path d="M 1.5625 -1.921875 L 2.140625 -1.921875 C 2.25 -1.921875 2.25 -1.921875 2.28125 -1.9375 C 2.3125 -1.96875 2.328125 -2.03125 2.328125 -2.0625 C 2.328125 -2.140625 2.25 -2.140625 2.15625 -2.140625 L 1.609375 -2.140625 L 1.71875 -2.546875 C 1.75 -2.6875 1.8125 -2.90625 1.8125 -2.9375 C 1.8125 -3.015625 1.75 -3.109375 1.625 -3.109375 C 1.546875 -3.109375 1.421875 -3.0625 1.375 -2.921875 C 1.359375 -2.84375 1.421875 -3.078125 1.1875 -2.140625 L 0.59375 -2.140625 C 0.484375 -2.140625 0.421875 -2.140625 0.421875 -2 C 0.421875 -1.921875 0.484375 -1.921875 0.578125 -1.921875 L 1.125 -1.921875 L 0.828125 -0.75 C 0.8125 -0.640625 0.765625 -0.484375 0.765625 -0.421875 C 0.765625 -0.140625 1.03125 0.046875 1.375 0.046875 C 1.984375 0.046875 2.34375 -0.609375 2.34375 -0.71875 C 2.34375 -0.78125 2.265625 -0.78125 2.25 -0.78125 C 2.171875 -0.78125 2.15625 -0.765625 2.125 -0.703125 C 1.96875 -0.34375 1.65625 -0.109375 1.40625 -0.109375 C 1.234375 -0.109375 1.1875 -0.234375 1.1875 -0.375 C 1.1875 -0.453125 1.203125 -0.46875 1.203125 -0.515625 Z M 1.5625 -1.921875 "/>
</g>
<g id="glyph-4-1">
<path d="M 3 -3.484375 C 3.03125 -3.546875 3.03125 -3.578125 3.03125 -3.59375 C 3.03125 -3.65625 2.96875 -3.71875 2.890625 -3.71875 C 2.8125 -3.71875 2.78125 -3.671875 2.75 -3.609375 L 0.65625 1 C 0.625 1.0625 0.625 1.09375 0.625 1.109375 C 0.625 1.171875 0.6875 1.234375 0.765625 1.234375 C 0.84375 1.234375 0.875 1.1875 0.90625 1.125 Z M 3 -3.484375 "/>
</g>
<g id="glyph-4-2">
<path d="M 3.296875 -3.265625 C 3.3125 -3.328125 3.3125 -3.34375 3.3125 -3.359375 C 3.3125 -3.453125 3.234375 -3.453125 3.15625 -3.4375 L 2.546875 -3.40625 C 2.453125 -3.390625 2.453125 -3.390625 2.421875 -3.375 C 2.40625 -3.34375 2.390625 -3.28125 2.390625 -3.25 C 2.390625 -3.171875 2.46875 -3.171875 2.53125 -3.171875 C 2.546875 -3.171875 2.640625 -3.171875 2.703125 -3.15625 C 2.796875 -3.15625 2.8125 -3.140625 2.8125 -3.09375 C 2.8125 -3.078125 2.765625 -2.921875 2.75 -2.828125 L 2.515625 -1.890625 C 2.421875 -2.03125 2.234375 -2.203125 1.921875 -2.203125 C 1.21875 -2.203125 0.515625 -1.515625 0.515625 -0.8125 C 0.515625 -0.296875 0.890625 0.046875 1.390625 0.046875 C 1.796875 0.046875 2.109375 -0.234375 2.171875 -0.296875 C 2.265625 -0.046875 2.53125 0.046875 2.765625 0.046875 C 2.96875 0.046875 3.09375 -0.0625 3.203125 -0.21875 C 3.328125 -0.421875 3.40625 -0.6875 3.40625 -0.71875 C 3.40625 -0.78125 3.3125 -0.78125 3.296875 -0.78125 C 3.203125 -0.78125 3.203125 -0.75 3.171875 -0.671875 C 3.078125 -0.3125 2.953125 -0.109375 2.78125 -0.109375 C 2.640625 -0.109375 2.578125 -0.21875 2.578125 -0.375 C 2.578125 -0.4375 2.59375 -0.484375 2.609375 -0.53125 Z M 2.203125 -0.65625 C 2.1875 -0.59375 2.1875 -0.578125 2.09375 -0.484375 C 1.90625 -0.265625 1.65625 -0.109375 1.40625 -0.109375 C 1.234375 -0.109375 0.96875 -0.203125 0.96875 -0.625 C 0.96875 -0.84375 1.09375 -1.375 1.265625 -1.625 C 1.453125 -1.90625 1.703125 -2.03125 1.921875 -2.03125 C 2.140625 -2.03125 2.359375 -1.890625 2.4375 -1.59375 Z M 2.203125 -0.65625 "/>
</g>
<g id="glyph-4-3">
<path d="M 1.96875 -3.09375 C 1.96875 -3.21875 1.875 -3.3125 1.75 -3.3125 C 1.609375 -3.3125 1.453125 -3.1875 1.453125 -3.015625 C 1.453125 -2.875 1.5625 -2.796875 1.65625 -2.796875 C 1.828125 -2.796875 1.96875 -2.953125 1.96875 -3.09375 Z M 2.203125 -0.71875 C 2.203125 -0.78125 2.109375 -0.78125 2.09375 -0.78125 C 2.015625 -0.78125 2 -0.765625 1.984375 -0.671875 C 1.890625 -0.390625 1.671875 -0.109375 1.421875 -0.109375 C 1.3125 -0.109375 1.265625 -0.1875 1.265625 -0.296875 C 1.265625 -0.40625 1.296875 -0.46875 1.34375 -0.5625 C 1.375 -0.65625 1.421875 -0.75 1.4375 -0.828125 C 1.453125 -0.875 1.65625 -1.328125 1.71875 -1.515625 C 1.765625 -1.609375 1.796875 -1.671875 1.796875 -1.765625 C 1.796875 -2 1.5625 -2.203125 1.25 -2.203125 C 0.734375 -2.203125 0.453125 -1.5625 0.453125 -1.421875 C 0.453125 -1.359375 0.53125 -1.359375 0.5625 -1.359375 C 0.640625 -1.359375 0.640625 -1.375 0.671875 -1.453125 C 0.78125 -1.8125 1.015625 -2.03125 1.234375 -2.03125 C 1.328125 -2.03125 1.375 -1.96875 1.375 -1.84375 C 1.375 -1.8125 1.375 -1.75 1.34375 -1.65625 C 1.3125 -1.5625 1.09375 -1.03125 1.03125 -0.875 C 0.984375 -0.78125 0.984375 -0.78125 0.921875 -0.609375 C 0.890625 -0.53125 0.859375 -0.46875 0.859375 -0.375 C 0.859375 -0.125 1.109375 0.046875 1.40625 0.046875 C 1.921875 0.046875 2.203125 -0.59375 2.203125 -0.71875 Z M 2.203125 -0.71875 "/>
</g>
<g id="glyph-5-0">
<path d="M 3.609375 -3.953125 C 3.609375 -3.984375 3.625 -4.015625 3.625 -4.046875 C 3.625 -4.140625 3.5 -4.125 3.421875 -4.125 L 2.765625 -4.078125 C 2.65625 -4.0625 2.578125 -4.0625 2.578125 -3.921875 C 2.578125 -3.828125 2.65625 -3.828125 2.75 -3.828125 C 2.921875 -3.828125 2.96875 -3.8125 3.046875 -3.78125 C 3.046875 -3.703125 3.046875 -3.6875 3.03125 -3.609375 C 2.90625 -3.09375 2.796875 -2.703125 2.6875 -2.265625 C 2.59375 -2.40625 2.40625 -2.625 2.03125 -2.625 C 1.265625 -2.625 0.453125 -1.828125 0.453125 -0.953125 C 0.453125 -0.3125 0.90625 0.0625 1.40625 0.0625 C 1.796875 0.0625 2.140625 -0.21875 2.296875 -0.359375 C 2.40625 0.015625 2.796875 0.0625 2.9375 0.0625 C 3.15625 0.0625 3.296875 -0.0625 3.421875 -0.25 C 3.5625 -0.484375 3.65625 -0.828125 3.65625 -0.859375 C 3.65625 -0.875 3.640625 -0.9375 3.53125 -0.9375 C 3.453125 -0.9375 3.4375 -0.90625 3.40625 -0.796875 C 3.3125 -0.4375 3.1875 -0.140625 2.953125 -0.140625 C 2.75 -0.140625 2.734375 -0.34375 2.734375 -0.4375 C 2.734375 -0.515625 2.734375 -0.53125 2.765625 -0.640625 Z M 2.3125 -0.78125 C 2.28125 -0.671875 2.28125 -0.65625 2.203125 -0.578125 C 1.875 -0.203125 1.578125 -0.140625 1.421875 -0.140625 C 1.1875 -0.140625 0.953125 -0.296875 0.953125 -0.71875 C 0.953125 -0.96875 1.078125 -1.546875 1.265625 -1.890625 C 1.453125 -2.203125 1.75 -2.421875 2.03125 -2.421875 C 2.484375 -2.421875 2.59375 -1.953125 2.59375 -1.921875 L 2.578125 -1.828125 Z M 2.3125 -0.78125 "/>
</g>
<g id="glyph-6-0">
<path d="M -6.34375 -3 C -6.46875 -3.0625 -6.484375 -3.0625 -6.5 -3.0625 C -6.625 -3.0625 -6.703125 -2.96875 -6.703125 -2.875 C -6.703125 -2.75 -6.625 -2.703125 -6.609375 -2.703125 L -2.40625 -1.0625 C -2.28125 -1.015625 -2.265625 -1.015625 -2.25 -1.015625 C -2.21875 -1.015625 -2.203125 -1.015625 -2.078125 -1.0625 L 2 -2.640625 C 2.109375 -2.6875 2.21875 -2.734375 2.21875 -2.875 C 2.21875 -2.96875 2.140625 -3.0625 2.03125 -3.0625 C 2.015625 -3.0625 2 -3.0625 1.875 -3 L -2.234375 -1.40625 Z M -6.34375 -3 "/>
</g>
<g id="glyph-6-1">
<path d="M -2.078125 -2.5 C -2.203125 -2.5625 -2.21875 -2.5625 -2.234375 -2.5625 C -2.265625 -2.5625 -2.28125 -2.5625 -2.40625 -2.5 L -6.484375 -0.921875 C -6.65625 -0.859375 -6.703125 -0.796875 -6.703125 -0.703125 C -6.703125 -0.59375 -6.625 -0.515625 -6.5 -0.515625 C -6.484375 -0.515625 -6.46875 -0.515625 -6.34375 -0.5625 L -2.25 -2.15625 L 1.875 -0.5625 C 2 -0.515625 2.015625 -0.515625 2.03125 -0.515625 C 2.140625 -0.515625 2.21875 -0.59375 2.21875 -0.703125 C 2.21875 -0.796875 2.171875 -0.859375 2.015625 -0.921875 Z M -2.078125 -2.5 "/>
</g>
<g id="glyph-7-0">
<path d="M -3.296875 -4.296875 C -3.921875 -4.296875 -3.953125 -3.96875 -3.953125 -3.890625 C -3.953125 -3.671875 -3.71875 -3.4375 -3.515625 -3.4375 C -3.375 -3.4375 -3.3125 -3.515625 -3.25 -3.578125 C -3.03125 -3.8125 -2.75 -3.890625 -2.515625 -3.890625 C -2.125 -3.890625 -0.125 -3.328125 -0.125 -2.296875 C -0.125 -1.625 -0.75 -1.625 -0.90625 -1.625 C -1.296875 -1.625 -1.75 -1.75 -2.5625 -2.0625 C -2.9375 -2.203125 -3.03125 -2.25 -3.203125 -2.25 C -3.640625 -2.25 -3.953125 -1.90625 -3.953125 -1.46875 C -3.953125 -0.609375 -2.6875 -0.265625 -2.578125 -0.265625 C -2.5 -0.265625 -2.46875 -0.328125 -2.46875 -0.390625 C -2.46875 -0.484375 -2.515625 -0.484375 -2.640625 -0.53125 C -3.28125 -0.71875 -3.734375 -1.078125 -3.734375 -1.453125 C -3.734375 -1.625 -3.609375 -1.65625 -3.4375 -1.65625 C -3.28125 -1.65625 -3.125 -1.625 -2.90625 -1.546875 C -2.046875 -1.21875 -1.46875 -1.015625 -1.03125 -1.015625 C -0.1875 -1.015625 0.09375 -1.640625 0.09375 -2.265625 C 0.09375 -3.765625 -2.71875 -4.296875 -3.296875 -4.296875 Z M -3.296875 -4.296875 "/>
</g>
<g id="glyph-7-1">
<path d="M -3.578125 -1.90625 L -3.578125 -2.75 C -3.578125 -2.90625 -3.578125 -3.015625 -3.734375 -3.015625 C -3.859375 -3.015625 -3.859375 -2.9375 -3.859375 -2.765625 L -3.859375 -1.96875 L -5.328125 -2.34375 C -5.484375 -2.34375 -5.59375 -2.21875 -5.59375 -2.0625 C -5.59375 -1.78125 -5.328125 -1.703125 -5.25 -1.6875 L -3.859375 -1.328125 L -3.859375 -0.484375 C -3.859375 -0.328125 -3.859375 -0.21875 -3.6875 -0.21875 C -3.578125 -0.21875 -3.578125 -0.3125 -3.578125 -0.46875 L -3.578125 -1.265625 L -1.140625 -0.65625 C -0.875 -0.59375 -0.859375 -0.59375 -0.734375 -0.59375 C -0.203125 -0.59375 0.09375 -0.984375 0.09375 -1.453125 C 0.09375 -2.390625 -1.1875 -2.90625 -1.28125 -2.90625 C -1.328125 -2.90625 -1.390625 -2.890625 -1.390625 -2.796875 C -1.390625 -2.703125 -1.359375 -2.703125 -1.203125 -2.640625 C -0.5625 -2.359375 -0.125 -1.90625 -0.125 -1.46875 C -0.125 -1.296875 -0.234375 -1.1875 -0.53125 -1.1875 C -0.734375 -1.1875 -0.84375 -1.21875 -0.96875 -1.25 Z M -3.578125 -1.90625 "/>
</g>
<g id="glyph-7-2">
<path d="M -6.34375 -4.015625 C -6.46875 -4.078125 -6.484375 -4.078125 -6.5 -4.078125 C -6.625 -4.078125 -6.703125 -3.984375 -6.703125 -3.890625 C -6.703125 -3.765625 -6.625 -3.734375 -6.609375 -3.71875 L 1.875 -0.5625 C 2 -0.515625 2.015625 -0.515625 2.03125 -0.515625 C 2.15625 -0.515625 2.234375 -0.59375 2.234375 -0.703125 C 2.234375 -0.78125 2.203125 -0.859375 2.015625 -0.921875 Z M -6.34375 -4.015625 "/>
</g>
<g id="glyph-7-3">
<path d="M -5.4375 -3.921875 C -5.640625 -3.984375 -5.734375 -4 -5.75 -4.140625 C -5.78125 -4.21875 -5.78125 -4.5 -5.78125 -4.6875 C -5.78125 -5.71875 -5.71875 -6.03125 -5.015625 -6.03125 C -4.890625 -6.03125 -4.765625 -6.03125 -4.234375 -5.9375 L -4.171875 -5.9375 C -4.109375 -5.9375 -4.046875 -5.96875 -4.046875 -6.0625 C -4.046875 -6.171875 -4.125 -6.1875 -4.25 -6.203125 L -5.796875 -6.4375 C -5.84375 -6.4375 -5.90625 -6.453125 -5.921875 -6.453125 C -6.046875 -6.453125 -6.046875 -6.359375 -6.046875 -6.1875 L -6.046875 -1.109375 C -6.046875 -0.890625 -6.046875 -0.890625 -5.875 -0.828125 L -4.296875 -0.265625 C -4.1875 -0.234375 -4.171875 -0.234375 -4.15625 -0.234375 C -4.109375 -0.234375 -4.046875 -0.265625 -4.046875 -0.34375 C -4.046875 -0.453125 -4.09375 -0.46875 -4.25 -0.515625 C -5.65625 -1.015625 -5.78125 -1.28125 -5.78125 -2.578125 L -5.78125 -2.9375 C -5.78125 -3.1875 -5.75 -3.1875 -5.671875 -3.1875 C -5.625 -3.1875 -5.5625 -3.15625 -5.484375 -3.140625 L -0.703125 -1.953125 C -0.390625 -1.875 -0.28125 -1.84375 -0.28125 -0.890625 C -0.28125 -0.609375 -0.28125 -0.53125 -0.109375 -0.53125 C 0 -0.53125 0 -0.640625 0 -0.671875 C 0 -0.90625 -0.015625 -1.171875 -0.015625 -1.40625 C -0.015625 -1.65625 -0.03125 -1.921875 -0.03125 -2.171875 C -0.03125 -2.5625 -0.03125 -2.578125 -0.015625 -2.90625 C -0.015625 -3.03125 0 -3.625 0 -3.6875 C 0 -3.765625 0 -3.875 -0.15625 -3.875 C -0.28125 -3.875 -0.28125 -3.796875 -0.28125 -3.578125 C -0.28125 -3.359375 -0.28125 -3.25 -0.296875 -3 C -0.328125 -2.796875 -0.328125 -2.6875 -0.484375 -2.6875 C -0.53125 -2.6875 -0.59375 -2.703125 -0.65625 -2.71875 Z M -5.4375 -3.921875 "/>
</g>
<g id="glyph-7-4">
<path d="M -1.40625 -1.6875 C -1.828125 -1.78125 -2.46875 -1.953125 -2.546875 -1.96875 C -2.59375 -1.984375 -3.03125 -2.203125 -3.34375 -2.53125 C -3.578125 -2.78125 -3.734375 -3.125 -3.734375 -3.484375 C -3.734375 -3.953125 -3.25 -3.953125 -3.09375 -3.953125 C -3 -3.953125 -2.875 -3.953125 -2.4375 -3.859375 L -1.640625 -3.640625 C -0.484375 -3.359375 -0.203125 -3.28125 -0.15625 -3.28125 C -0.046875 -3.28125 0.09375 -3.375 0.09375 -3.5625 C 0.09375 -3.6875 0.015625 -3.828125 -0.09375 -3.890625 C -0.140625 -3.921875 -0.421875 -3.984375 -0.609375 -4.03125 L -1.40625 -4.234375 C -1.828125 -4.328125 -2.46875 -4.5 -2.546875 -4.515625 C -2.59375 -4.53125 -3.03125 -4.75 -3.34375 -5.078125 C -3.578125 -5.328125 -3.734375 -5.671875 -3.734375 -6.03125 C -3.734375 -6.5 -3.25 -6.5 -3.09375 -6.5 C -2.5625 -6.5 -1.46875 -6.09375 -1.1875 -5.984375 C -0.90625 -5.875 -0.828125 -5.84375 -0.65625 -5.84375 C -0.171875 -5.84375 0.09375 -6.21875 0.09375 -6.609375 C 0.09375 -7.46875 -1.1875 -7.828125 -1.28125 -7.828125 C -1.328125 -7.828125 -1.390625 -7.796875 -1.390625 -7.703125 C -1.390625 -7.609375 -1.34375 -7.59375 -1.21875 -7.5625 C -0.46875 -7.34375 -0.125 -6.96875 -0.125 -6.640625 C -0.125 -6.578125 -0.125 -6.421875 -0.40625 -6.421875 C -0.640625 -6.421875 -0.859375 -6.5 -1.0625 -6.578125 C -1.515625 -6.75 -2.46875 -7.109375 -2.96875 -7.109375 C -3.765625 -7.109375 -3.953125 -6.53125 -3.953125 -6.046875 C -3.953125 -5.203125 -3.3125 -4.734375 -3.09375 -4.578125 C -3.828125 -4.484375 -3.953125 -3.875 -3.953125 -3.5 C -3.953125 -2.671875 -3.359375 -2.234375 -3.171875 -2.09375 C -3.65625 -2.03125 -3.953125 -1.671875 -3.953125 -1.21875 C -3.953125 -0.84375 -3.671875 -0.65625 -3.4375 -0.53125 C -3.125 -0.390625 -2.609375 -0.265625 -2.578125 -0.265625 C -2.5 -0.265625 -2.46875 -0.328125 -2.46875 -0.390625 C -2.46875 -0.484375 -2.515625 -0.5 -2.6875 -0.546875 C -3.390625 -0.71875 -3.734375 -0.90625 -3.734375 -1.203125 C -3.734375 -1.46875 -3.4375 -1.46875 -3.3125 -1.46875 C -3.125 -1.46875 -2.84375 -1.40625 -2.609375 -1.34375 C -2.375 -1.28125 -2 -1.203125 -1.890625 -1.15625 L -0.421875 -0.796875 C -0.203125 -0.734375 -0.1875 -0.734375 -0.15625 -0.734375 C -0.046875 -0.734375 0.09375 -0.828125 0.09375 -1.015625 C 0.09375 -1.140625 0.015625 -1.28125 -0.09375 -1.34375 C -0.140625 -1.375 -0.421875 -1.4375 -0.609375 -1.484375 Z M -1.40625 -1.6875 "/>
</g>
<g id="glyph-8-0">
<path d="M -3.71875 -2.078125 C -3.859375 -2.078125 -3.953125 -1.96875 -3.953125 -1.828125 C -3.953125 -1.671875 -3.796875 -1.5 -3.625 -1.5 C -3.484375 -1.5 -3.390625 -1.59375 -3.390625 -1.734375 C -3.390625 -1.921875 -3.5625 -2.078125 -3.71875 -2.078125 Z M -1.640625 -1.71875 C -1.703125 -1.734375 -1.84375 -1.796875 -1.890625 -1.8125 C -1.953125 -1.828125 -2 -1.859375 -2.109375 -1.859375 C -2.4375 -1.859375 -2.625 -1.5625 -2.625 -1.265625 C -2.625 -0.65625 -1.84375 -0.359375 -1.703125 -0.359375 C -1.671875 -0.359375 -1.625 -0.390625 -1.625 -0.46875 C -1.625 -0.546875 -1.65625 -0.578125 -1.71875 -0.59375 C -2.296875 -0.75 -2.421875 -1.078125 -2.421875 -1.234375 C -2.421875 -1.359375 -2.34375 -1.40625 -2.21875 -1.40625 C -2.09375 -1.40625 -2 -1.359375 -1.96875 -1.34375 L -1.203125 -1.046875 C -1.03125 -0.96875 -1.015625 -0.96875 -0.8125 -0.890625 C -0.640625 -0.8125 -0.5625 -0.78125 -0.453125 -0.78125 C -0.15625 -0.78125 0.0625 -1.0625 0.0625 -1.390625 C 0.0625 -1.984375 -0.71875 -2.28125 -0.859375 -2.28125 C -0.875 -2.28125 -0.9375 -2.28125 -0.9375 -2.171875 C -0.9375 -2.09375 -0.90625 -2.078125 -0.796875 -2.046875 C -0.5 -1.953125 -0.140625 -1.703125 -0.140625 -1.40625 C -0.140625 -1.296875 -0.203125 -1.25 -0.34375 -1.25 C -0.46875 -1.25 -0.5625 -1.28125 -0.75 -1.359375 Z M -1.640625 -1.71875 "/>
</g>
<g id="glyph-9-0">
<path d="M 2.125 -3.046875 C 2.078125 -3.046875 2.0625 -3.015625 2 -2.96875 C 0.9375 -1.8125 -0.671875 -1.46875 -2.234375 -1.46875 C -3.625 -1.46875 -5.296875 -1.734375 -6.5 -3 C -6.53125 -3.03125 -6.5625 -3.046875 -6.609375 -3.046875 C -6.671875 -3.046875 -6.703125 -3 -6.703125 -2.9375 C -6.703125 -2.828125 -6.0625 -2.03125 -5.078125 -1.546875 C -4.234375 -1.125 -3.3125 -0.90625 -2.25 -0.90625 C -1.59375 -0.90625 -0.578125 -0.984375 0.46875 -1.46875 C 1.578125 -2 2.21875 -2.828125 2.21875 -2.9375 C 2.21875 -3 2.1875 -3.046875 2.125 -3.046875 Z M 2.125 -3.046875 "/>
</g>
<g id="glyph-9-1">
<path d="M -2.25 -2.65625 C -2.96875 -2.65625 -3.953125 -2.5625 -4.953125 -2.09375 C -6.046875 -1.5625 -6.703125 -0.734375 -6.703125 -0.625 C -6.703125 -0.53125 -6.625 -0.515625 -6.609375 -0.515625 C -6.5625 -0.515625 -6.53125 -0.53125 -6.46875 -0.59375 C -6 -1.125 -4.796875 -2.09375 -2.25 -2.09375 C -0.96875 -2.09375 0.8125 -1.875 2.015625 -0.578125 C 2.046875 -0.546875 2.078125 -0.515625 2.125 -0.515625 C 2.15625 -0.515625 2.21875 -0.53125 2.21875 -0.625 C 2.21875 -0.734375 1.578125 -1.53125 0.609375 -2.015625 C -0.25 -2.453125 -1.171875 -2.65625 -2.25 -2.65625 Z M -2.25 -2.65625 "/>
</g>
<g id="glyph-9-2">
<path d="M -2.859375 -4.234375 C -3.453125 -4.234375 -4.234375 -4.203125 -4.890625 -3.890625 C -5.734375 -3.5 -5.953125 -2.8125 -5.953125 -2.296875 C -5.953125 -1.765625 -5.734375 -1.078125 -4.875 -0.6875 C -4.265625 -0.40625 -3.546875 -0.359375 -2.859375 -0.359375 C -2.28125 -0.359375 -1.40625 -0.375 -0.703125 -0.765625 C 0.046875 -1.1875 0.203125 -1.875 0.203125 -2.28125 C 0.203125 -2.875 -0.046875 -3.53125 -0.875 -3.90625 C -1.46875 -4.171875 -2.140625 -4.234375 -2.859375 -4.234375 Z M -0.03125 -2.296875 C -0.03125 -2.03125 -0.15625 -1.390625 -1.15625 -1.21875 C -1.6875 -1.125 -2.453125 -1.125 -2.96875 -1.125 C -3.578125 -1.125 -4.28125 -1.125 -4.765625 -1.234375 C -5.5625 -1.40625 -5.734375 -1.984375 -5.734375 -2.28125 C -5.734375 -2.625 -5.546875 -3.1875 -4.71875 -3.359375 C -4.234375 -3.453125 -3.53125 -3.453125 -2.96875 -3.453125 C -2.40625 -3.453125 -1.65625 -3.453125 -1.140625 -3.375 C -0.109375 -3.1875 -0.03125 -2.515625 -0.03125 -2.296875 Z M -0.03125 -2.296875 "/>
</g>
<g id="glyph-10-0">
<path d="M 2.921875 -0.953125 L 2.71875 -0.953125 C 2.703125 -0.859375 2.65625 -0.5625 2.578125 -0.5 C 2.53125 -0.484375 2.109375 -0.484375 2.046875 -0.484375 L 1.0625 -0.484375 C 1.390625 -0.71875 1.765625 -1 2.0625 -1.203125 C 2.515625 -1.5 2.921875 -1.796875 2.921875 -2.328125 C 2.921875 -2.953125 2.328125 -3.3125 1.609375 -3.3125 C 0.9375 -3.3125 0.453125 -2.921875 0.453125 -2.4375 C 0.453125 -2.171875 0.671875 -2.125 0.734375 -2.125 C 0.875 -2.125 1.03125 -2.21875 1.03125 -2.421875 C 1.03125 -2.609375 0.90625 -2.703125 0.75 -2.71875 C 0.890625 -2.9375 1.171875 -3.09375 1.515625 -3.09375 C 2 -3.09375 2.390625 -2.796875 2.390625 -2.3125 C 2.390625 -1.890625 2.109375 -1.578125 1.71875 -1.25 L 0.515625 -0.234375 C 0.46875 -0.1875 0.453125 -0.1875 0.453125 -0.15625 L 0.453125 0 L 2.765625 0 Z M 2.921875 -0.953125 "/>
</g>
<g id="glyph-11-0">
<path d="M 2.46875 -5.21875 C 1.140625 -4.28125 0.796875 -2.8125 0.796875 -1.75 C 0.796875 -0.765625 1.09375 0.765625 2.46875 1.734375 C 2.53125 1.734375 2.609375 1.734375 2.609375 1.640625 C 2.609375 1.609375 2.59375 1.59375 2.53125 1.546875 C 1.609375 0.703125 1.265625 -0.46875 1.265625 -1.734375 C 1.265625 -3.609375 1.984375 -4.53125 2.5625 -5.046875 C 2.59375 -5.078125 2.609375 -5.09375 2.609375 -5.125 C 2.609375 -5.21875 2.53125 -5.21875 2.46875 -5.21875 Z M 2.46875 -5.21875 "/>
</g>
<g id="glyph-11-1">
<path d="M 3.59375 -2.21875 C 3.59375 -2.984375 3.5 -3.53125 3.171875 -4.015625 C 2.96875 -4.34375 2.53125 -4.609375 1.96875 -4.609375 C 0.359375 -4.609375 0.359375 -2.71875 0.359375 -2.21875 C 0.359375 -1.71875 0.359375 0.140625 1.96875 0.140625 C 3.59375 0.140625 3.59375 -1.71875 3.59375 -2.21875 Z M 1.96875 -0.0625 C 1.65625 -0.0625 1.234375 -0.25 1.09375 -0.8125 C 1 -1.21875 1 -1.796875 1 -2.3125 C 1 -2.8125 1 -3.34375 1.09375 -3.734375 C 1.25 -4.28125 1.6875 -4.421875 1.96875 -4.421875 C 2.34375 -4.421875 2.71875 -4.1875 2.84375 -3.796875 C 2.953125 -3.40625 2.953125 -2.90625 2.953125 -2.3125 C 2.953125 -1.796875 2.953125 -1.28125 2.859375 -0.84375 C 2.71875 -0.203125 2.25 -0.0625 1.96875 -0.0625 Z M 1.96875 -0.0625 "/>
</g>
<g id="glyph-11-2">
<path d="M 0.625 -5.21875 C 0.578125 -5.21875 0.5 -5.21875 0.5 -5.125 C 0.5 -5.09375 0.515625 -5.078125 0.5625 -5.03125 C 1.15625 -4.484375 1.828125 -3.546875 1.828125 -1.75 C 1.828125 -0.296875 1.375 0.8125 0.625 1.484375 C 0.5 1.609375 0.5 1.609375 0.5 1.640625 C 0.5 1.6875 0.515625 1.734375 0.578125 1.734375 C 0.671875 1.734375 1.328125 1.265625 1.78125 0.40625 C 2.09375 -0.171875 2.296875 -0.921875 2.296875 -1.734375 C 2.296875 -2.71875 2 -4.234375 0.625 -5.21875 Z M 0.625 -5.21875 "/>
</g>
<g id="glyph-11-3">
<path d="M 5.34375 -2.34375 C 5.4375 -2.34375 5.609375 -2.34375 5.609375 -2.515625 C 5.609375 -2.671875 5.4375 -2.671875 5.34375 -2.671875 L 0.75 -2.671875 C 0.65625 -2.671875 0.484375 -2.671875 0.484375 -2.515625 C 0.484375 -2.34375 0.640625 -2.34375 0.75 -2.34375 Z M 5.34375 -0.8125 C 5.4375 -0.8125 5.609375 -0.8125 5.609375 -0.96875 C 5.609375 -1.140625 5.4375 -1.140625 5.34375 -1.140625 L 0.75 -1.140625 C 0.640625 -1.140625 0.484375 -1.140625 0.484375 -0.96875 C 0.484375 -0.8125 0.65625 -0.8125 0.75 -0.8125 Z M 5.34375 -0.8125 "/>
</g>
<g id="glyph-11-4">
<path d="M 1.890625 -2.328125 C 2.4375 -2.328125 2.828125 -1.953125 2.828125 -1.203125 C 2.828125 -0.34375 2.328125 -0.078125 1.921875 -0.078125 C 1.640625 -0.078125 1.03125 -0.15625 0.75 -0.5625 C 1.078125 -0.578125 1.140625 -0.8125 1.140625 -0.953125 C 1.140625 -1.1875 0.984375 -1.34375 0.765625 -1.34375 C 0.5625 -1.34375 0.375 -1.21875 0.375 -0.9375 C 0.375 -0.28125 1.09375 0.140625 1.9375 0.140625 C 2.90625 0.140625 3.578125 -0.5 3.578125 -1.203125 C 3.578125 -1.75 3.125 -2.28125 2.359375 -2.453125 C 3.09375 -2.71875 3.359375 -3.234375 3.359375 -3.65625 C 3.359375 -4.203125 2.71875 -4.609375 1.953125 -4.609375 C 1.1875 -4.609375 0.59375 -4.234375 0.59375 -3.6875 C 0.59375 -3.453125 0.75 -3.3125 0.953125 -3.3125 C 1.171875 -3.3125 1.3125 -3.484375 1.3125 -3.671875 C 1.3125 -3.875 1.171875 -4.015625 0.953125 -4.03125 C 1.203125 -4.34375 1.671875 -4.421875 1.9375 -4.421875 C 2.25 -4.421875 2.6875 -4.265625 2.6875 -3.65625 C 2.6875 -3.359375 2.59375 -3.046875 2.40625 -2.828125 C 2.171875 -2.5625 1.984375 -2.546875 1.640625 -2.53125 C 1.453125 -2.515625 1.453125 -2.515625 1.40625 -2.515625 C 1.390625 -2.515625 1.34375 -2.5 1.34375 -2.421875 C 1.34375 -2.328125 1.40625 -2.328125 1.515625 -2.328125 Z M 1.890625 -2.328125 "/>
</g>
<g id="glyph-11-5">
<path d="M 3.578125 -2.109375 C 3.578125 -2.71875 3.28125 -3.0625 2.53125 -3.0625 C 1.921875 -3.0625 1.578125 -2.703125 1.421875 -2.4375 L 1.421875 -4.828125 L 0.375 -4.75 L 0.375 -4.5 C 0.84375 -4.5 0.890625 -4.453125 0.890625 -4.109375 L 0.890625 -0.546875 C 0.890625 -0.25 0.828125 -0.25 0.375 -0.25 L 0.375 0 C 0.390625 0 0.875 -0.03125 1.171875 -0.03125 C 1.421875 -0.03125 1.90625 0 1.96875 0 L 1.96875 -0.25 C 1.515625 -0.25 1.453125 -0.25 1.453125 -0.546875 L 1.453125 -1.796875 C 1.453125 -2.53125 2.015625 -2.875 2.484375 -2.875 C 2.96875 -2.875 3.03125 -2.484375 3.03125 -2.140625 L 3.03125 -0.546875 C 3.03125 -0.25 2.96875 -0.25 2.515625 -0.25 L 2.515625 0 C 2.53125 0 3.015625 -0.03125 3.296875 -0.03125 C 3.5625 -0.03125 4.046875 0 4.109375 0 L 4.109375 -0.25 C 3.65625 -0.25 3.578125 -0.25 3.578125 -0.546875 Z M 3.578125 -2.109375 "/>
</g>
<g id="glyph-11-6">
<path d="M 3.671875 -1.484375 C 3.671875 -2.34375 2.9375 -3.09375 1.96875 -3.09375 C 1.015625 -3.09375 0.265625 -2.34375 0.265625 -1.484375 C 0.265625 -0.625 1.03125 0.0625 1.96875 0.0625 C 2.90625 0.0625 3.671875 -0.625 3.671875 -1.484375 Z M 1.96875 -0.15625 C 1.71875 -0.15625 1.34375 -0.234375 1.109375 -0.578125 C 0.921875 -0.859375 0.90625 -1.21875 0.90625 -1.546875 C 0.90625 -1.84375 0.90625 -2.25 1.15625 -2.546875 C 1.328125 -2.75 1.625 -2.90625 1.96875 -2.90625 C 2.390625 -2.90625 2.671875 -2.71875 2.828125 -2.5 C 3.03125 -2.21875 3.046875 -1.875 3.046875 -1.546875 C 3.046875 -1.203125 3.03125 -0.84375 2.828125 -0.5625 C 2.640625 -0.296875 2.3125 -0.15625 1.96875 -0.15625 Z M 1.96875 -0.15625 "/>
</g>
<g id="glyph-11-7">
<path d="M 1.390625 -2.75 L 2.484375 -2.75 L 2.484375 -3 L 1.390625 -3 L 1.390625 -4.28125 L 1.15625 -4.28125 C 1.15625 -3.65625 0.875 -2.96875 0.203125 -2.9375 L 0.203125 -2.75 L 0.84375 -2.75 L 0.84375 -0.875 C 0.84375 -0.09375 1.4375 0.0625 1.828125 0.0625 C 2.28125 0.0625 2.609375 -0.328125 2.609375 -0.875 L 2.609375 -1.265625 L 2.375 -1.265625 L 2.375 -0.890625 C 2.375 -0.40625 2.15625 -0.15625 1.875 -0.15625 C 1.390625 -0.15625 1.390625 -0.734375 1.390625 -0.859375 Z M 1.390625 -2.75 "/>
</g>
<g id="glyph-11-8">
<path d="M 2.640625 -2.921875 C 2.640625 -3.03125 2.640625 -3.09375 2.53125 -3.09375 C 2.5 -3.09375 2.484375 -3.09375 2.40625 -3.015625 C 2.390625 -3.015625 2.3125 -2.953125 2.28125 -2.90625 C 2.0625 -3.0625 1.796875 -3.09375 1.546875 -3.09375 C 0.546875 -3.09375 0.3125 -2.578125 0.3125 -2.234375 C 0.3125 -2.015625 0.40625 -1.828125 0.578125 -1.6875 C 0.84375 -1.453125 1.109375 -1.40625 1.53125 -1.34375 C 1.890625 -1.28125 2.453125 -1.1875 2.453125 -0.71875 C 2.453125 -0.4375 2.265625 -0.125 1.59375 -0.125 C 0.921875 -0.125 0.6875 -0.5625 0.5625 -1.03125 C 0.53125 -1.125 0.53125 -1.15625 0.4375 -1.15625 C 0.3125 -1.15625 0.3125 -1.109375 0.3125 -0.96875 L 0.3125 -0.109375 C 0.3125 0 0.3125 0.0625 0.40625 0.0625 C 0.46875 0.0625 0.609375 -0.078125 0.75 -0.234375 C 1.046875 0.0625 1.421875 0.0625 1.59375 0.0625 C 2.5 0.0625 2.828125 -0.421875 2.828125 -0.90625 C 2.828125 -1.171875 2.71875 -1.390625 2.53125 -1.546875 C 2.265625 -1.796875 1.953125 -1.84375 1.703125 -1.890625 C 1.140625 -1.984375 0.703125 -2.078125 0.703125 -2.4375 C 0.703125 -2.65625 0.890625 -2.9375 1.546875 -2.9375 C 2.34375 -2.9375 2.390625 -2.375 2.40625 -2.171875 C 2.40625 -2.09375 2.484375 -2.09375 2.515625 -2.09375 C 2.640625 -2.09375 2.640625 -2.140625 2.640625 -2.28125 Z M 2.640625 -2.921875 "/>
</g>
<g id="glyph-11-9">
<path d="M 3.09375 -1.859375 C 3.09375 -2.234375 3.09375 -2.5 2.78125 -2.75 C 2.5 -2.984375 2.15625 -3.09375 1.75 -3.09375 C 1.09375 -3.09375 0.625 -2.84375 0.625 -2.421875 C 0.625 -2.203125 0.78125 -2.09375 0.953125 -2.09375 C 1.140625 -2.09375 1.28125 -2.21875 1.28125 -2.40625 C 1.28125 -2.53125 1.234375 -2.671875 1.046875 -2.734375 C 1.296875 -2.90625 1.703125 -2.90625 1.734375 -2.90625 C 2.125 -2.90625 2.546875 -2.65625 2.546875 -2.0625 L 2.546875 -1.84375 C 2.171875 -1.828125 1.703125 -1.8125 1.203125 -1.625 C 0.578125 -1.390625 0.375 -1.015625 0.375 -0.703125 C 0.375 -0.109375 1.109375 0.0625 1.59375 0.0625 C 2.15625 0.0625 2.484375 -0.25 2.625 -0.515625 C 2.65625 -0.234375 2.84375 0.03125 3.15625 0.03125 C 3.171875 0.03125 3.859375 0.03125 3.859375 -0.625 L 3.859375 -1.015625 L 3.609375 -1.015625 L 3.609375 -0.625 C 3.609375 -0.5625 3.609375 -0.234375 3.359375 -0.234375 C 3.09375 -0.234375 3.09375 -0.5625 3.09375 -0.640625 Z M 2.546875 -0.984375 C 2.546875 -0.3125 1.96875 -0.125 1.65625 -0.125 C 1.296875 -0.125 0.96875 -0.359375 0.96875 -0.703125 C 0.96875 -1.078125 1.296875 -1.625 2.546875 -1.671875 Z M 2.546875 -0.984375 "/>
</g>
<g id="glyph-11-10">
<path d="M 1.390625 -1.578125 C 1.390625 -2.171875 1.65625 -2.875 2.3125 -2.875 C 2.25 -2.828125 2.203125 -2.734375 2.203125 -2.625 C 2.203125 -2.390625 2.375 -2.296875 2.515625 -2.296875 C 2.671875 -2.296875 2.828125 -2.40625 2.828125 -2.625 C 2.828125 -2.859375 2.609375 -3.0625 2.28125 -3.0625 C 1.9375 -3.0625 1.546875 -2.84375 1.34375 -2.328125 L 1.328125 -2.328125 L 1.328125 -3.0625 L 0.34375 -2.984375 L 0.34375 -2.734375 C 0.8125 -2.734375 0.859375 -2.6875 0.859375 -2.34375 L 0.859375 -0.546875 C 0.859375 -0.25 0.796875 -0.25 0.34375 -0.25 L 0.34375 0 C 0.375 0 0.84375 -0.03125 1.140625 -0.03125 C 1.4375 -0.03125 1.734375 -0.015625 2.03125 0 L 2.03125 -0.25 L 1.890625 -0.25 C 1.390625 -0.25 1.390625 -0.328125 1.390625 -0.5625 Z M 1.390625 -1.578125 "/>
</g>
<g id="glyph-11-11">
<path d="M 2.703125 -2.78125 C 2.578125 -2.71875 2.515625 -2.609375 2.515625 -2.46875 C 2.515625 -2.28125 2.640625 -2.140625 2.84375 -2.140625 C 3.03125 -2.140625 3.171875 -2.265625 3.171875 -2.484375 C 3.171875 -3.09375 2.203125 -3.09375 2.015625 -3.09375 C 0.96875 -3.09375 0.3125 -2.296875 0.3125 -1.5 C 0.3125 -0.625 1.0625 0.0625 1.96875 0.0625 C 3.015625 0.0625 3.25 -0.75 3.25 -0.828125 C 3.25 -0.921875 3.15625 -0.921875 3.140625 -0.921875 C 3.046875 -0.921875 3.03125 -0.890625 3 -0.796875 C 2.84375 -0.375 2.484375 -0.15625 2.0625 -0.15625 C 1.578125 -0.15625 0.953125 -0.5 0.953125 -1.515625 C 0.953125 -2.390625 1.390625 -2.875 2.03125 -2.875 C 2.125 -2.875 2.453125 -2.875 2.703125 -2.78125 Z M 2.703125 -2.78125 "/>
</g>
<g id="glyph-11-12">
<path d="M 1.4375 -4.828125 L 0.390625 -4.75 L 0.390625 -4.5 C 0.859375 -4.5 0.90625 -4.453125 0.90625 -4.109375 L 0.90625 -0.546875 C 0.90625 -0.25 0.84375 -0.25 0.390625 -0.25 L 0.390625 0 C 0.40625 0 0.890625 -0.03125 1.171875 -0.03125 C 1.4375 -0.03125 1.6875 -0.015625 1.953125 0 L 1.953125 -0.25 C 1.5 -0.25 1.4375 -0.25 1.4375 -0.546875 Z M 1.4375 -4.828125 "/>
</g>
<g id="glyph-11-13">
<path d="M 2.46875 -4.75 L 2.46875 -4.5 C 2.9375 -4.5 3 -4.453125 3 -4.109375 L 3 -2.671875 C 2.734375 -2.921875 2.40625 -3.0625 2.015625 -3.0625 C 1.09375 -3.0625 0.3125 -2.375 0.3125 -1.5 C 0.3125 -0.625 1.0625 0.0625 1.9375 0.0625 C 2.515625 0.0625 2.84375 -0.234375 2.96875 -0.359375 L 2.96875 0.0625 L 4.046875 0 L 4.046875 -0.25 C 3.578125 -0.25 3.515625 -0.296875 3.515625 -0.640625 L 3.515625 -4.828125 Z M 2.96875 -0.734375 C 2.78125 -0.40625 2.4375 -0.125 1.984375 -0.125 C 1.59375 -0.125 1.3125 -0.359375 1.171875 -0.5625 C 1.03125 -0.765625 0.953125 -1.046875 0.953125 -1.484375 C 0.953125 -1.640625 0.953125 -2.171875 1.234375 -2.5 C 1.515625 -2.8125 1.859375 -2.875 2.0625 -2.875 C 2.390625 -2.875 2.6875 -2.71875 2.890625 -2.46875 C 2.96875 -2.359375 2.96875 -2.34375 2.96875 -2.21875 Z M 2.96875 -0.734375 "/>
</g>
<g id="glyph-11-14">
<path d="M 4.3125 -4.71875 L 0.390625 -4.71875 L 0.390625 -4.46875 L 0.5625 -4.46875 C 1.09375 -4.46875 1.109375 -4.40625 1.109375 -4.15625 L 1.109375 -0.5625 C 1.109375 -0.328125 1.09375 -0.25 0.5625 -0.25 L 0.390625 -0.25 L 0.390625 0 C 0.390625 0 1.1875 -0.03125 1.453125 -0.03125 C 1.734375 -0.03125 2.5625 0 2.65625 0 L 2.65625 -0.25 L 2.421875 -0.25 C 1.765625 -0.25 1.765625 -0.34375 1.765625 -0.5625 L 1.765625 -4.203125 C 1.765625 -4.421875 1.765625 -4.46875 2.09375 -4.46875 L 2.9375 -4.46875 C 4 -4.46875 4.171875 -4.078125 4.296875 -3.125 L 4.53125 -3.125 Z M 4.3125 -4.71875 "/>
</g>
<g id="glyph-11-15">
<path d="M 3.515625 -1.265625 L 3.28125 -1.265625 C 3.25 -1.109375 3.1875 -0.703125 3.09375 -0.625 C 3.03125 -0.59375 2.5 -0.59375 2.40625 -0.59375 L 1.125 -0.59375 C 1.859375 -1.234375 2.09375 -1.4375 2.515625 -1.765625 C 3.03125 -2.171875 3.515625 -2.59375 3.515625 -3.265625 C 3.515625 -4.109375 2.78125 -4.609375 1.890625 -4.609375 C 1.015625 -4.609375 0.4375 -4.015625 0.4375 -3.375 C 0.4375 -3.015625 0.734375 -2.984375 0.8125 -2.984375 C 0.96875 -2.984375 1.171875 -3.09375 1.171875 -3.34375 C 1.171875 -3.484375 1.125 -3.71875 0.765625 -3.71875 C 0.984375 -4.21875 1.453125 -4.359375 1.78125 -4.359375 C 2.46875 -4.359375 2.84375 -3.828125 2.84375 -3.265625 C 2.84375 -2.65625 2.40625 -2.171875 2.1875 -1.921875 L 0.5 -0.265625 C 0.4375 -0.203125 0.4375 -0.1875 0.4375 0 L 3.296875 0 Z M 3.515625 -1.265625 "/>
</g>
<g id="glyph-12-0">
<path d="M -1.109375 -3.203125 L -1.109375 -2.984375 C -1.03125 -2.96875 -0.640625 -2.90625 -0.578125 -2.828125 C -0.53125 -2.78125 -0.53125 -2.296875 -0.53125 -2.21875 L -0.53125 -1.09375 L -1.15625 -1.859375 C -1.3125 -2.0625 -1.703125 -2.59375 -1.875 -2.78125 C -2.046875 -2.953125 -2.359375 -3.203125 -2.78125 -3.203125 C -3.53125 -3.203125 -3.953125 -2.53125 -3.953125 -1.734375 C -3.953125 -0.96875 -3.453125 -0.421875 -2.890625 -0.421875 C -2.59375 -0.421875 -2.546875 -0.6875 -2.546875 -0.75 C -2.546875 -0.90625 -2.65625 -1.078125 -2.875 -1.078125 C -3 -1.078125 -3.203125 -1 -3.203125 -0.734375 C -3.5 -0.875 -3.734375 -1.234375 -3.734375 -1.640625 C -3.734375 -2.265625 -3.265625 -2.59375 -2.78125 -2.59375 C -2.359375 -2.59375 -1.921875 -2.328125 -1.546875 -1.90625 L -0.25 -0.5 C -0.1875 -0.4375 -0.1875 -0.421875 0 -0.421875 L 0 -3.015625 Z M -1.109375 -3.203125 "/>
</g>
</g>
<clipPath id="clip-0">
<path clip-rule="nonzero" d="M 27 0 L 255.75 0 L 255.75 92 L 27 92 Z M 27 0 "/>
</clipPath>
<clipPath id="clip-1">
<path clip-rule="nonzero" d="M 27 121 L 255.75 121 L 255.75 205 L 27 205 Z M 27 121 "/>
</clipPath>
<clipPath id="clip-2">
<path clip-rule="nonzero" d="M 27 182 L 255.75 182 L 255.75 235 L 27 235 Z M 27 182 "/>
</clipPath>
</defs>
<path fill="none" stroke-width="0.19925" stroke-linecap="butt" stroke-linejoin="miter" stroke="rgb(50%, 50%, 50%)" stroke-opacity="1" stroke-miterlimit="10" d="M 0.0000773698 -2.124216 L 0.0000773698 2.127734 M 26.283794 -2.124216 L 26.283794 2.127734 M 52.57143 -2.124216 L 52.57143 2.127734 M 78.859065 -2.124216 L 78.859065 2.127734 M 105.142782 -2.124216 L 105.142782 2.127734 M 131.430418 -2.124216 L 131.430418 2.127734 M 157.714135 -2.124216 L 157.714135 2.127734 M 184.00177 -2.124216 L 184.00177 2.127734 M 210.285487 -2.124216 L 210.285487 2.127734 " transform="matrix(0.996785, 0, 0, -0.996785, 38.550704, 81.820113)"/>
<path fill="none" stroke-width="0.19925" stroke-linecap="butt" stroke-linejoin="miter" stroke="rgb(50%, 50%, 50%)" stroke-opacity="1" stroke-miterlimit="10" d="M -2.127857 -0.000200379 L 2.124093 -0.000200379 M -2.127857 36.315769 L 2.124093 36.315769 M -2.127857 72.631737 L 2.124093 72.631737 " transform="matrix(0.996785, 0, 0, -0.996785, 38.550704, 81.820113)"/>
<path fill="none" stroke-width="0.3985" stroke-linecap="butt" stroke-linejoin="miter" stroke="rgb(0%, 0%, 0%)" stroke-opacity="1" stroke-miterlimit="10" d="M 0.0000773698 -0.000200379 L 208.294712 -0.000200379 " transform="matrix(0.996785, 0, 0, -0.996785, 38.550704, 81.820113)"/>
<path fill-rule="nonzero" fill="rgb(0%, 0%, 0%)" fill-opacity="1" d="M 248.160156 81.820312 L 244.984375 80.230469 L 246.175781 81.820312 L 244.984375 83.410156 "/>
<path fill="none" stroke-width="0.3985" stroke-linecap="butt" stroke-linejoin="miter" stroke="rgb(0%, 0%, 0%)" stroke-opacity="1" stroke-miterlimit="10" d="M 0.0000773698 -0.000200379 L 0.0000773698 77.902589 " transform="matrix(0.996785, 0, 0, -0.996785, 38.550704, 81.820113)"/>
<path fill-rule="nonzero" fill="rgb(0%, 0%, 0%)" fill-opacity="1" d="M 38.550781 2.183594 L 36.960938 5.359375 L 38.550781 4.167969 L 40.140625 5.359375 "/>
<g fill="rgb(0%, 0%, 0%)" fill-opacity="1">
<use xlink:href="#glyph-0-0" x="36.254111" y="93.208383"/>
</g>
<g fill="rgb(0%, 0%, 0%)" fill-opacity="1">
<use xlink:href="#glyph-0-0" x="58.882131" y="93.208383"/>
</g>
<g fill="rgb(0%, 0%, 0%)" fill-opacity="1">
<use xlink:href="#glyph-1-0" x="63.47515" y="93.208383"/>
</g>
<g fill="rgb(0%, 0%, 0%)" fill-opacity="1">
<use xlink:href="#glyph-0-1" x="66.026828" y="93.208383"/>
</g>
<g fill="rgb(0%, 0%, 0%)" fill-opacity="1">
<use xlink:href="#glyph-0-2" x="88.656104" y="93.208383"/>
</g>
<g fill="rgb(0%, 0%, 0%)" fill-opacity="1">
<use xlink:href="#glyph-0-2" x="111.284123" y="93.208383"/>
</g>
<g fill="rgb(0%, 0%, 0%)" fill-opacity="1">
<use xlink:href="#glyph-1-0" x="115.877143" y="93.208383"/>
</g>
<g fill="rgb(0%, 0%, 0%)" fill-opacity="1">
<use xlink:href="#glyph-0-1" x="118.42882" y="93.208383"/>
</g>
<g fill="rgb(0%, 0%, 0%)" fill-opacity="1">
<use xlink:href="#glyph-0-3" x="141.057099" y="93.208383"/>
</g>
<g fill="rgb(0%, 0%, 0%)" fill-opacity="1">
<use xlink:href="#glyph-0-3" x="163.686116" y="93.208383"/>
</g>
<g fill="rgb(0%, 0%, 0%)" fill-opacity="1">
<use xlink:href="#glyph-1-0" x="168.279135" y="93.208383"/>
</g>
<g fill="rgb(0%, 0%, 0%)" fill-opacity="1">
<use xlink:href="#glyph-0-1" x="170.830813" y="93.208383"/>
</g>
<g fill="rgb(0%, 0%, 0%)" fill-opacity="1">
<use xlink:href="#glyph-0-4" x="193.459092" y="93.208383"/>
</g>
<g fill="rgb(0%, 0%, 0%)" fill-opacity="1">
<use xlink:href="#glyph-0-4" x="216.088108" y="93.208383"/>
</g>
<g fill="rgb(0%, 0%, 0%)" fill-opacity="1">
<use xlink:href="#glyph-1-0" x="220.681128" y="93.208383"/>
</g>
<g fill="rgb(0%, 0%, 0%)" fill-opacity="1">
<use xlink:href="#glyph-0-1" x="223.232805" y="93.208383"/>
</g>
<g fill="rgb(0%, 0%, 0%)" fill-opacity="1">
<use xlink:href="#glyph-0-5" x="245.861084" y="93.208383"/>
</g>
<g fill="rgb(0%, 0%, 0%)" fill-opacity="1">
<use xlink:href="#glyph-0-0" x="28.329669" y="84.700822"/>
</g>
<g fill="rgb(0%, 0%, 0%)" fill-opacity="1">
<use xlink:href="#glyph-0-0" x="21.18571" y="48.502569"/>
</g>
<g fill="rgb(0%, 0%, 0%)" fill-opacity="1">
<use xlink:href="#glyph-1-0" x="25.778729" y="48.502569"/>
</g>
<g fill="rgb(0%, 0%, 0%)" fill-opacity="1">
<use xlink:href="#glyph-0-1" x="28.330407" y="48.502569"/>
</g>
<g fill="rgb(0%, 0%, 0%)" fill-opacity="1">
<use xlink:href="#glyph-0-2" x="28.329669" y="12.304316"/>
</g>
<g clip-path="url(#clip-0)">
<path fill="none" stroke-width="0.79701" stroke-linecap="butt" stroke-linejoin="miter" stroke="rgb(0%, 0%, 69.999695%)" stroke-opacity="1" stroke-miterlimit="10" d="M 0.0000773698 72.631737 L 2.660975 69.057748 L 5.321874 65.652268 L 7.986691 62.403543 L 10.647589 59.323328 L 13.308487 56.395948 L 15.969385 53.613566 L 18.634202 50.960505 L 21.2951 48.448523 L 23.955998 46.058026 L 26.616896 43.785094 L 29.281713 41.617971 L 31.942611 39.564494 L 34.603509 37.608989 L 37.264408 35.755373 L 39.925306 33.991891 L 42.590123 32.314624 L 45.251021 30.715734 L 47.911919 29.19914 L 50.572817 27.757003 L 53.237634 26.385406 L 55.898532 25.084349 L 58.55943 23.842074 L 61.220328 22.666419 L 63.881227 21.545629 L 66.546044 20.48754 L 69.206942 19.468639 L 71.86784 18.508521 L 74.528738 17.595429 L 77.193555 16.729364 L 79.854453 15.902487 L 82.515351 15.118717 L 85.176249 14.370217 L 87.841066 13.656987 L 90.501964 12.986864 L 93.162862 12.344172 L 95.823761 11.732832 L 98.484659 11.156761 L 101.149476 10.608122 L 103.810374 10.082997 L 106.471272 9.581384 L 109.13217 9.111122 L 111.796987 8.660455 L 114.457885 8.229381 L 117.118783 7.821821 L 119.779681 7.437774 L 122.444498 7.073321 L 125.105396 6.724544 L 127.766295 6.391442 L 130.427193 6.077934 L 133.088091 5.776182 L 135.752908 5.490106 L 138.413806 5.219706 L 141.074704 4.961062 L 143.735602 4.718093 L 146.400419 4.482962 L 149.061317 4.263507 L 151.722215 4.051889 L 154.383113 3.852028 L 157.04793 3.663923 L 159.708829 3.479737 L 162.369727 3.311227 L 165.030625 3.146635 L 167.691523 2.989881 L 170.35634 2.844884 L 173.017238 2.703805 L 175.678136 2.570564 L 178.339034 2.441242 L 181.003851 2.323677 L 183.664749 2.206111 L 186.325647 2.096384 L 188.986546 1.994494 L 191.651363 1.896522 L 194.312261 1.80247 L 196.973159 1.712336 L 202.294955 1.547745 L 204.959772 1.473287 L 207.62067 1.398829 L 210.281568 1.332208 " transform="matrix(0.996785, 0, 0, -0.996785, 38.550704, 81.820113)"/>
</g>
<path fill="none" stroke-width="0.79701" stroke-linecap="butt" stroke-linejoin="miter" stroke="rgb(50%, 50%, 50%)" stroke-opacity="1" stroke-dasharray="2.98883 2.98883" stroke-miterlimit="10" d="M 52.57143 -0.000200379 L 52.57143 26.722427 " transform="matrix(0.996785, 0, 0, -0.996785, 38.550704, 81.820113)"/>
<g fill="rgb(0%, 0%, 0%)" fill-opacity="1">
<use xlink:href="#glyph-2-0" x="110.86049" y="48.983019"/>
</g>
<g fill="rgb(0%, 0%, 0%)" fill-opacity="1">
<use xlink:href="#glyph-3-0" x="114.628338" y="45.985686"/>
</g>
<g fill="rgb(0%, 0%, 0%)" fill-opacity="1">
<use xlink:href="#glyph-4-0" x="120.007232" y="45.985686"/>
<use xlink:href="#glyph-4-1" x="122.806163" y="45.985686"/>
<use xlink:href="#glyph-4-0" x="126.46111" y="45.985686"/>
</g>
<g fill="rgb(0%, 0%, 0%)" fill-opacity="1">
<use xlink:href="#glyph-4-2" x="129.260147" y="47.72408"/>
</g>
<g fill="rgb(0%, 0%, 0%)" fill-opacity="1">
<use xlink:href="#glyph-1-1" x="125.168344" y="106.728777"/>
</g>
<g fill="rgb(0%, 0%, 0%)" fill-opacity="1">
<use xlink:href="#glyph-1-2" x="130.42185" y="106.728777"/>
</g>
<g fill="rgb(0%, 0%, 0%)" fill-opacity="1">
<use xlink:href="#glyph-0-6" x="136.29473" y="106.728777"/>
</g>
<g fill="rgb(0%, 0%, 0%)" fill-opacity="1">
<use xlink:href="#glyph-1-2" x="145.986636" y="106.728777"/>
<use xlink:href="#glyph-1-3" x="149.30337" y="106.728777"/>
<use xlink:href="#glyph-1-2" x="153.896389" y="106.728777"/>
</g>
<g fill="rgb(0%, 0%, 0%)" fill-opacity="1">
<use xlink:href="#glyph-5-0" x="157.214987" y="107.78836"/>
</g>
<g fill="rgb(0%, 0%, 0%)" fill-opacity="1">
<use xlink:href="#glyph-6-0" x="12.132907" y="66.584252"/>
</g>
<g fill="rgb(0%, 0%, 0%)" fill-opacity="1">
<use xlink:href="#glyph-7-0" x="12.132907" y="63.011903"/>
</g>
<g fill="rgb(0%, 0%, 0%)" fill-opacity="1">
<use xlink:href="#glyph-8-0" x="13.125705" y="58.550163"/>
</g>
<g fill="rgb(0%, 0%, 0%)" fill-opacity="1">
<use xlink:href="#glyph-9-0" x="12.132907" y="55.398329"/>
</g>
<g fill="rgb(0%, 0%, 0%)" fill-opacity="1">
<use xlink:href="#glyph-7-1" x="12.132907" y="51.82598"/>
</g>
<g fill="rgb(0%, 0%, 0%)" fill-opacity="1">
<use xlink:href="#glyph-9-1" x="12.132907" y="48.509246"/>
</g>
<g fill="rgb(0%, 0%, 0%)" fill-opacity="1">
<use xlink:href="#glyph-6-1" x="12.132907" y="44.936898"/>
</g>
<g fill="rgb(0%, 0%, 0%)" fill-opacity="1">
<use xlink:href="#glyph-7-2" x="12.132907" y="41.364549"/>
<use xlink:href="#glyph-7-0" x="12.132907" y="36.77153"/>
</g>
<g fill="rgb(0%, 0%, 0%)" fill-opacity="1">
<use xlink:href="#glyph-8-0" x="13.125705" y="32.309794"/>
</g>
<g fill="rgb(0%, 0%, 0%)" fill-opacity="1">
<use xlink:href="#glyph-9-0" x="12.132907" y="29.158956"/>
<use xlink:href="#glyph-9-2" x="12.132907" y="25.586608"/>
<use xlink:href="#glyph-9-1" x="12.132907" y="20.993588"/>
</g>
<path fill="none" stroke-width="0.19925" stroke-linecap="butt" stroke-linejoin="miter" stroke="rgb(50%, 50%, 50%)" stroke-opacity="1" stroke-miterlimit="10" d="M 0.0000773698 -2.125335 L 0.0000773698 2.126615 M 26.283794 -2.125335 L 26.283794 2.126615 M 52.57143 -2.125335 L 52.57143 2.126615 M 78.859065 -2.125335 L 78.859065 2.126615 M 105.142782 -2.125335 L 105.142782 2.126615 M 131.430418 -2.125335 L 131.430418 2.126615 M 157.714135 -2.125335 L 157.714135 2.126615 M 184.00177 -2.125335 L 184.00177 2.126615 M 210.285487 -2.125335 L 210.285487 2.126615 " transform="matrix(0.996785, 0, 0, -0.996785, 38.550704, 223.619779)"/>
<path fill="none" stroke-width="0.19925" stroke-linecap="butt" stroke-linejoin="miter" stroke="rgb(50%, 50%, 50%)" stroke-opacity="1" stroke-miterlimit="10" d="M -2.127857 -0.00131925 L 2.124093 -0.00131925 M -2.127857 30.283542 L 2.124093 30.283542 M -2.127857 60.564484 L 2.124093 60.564484 M -2.127857 90.845426 L 2.124093 90.845426 " transform="matrix(0.996785, 0, 0, -0.996785, 38.550704, 223.619779)"/>
<path fill="none" stroke-width="0.3985" stroke-linecap="butt" stroke-linejoin="miter" stroke="rgb(0%, 0%, 0%)" stroke-opacity="1" stroke-miterlimit="10" d="M 0.0000773698 -0.00131925 L 208.294712 -0.00131925 " transform="matrix(0.996785, 0, 0, -0.996785, 38.550704, 223.619779)"/>
<path fill-rule="nonzero" fill="rgb(0%, 0%, 0%)" fill-opacity="1" d="M 248.160156 223.621094 L 244.984375 222.03125 L 246.175781 223.621094 L 244.984375 225.207031 "/>
<path fill="none" stroke-width="0.3985" stroke-linecap="butt" stroke-linejoin="miter" stroke="rgb(0%, 0%, 0%)" stroke-opacity="1" stroke-miterlimit="10" d="M 0.0000773698 -0.00131925 L 0.0000773698 94.909272 " transform="matrix(0.996785, 0, 0, -0.996785, 38.550704, 223.619779)"/>
<path fill-rule="nonzero" fill="rgb(0%, 0%, 0%)" fill-opacity="1" d="M 38.550781 127.027344 L 36.960938 130.207031 L 38.550781 129.015625 L 40.140625 130.207031 "/>
<g fill="rgb(0%, 0%, 0%)" fill-opacity="1">
<use xlink:href="#glyph-0-0" x="36.254111" y="235.007052"/>
</g>
<g fill="rgb(0%, 0%, 0%)" fill-opacity="1">
<use xlink:href="#glyph-0-0" x="58.882131" y="235.007052"/>
</g>
<g fill="rgb(0%, 0%, 0%)" fill-opacity="1">
<use xlink:href="#glyph-1-0" x="63.47515" y="235.007052"/>
</g>
<g fill="rgb(0%, 0%, 0%)" fill-opacity="1">
<use xlink:href="#glyph-0-1" x="66.026828" y="235.007052"/>
</g>
<g fill="rgb(0%, 0%, 0%)" fill-opacity="1">
<use xlink:href="#glyph-0-2" x="88.656104" y="235.007052"/>
</g>
<g fill="rgb(0%, 0%, 0%)" fill-opacity="1">
<use xlink:href="#glyph-0-2" x="111.284123" y="235.007052"/>
</g>
<g fill="rgb(0%, 0%, 0%)" fill-opacity="1">
<use xlink:href="#glyph-1-0" x="115.877143" y="235.007052"/>
</g>
<g fill="rgb(0%, 0%, 0%)" fill-opacity="1">
<use xlink:href="#glyph-0-1" x="118.42882" y="235.007052"/>
</g>
<g fill="rgb(0%, 0%, 0%)" fill-opacity="1">
<use xlink:href="#glyph-0-3" x="141.057099" y="235.007052"/>
</g>
<g fill="rgb(0%, 0%, 0%)" fill-opacity="1">
<use xlink:href="#glyph-0-3" x="163.686116" y="235.007052"/>
</g>
<g fill="rgb(0%, 0%, 0%)" fill-opacity="1">
<use xlink:href="#glyph-1-0" x="168.279135" y="235.007052"/>
</g>
<g fill="rgb(0%, 0%, 0%)" fill-opacity="1">
<use xlink:href="#glyph-0-1" x="170.830813" y="235.007052"/>
</g>
<g fill="rgb(0%, 0%, 0%)" fill-opacity="1">
<use xlink:href="#glyph-0-4" x="193.459092" y="235.007052"/>
</g>
<g fill="rgb(0%, 0%, 0%)" fill-opacity="1">
<use xlink:href="#glyph-0-4" x="216.088108" y="235.007052"/>
</g>
<g fill="rgb(0%, 0%, 0%)" fill-opacity="1">
<use xlink:href="#glyph-1-0" x="220.681128" y="235.007052"/>
</g>
<g fill="rgb(0%, 0%, 0%)" fill-opacity="1">
<use xlink:href="#glyph-0-1" x="223.232805" y="235.007052"/>
</g>
<g fill="rgb(0%, 0%, 0%)" fill-opacity="1">
<use xlink:href="#glyph-0-5" x="245.861084" y="235.007052"/>
</g>
<g fill="rgb(0%, 0%, 0%)" fill-opacity="1">
<use xlink:href="#glyph-0-0" x="28.329669" y="226.499491"/>
</g>
<g fill="rgb(0%, 0%, 0%)" fill-opacity="1">
<use xlink:href="#glyph-0-2" x="28.329669" y="196.314843"/>
</g>
<g fill="rgb(0%, 0%, 0%)" fill-opacity="1">
<use xlink:href="#glyph-0-3" x="28.329669" y="166.130195"/>
</g>
<g fill="rgb(0%, 0%, 0%)" fill-opacity="1">
<use xlink:href="#glyph-0-4" x="28.329669" y="135.945547"/>
</g>
<g clip-path="url(#clip-1)">
<path fill="none" stroke-width="0.79701" stroke-linecap="butt" stroke-linejoin="miter" stroke="rgb(69.999695%, 0%, 0%)" stroke-opacity="1" stroke-miterlimit="10" d="M 0.0000773698 90.845426 L 2.660975 85.029855 L 5.321874 79.751166 L 7.986691 74.989765 L 10.647589 70.682951 L 13.308487 66.791534 L 15.969385 63.272408 L 18.634202 60.098141 L 21.2951 57.225625 L 23.955998 54.627429 L 26.616896 52.283957 L 29.281713 50.16386 L 31.942611 48.247543 L 34.603509 46.515412 L 37.264408 44.955711 L 39.925306 43.541006 L 42.590123 42.263462 L 45.251021 41.11132 L 47.911919 40.064988 L 50.572817 39.128383 L 53.237634 38.274074 L 55.898532 37.502061 L 58.55943 36.804506 L 61.220328 36.181409 L 63.881227 35.613176 L 66.546044 35.099807 L 69.206942 34.633464 L 71.86784 34.214147 L 74.528738 33.837937 L 77.193555 33.493079 L 79.854453 33.18349 L 82.515351 32.905251 L 85.176249 32.654445 L 87.841066 32.423233 L 90.501964 32.219453 L 93.162862 32.031348 L 95.823761 31.862838 L 98.484659 31.710003 L 101.149476 31.572843 L 103.810374 31.44744 L 106.471272 31.337712 L 109.13217 31.235822 L 111.796987 31.14177 L 114.457885 31.059474 L 117.118783 30.985016 L 119.779681 30.918395 L 122.444498 30.855694 L 125.105396 30.80083 L 127.766295 30.749885 L 133.088091 30.66367 L 135.752908 30.628401 L 141.074704 30.565699 L 143.735602 30.538267 L 146.400419 30.514754 L 149.061317 30.491241 L 154.383113 30.452052 L 157.04793 30.436377 L 159.708829 30.420702 L 167.691523 30.385432 L 170.35634 30.373675 L 178.339034 30.350162 L 181.003851 30.342325 L 186.325647 30.334487 L 188.986546 30.326649 L 191.651363 30.32273 L 199.634057 30.310974 L 202.294955 30.310974 L 204.959772 30.307055 L 207.62067 30.303136 L 210.281568 30.303136 " transform="matrix(0.996785, 0, 0, -0.996785, 38.550704, 223.619779)"/>
</g>
<g clip-path="url(#clip-2)">
<path fill="none" stroke-width="0.79701" stroke-linecap="butt" stroke-linejoin="miter" stroke="rgb(0%, 50%, 0%)" stroke-opacity="1" stroke-miterlimit="10" d="M 0.0000773698 -0.00131925 L 2.660975 2.910385 L 5.321874 5.54777 L 7.986691 7.93043 L 10.647589 10.081878 L 13.308487 12.025627 L 15.969385 13.78519 L 18.634202 15.372323 L 21.2951 16.810541 L 23.955998 18.10768 L 26.616896 19.279415 L 29.281713 20.341423 L 31.942611 21.297622 L 34.603509 22.163688 L 37.264408 22.947457 L 39.925306 23.65285 L 42.590123 24.291623 L 45.251021 24.867693 L 47.911919 25.3889 L 50.572817 25.859162 L 53.237634 26.286316 L 55.898532 26.670364 L 58.55943 27.019141 L 61.220328 27.332649 L 63.881227 27.618725 L 66.546044 27.87345 L 69.206942 28.104662 L 71.86784 28.31628 L 74.528738 28.504385 L 77.193555 28.676814 L 79.854453 28.829649 L 82.515351 28.970728 L 85.176249 29.096131 L 87.841066 29.209777 L 90.501964 29.315586 L 93.162862 29.40572 L 95.823761 29.491934 L 98.484659 29.566393 L 101.149476 29.636932 L 103.810374 29.699633 L 106.471272 29.754497 L 109.13217 29.805442 L 111.796987 29.852469 L 117.118783 29.930845 L 119.779681 29.966115 L 122.444498 29.993547 L 127.766295 30.048411 L 130.427193 30.071924 L 133.088091 30.091518 L 135.752908 30.111113 L 141.074704 30.142463 L 143.735602 30.15422 L 146.400419 30.165976 L 151.722215 30.189489 L 154.383113 30.197327 L 157.04793 30.205165 L 162.369727 30.22084 L 165.030625 30.224759 L 167.691523 30.232597 L 170.35634 30.236516 L 178.339034 30.248272 L 181.003851 30.252191 L 183.664749 30.25611 L 186.325647 30.25611 L 188.986546 30.260029 L 191.651363 30.260029 L 194.312261 30.263948 L 196.973159 30.263948 L 199.634057 30.267866 L 202.294955 30.267866 L 204.959772 30.271785 L 210.281568 30.271785 " transform="matrix(0.996785, 0, 0, -0.996785, 38.550704, 223.619779)"/>
</g>
<path fill="none" stroke-width="0.79701" stroke-linecap="butt" stroke-linejoin="miter" stroke="rgb(0%, 0%, 0%)" stroke-opacity="1" stroke-dasharray="2.98883 2.98883" stroke-miterlimit="10" d="M 0.0000773698 30.283542 L 210.285487 30.283542 " transform="matrix(0.996785, 0, 0, -0.996785, 38.550704, 223.619779)"/>
<g fill="rgb(69.999695%, 0%, 0%)" fill-opacity="1">
<use xlink:href="#glyph-2-1" x="57.779687" y="150.263369"/>
</g>
<g fill="rgb(69.999695%, 0%, 0%)" fill-opacity="1">
<use xlink:href="#glyph-10-0" x="62.001072" y="147.267033"/>
</g>
<g fill="rgb(69.999695%, 0%, 0%)" fill-opacity="1">
<use xlink:href="#glyph-4-3" x="61.751875" y="152.249962"/>
</g>
<g fill="rgb(69.999695%, 0%, 0%)" fill-opacity="1">
<use xlink:href="#glyph-11-0" x="65.876572" y="150.263369"/>
<use xlink:href="#glyph-11-1" x="68.979669" y="150.263369"/>
<use xlink:href="#glyph-11-2" x="72.93848" y="150.263369"/>
</g>
<g fill="rgb(69.999695%, 0%, 0%)" fill-opacity="1">
<use xlink:href="#glyph-11-3" x="78.300774" y="150.263369"/>
</g>
<g fill="rgb(69.999695%, 0%, 0%)" fill-opacity="1">
<use xlink:href="#glyph-11-4" x="86.656334" y="150.263369"/>
</g>
<g fill="rgb(69.999695%, 0%, 0%)" fill-opacity="1">
<use xlink:href="#glyph-2-2" x="90.615145" y="150.263369"/>
</g>
<g fill="rgb(69.999695%, 0%, 0%)" fill-opacity="1">
<use xlink:href="#glyph-2-3" x="96.160956" y="150.263369"/>
<use xlink:href="#glyph-2-4" x="100.229599" y="150.263369"/>
</g>
<g fill="rgb(69.999695%, 0%, 0%)" fill-opacity="1">
<use xlink:href="#glyph-11-0" x="109.952494" y="150.263369"/>
<use xlink:href="#glyph-11-5" x="113.055591" y="150.263369"/>
<use xlink:href="#glyph-11-6" x="117.441912" y="150.263369"/>
<use xlink:href="#glyph-11-7" x="121.400723" y="150.263369"/>
</g>
<g fill="rgb(69.999695%, 0%, 0%)" fill-opacity="1">
<use xlink:href="#glyph-11-8" x="127.1801" y="150.263369"/>
<use xlink:href="#glyph-11-7" x="130.326295" y="150.263369"/>
<use xlink:href="#glyph-11-9" x="133.429391" y="150.263369"/>
<use xlink:href="#glyph-11-10" x="137.388202" y="150.263369"/>
<use xlink:href="#glyph-11-7" x="140.491299" y="150.263369"/>
<use xlink:href="#glyph-11-2" x="143.594395" y="150.263369"/>
</g>
<g fill="rgb(0%, 50%, 0%)" fill-opacity="1">
<use xlink:href="#glyph-2-1" x="73.499985" y="214.793246"/>
</g>
<g fill="rgb(0%, 50%, 0%)" fill-opacity="1">
<use xlink:href="#glyph-4-3" x="77.472174" y="215.786044"/>
</g>
<g fill="rgb(0%, 50%, 0%)" fill-opacity="1">
<use xlink:href="#glyph-11-0" x="80.618028" y="214.793246"/>
<use xlink:href="#glyph-11-1" x="83.721124" y="214.793246"/>
<use xlink:href="#glyph-11-2" x="87.679935" y="214.793246"/>
</g>
<g fill="rgb(0%, 50%, 0%)" fill-opacity="1">
<use xlink:href="#glyph-11-3" x="93.04223" y="214.793246"/>
</g>
<g fill="rgb(0%, 50%, 0%)" fill-opacity="1">
<use xlink:href="#glyph-11-1" x="101.397789" y="214.793246"/>
</g>
<g fill="rgb(0%, 50%, 0%)" fill-opacity="1">
<use xlink:href="#glyph-11-0" x="108.032882" y="214.793246"/>
<use xlink:href="#glyph-11-11" x="111.135978" y="214.793246"/>
<use xlink:href="#glyph-11-6" x="114.666584" y="214.793246"/>
<use xlink:href="#glyph-11-12" x="118.625395" y="214.793246"/>
<use xlink:href="#glyph-11-13" x="120.873472" y="214.793246"/>
</g>
<g fill="rgb(0%, 50%, 0%)" fill-opacity="1">
<use xlink:href="#glyph-11-8" x="127.936074" y="214.793246"/>
<use xlink:href="#glyph-11-7" x="131.082269" y="214.793246"/>
<use xlink:href="#glyph-11-9" x="134.185365" y="214.793246"/>
<use xlink:href="#glyph-11-10" x="138.144176" y="214.793246"/>
<use xlink:href="#glyph-11-7" x="141.247272" y="214.793246"/>
<use xlink:href="#glyph-11-2" x="144.350368" y="214.793246"/>
</g>
<g fill="rgb(0%, 0%, 0%)" fill-opacity="1">
<use xlink:href="#glyph-11-14" x="173.347954" y="186.679918"/>
</g>
<g fill="rgb(0%, 0%, 0%)" fill-opacity="1">
<use xlink:href="#glyph-2-3" x="178.258409" y="186.679918"/>
</g>
<g fill="rgb(0%, 0%, 0%)" fill-opacity="1">
<use xlink:href="#glyph-11-15" x="182.327052" y="186.679918"/>
</g>
<g fill="rgb(0%, 0%, 0%)" fill-opacity="1">
<use xlink:href="#glyph-2-5" x="186.285863" y="186.679918"/>
</g>
<g fill="rgb(0%, 0%, 0%)" fill-opacity="1">
<use xlink:href="#glyph-11-3" x="193.147571" y="186.679918"/>
</g>
<g fill="rgb(0%, 0%, 0%)" fill-opacity="1">
<use xlink:href="#glyph-2-2" x="201.50313" y="186.679918"/>
</g>
<g fill="rgb(0%, 0%, 0%)" fill-opacity="1">
<use xlink:href="#glyph-2-3" x="207.048941" y="186.679918"/>
<use xlink:href="#glyph-2-4" x="211.117584" y="186.679918"/>
</g>
<g fill="rgb(0%, 0%, 0%)" fill-opacity="1">
<use xlink:href="#glyph-1-1" x="139.067516" y="247.322333"/>
</g>
<g fill="rgb(0%, 0%, 0%)" fill-opacity="1">
<use xlink:href="#glyph-1-2" x="144.321022" y="247.322333"/>
</g>
<g fill="rgb(0%, 0%, 0%)" fill-opacity="1">
<use xlink:href="#glyph-6-0" x="19.276866" y="205.520154"/>
</g>
<g fill="rgb(0%, 0%, 0%)" fill-opacity="1">
<use xlink:href="#glyph-7-0" x="19.276866" y="201.947805"/>
</g>
<g fill="rgb(0%, 0%, 0%)" fill-opacity="1">
<use xlink:href="#glyph-12-0" x="15.480112" y="197.165101"/>
</g>
<g fill="rgb(0%, 0%, 0%)" fill-opacity="1">
<use xlink:href="#glyph-8-0" x="20.936514" y="197.486066"/>
</g>
<g fill="rgb(0%, 0%, 0%)" fill-opacity="1">
<use xlink:href="#glyph-9-0" x="19.276866" y="193.027446"/>
</g>
<g fill="rgb(0%, 0%, 0%)" fill-opacity="1">
<use xlink:href="#glyph-7-1" x="19.276866" y="189.455097"/>
</g>
<g fill="rgb(0%, 0%, 0%)" fill-opacity="1">
<use xlink:href="#glyph-9-1" x="19.276866" y="186.138363"/>
</g>
<g fill="rgb(0%, 0%, 0%)" fill-opacity="1">
<use xlink:href="#glyph-6-1" x="19.276866" y="182.566015"/>
</g>
<g fill="rgb(0%, 0%, 0%)" fill-opacity="1">
<use xlink:href="#glyph-7-2" x="19.276866" y="177.465341"/>
</g>
<g fill="rgb(0%, 0%, 0%)" fill-opacity="1">
<use xlink:href="#glyph-9-0" x="19.276866" y="171.335059"/>
</g>
<g fill="rgb(0%, 0%, 0%)" fill-opacity="1">
<use xlink:href="#glyph-7-3" x="19.276866" y="167.76271"/>
</g>
<g fill="rgb(0%, 0%, 0%)" fill-opacity="1">
<use xlink:href="#glyph-7-2" x="19.276866" y="161.384857"/>
<use xlink:href="#glyph-7-4" x="19.276866" y="156.791838"/>
</g>
<g fill="rgb(0%, 0%, 0%)" fill-opacity="1">
<use xlink:href="#glyph-9-1" x="19.276866" y="148.698864"/>
</g>
</svg>
